CrimsonText_New_Draft_39-Bold.ufo
<glyph name="numbersign" format="1">
  <advance width="600"/>
  <unicode hex="0023"/>
  <note>
    numbersign
  </note>
  <outline>
    <contour>
      <point x="291" y="0" type="line"/>
      <point x="362" y="0" type="line"/>
      <point x="500" y="660" type="line"/>
      <point x="429" y="660" type="line"/>
    </contour>
    <contour>
      <point x="40" y="188" type="line"/>
      <point x="540" y="188" type="line"/>
      <point x="540" y="252" type="line"/>
      <point x="40" y="252" type="line"/>
    </contour>
    <contour>
      <point x="100" y="0" type="line"/>
      <point x="171" y="0" type="line"/>
      <point x="309" y="660" type="line"/>
      <point x="238" y="660" type="line"/>
    </contour>
    <contour>
      <point x="60" y="408" type="line"/>
      <point x="560" y="408" type="line"/>
      <point x="560" y="472" type="line"/>
      <point x="60" y="472" type="line"/>
    </contour>
  </outline>
</glyph>
<glyph name="quotesingle" format="1">
  <advance width="288"/>
  <unicode hex="0027"/>
  <note>
    quotesingle
  </note>
  <outline>
    <contour>
      <point x="144" y="698" type="curve" smooth="yes"/>
      <point x="95" y="698"/>
      <point x="59" y="660"/>
      <point x="59" y="595" type="curve" smooth="yes"/>
      <point x="59" y="539"/>
      <point x="101" y="405"/>
      <point x="121" y="330" type="curve"/>
      <point x="167" y="330" type="line"/>
      <point x="187" y="405"/>
      <point x="229" y="539"/>
      <point x="229" y="595" type="curve" smooth="yes"/>
      <point x="229" y="660"/>
      <point x="192" y="698"/>
    </contour>
  </outline>
</glyph>
<glyph name="comma" format="1">
  <advance width="288"/>
  <unicode hex="002C"/>
  <note>
    comma
  </note>
  <outline>
    <contour>
      <point x="49" y="-212" type="line"/>
      <point x="181" y="-159"/>
      <point x="245" y="-64"/>
      <point x="245" y="45" type="curve" smooth="yes"/>
      <point x="245" y="141"/>
      <point x="191" y="177"/>
      <point x="141" y="177" type="curve" smooth="yes"/>
      <point x="88" y="177"/>
      <point x="49" y="140"/>
      <point x="49" y="93" type="curve" smooth="yes"/>
      <point x="49" y="13"/>
      <point x="136" y="19"/>
      <point x="136" y="-53" type="curve" smooth="yes"/>
      <point x="136" y="-98"/>
      <point x="108" y="-137"/>
      <point x="29" y="-170" type="curve"/>
    </contour>
  </outline>
</glyph>
<glyph name="hyphen" format="1">
  <advance width="393"/>
  <unicode hex="002D"/>
  <note>
    hyphen
  </note>
  <outline>
    <contour>
      <point x="75" y="155" type="line"/>
      <point x="318" y="189" type="line"/>
      <point x="318" y="291" type="line"/>
      <point x="75" y="257" type="line"/>
    </contour>
  </outline>
</glyph>
<glyph name="three" format="1">
  <advance width="500"/>
  <unicode hex="0033"/>
  <note>
    three
  </note>
  <outline>
    <contour>
      <point x="231" y="344" type="line"/>
      <point x="342" y="374"/>
      <point x="420" y="433"/>
      <point x="420" y="522" type="curve" smooth="yes"/>
      <point x="420" y="606"/>
      <point x="349" y="670"/>
      <point x="232" y="670" type="curve" smooth="yes"/>
      <point x="136" y="670"/>
      <point x="53" y="618"/>
      <point x="13" y="536" type="curve"/>
      <point x="58" y="505" type="line"/>
      <point x="86" y="547"/>
      <point x="132" y="572"/>
      <point x="182" y="572" type="curve" smooth="yes"/>
      <point x="241" y="572"/>
      <point x="279" y="539"/>
      <point x="279" y="485" type="curve" smooth="yes"/>
      <point x="279" y="418"/>
      <point x="220" y="371"/>
      <point x="122" y="360" type="curve"/>
      <point x="129" y="298" type="line"/>
      <point x="146" y="301"/>
      <point x="165" y="303"/>
      <point x="185" y="303" type="curve" smooth="yes"/>
      <point x="268" y="303"/>
      <point x="321" y="256"/>
      <point x="321" y="180" type="curve" smooth="yes"/>
      <point x="321" y="93"/>
      <point x="255" y="39"/>
      <point x="173" y="57" type="curve"/>
      <point x="212" y="40" type="line"/>
      <point x="135" y="106" type="line" smooth="yes"/>
      <point x="108" y="130"/>
      <point x="91" y="138"/>
      <point x="65" y="138" type="curve" smooth="yes"/>
      <point x="33" y="138"/>
      <point x="10" y="115"/>
      <point x="10" y="84" type="curve" smooth="yes"/>
      <point x="10" y="30"/>
      <point x="83" y="-10"/>
      <point x="182" y="-10" type="curve" smooth="yes"/>
      <point x="351" y="-10"/>
      <point x="461" y="91"/>
      <point x="461" y="199" type="curve" smooth="yes"/>
      <point x="461" y="298"/>
      <point x="383" y="361"/>
      <point x="250" y="364" type="curve"/>
    </contour>
  </outline>
</glyph>
<glyph name="four" format="1">
  <advance width="590"/>
  <unicode hex="0034"/>
  <note>
    four
  </note>
  <outline>
    <contour>
      <point x="450" y="174" type="curve"/>
      <point x="449" y="483" type="line"/>
      <point x="449" y="547"/>
      <point x="451" y="610"/>
      <point x="454" y="664" type="curve"/>
      <point x="376" y="664" type="line"/>
      <point x="16" y="221" type="line"/>
      <point x="26" y="174" type="line"/>
      <point x="547" y="174" type="line"/>
      <point x="547" y="261" type="line"/>
      <point x="171" y="261" type="line" smooth="yes"/>
      <point x="146" y="261"/>
      <point x="120" y="263"/>
      <point x="95" y="265" type="curve"/>
      <point x="123" y="238" type="line"/>
      <point x="329" y="519" type="line"/>
      <point x="312" y="529" type="line"/>
      <point x="312" y="174" type="line"/>
      <point x="312" y="103"/>
      <point x="312" y="77"/>
      <point x="312" y="69" type="curve"/>
      <point x="292" y="61"/>
      <point x="256" y="54"/>
      <point x="219" y="51" type="curve"/>
      <point x="223" y="-5" type="line"/>
      <point x="268" y="-1"/>
      <point x="327" y="2"/>
      <point x="381" y="2" type="curve" smooth="yes"/>
      <point x="435" y="2"/>
      <point x="487" y="-1"/>
      <point x="521" y="-5" type="curve"/>
      <point x="524" y="51" type="line"/>
      <point x="496" y="54"/>
      <point x="467" y="61"/>
      <point x="453" y="69" type="curve"/>
      <point x="452" y="77"/>
      <point x="450" y="103"/>
    </contour>
  </outline>
</glyph>
<glyph name="five" format="1">
  <advance width="500"/>
  <unicode hex="0035"/>
  <note>
    five
  </note>
  <outline>
    <contour>
      <point x="182" y="-10" type="curve" smooth="yes"/>
      <point x="351" y="-10"/>
      <point x="461" y="87"/>
      <point x="461" y="203" type="curve" smooth="yes"/>
      <point x="461" y="302"/>
      <point x="386" y="371"/>
      <point x="251" y="399" type="curve" smooth="yes"/>
      <point x="208" y="408"/>
      <point x="165" y="413"/>
      <point x="123" y="418" type="curve"/>
      <point x="152" y="375" type="line"/>
      <point x="186" y="548" type="line"/>
      <point x="421" y="548" type="line"/>
      <point x="421" y="660" type="line"/>
      <point x="134" y="660" type="line"/>
      <point x="73" y="308" type="line"/>
      <point x="114" y="303"/>
      <point x="149" y="299"/>
      <point x="181" y="292" type="curve" smooth="yes"/>
      <point x="279" y="271"/>
      <point x="321" y="236"/>
      <point x="321" y="171" type="curve" smooth="yes"/>
      <point x="321" y="93"/>
      <point x="255" y="39"/>
      <point x="173" y="57" type="curve"/>
      <point x="212" y="40" type="line"/>
      <point x="135" y="106" type="line" smooth="yes"/>
      <point x="105" y="131"/>
      <point x="89" y="138"/>
      <point x="65" y="138" type="curve" smooth="yes"/>
      <point x="33" y="138"/>
      <point x="10" y="115"/>
      <point x="10" y="84" type="curve" smooth="yes"/>
      <point x="10" y="30"/>
      <point x="83" y="-10"/>
    </contour>
  </outline>
</glyph>
<glyph name="six" format="1">
  <advance width="580"/>
  <unicode hex="0036"/>
  <note>
    six
  </note>
  <outline>
    <contour>
      <point x="171" y="281" type="curve"/>
      <point x="172" y="226" type="line"/>
      <point x="195" y="274"/>
      <point x="242" y="307"/>
      <point x="294" y="307" type="curve" smooth="yes"/>
      <point x="358" y="307"/>
      <point x="400" y="256"/>
      <point x="400" y="174" type="curve" smooth="yes"/>
      <point x="400" y="105"/>
      <point x="360" y="53"/>
      <point x="307" y="53" type="curve" smooth="yes"/>
      <point x="242" y="53"/>
      <point x="195" y="133"/>
      <point x="195" y="241" type="curve" smooth="yes"/>
      <point x="195" y="438"/>
      <point x="290" y="557"/>
      <point x="498" y="617" type="curve"/>
      <point x="477" y="680" type="line"/>
      <point x="211" y="638"/>
      <point x="50" y="451"/>
      <point x="50" y="251" type="curve" smooth="yes"/>
      <point x="50" y="95"/>
      <point x="150" y="-10"/>
      <point x="297" y="-10" type="curve" smooth="yes"/>
      <point x="433" y="-10"/>
      <point x="538" y="88"/>
      <point x="538" y="213" type="curve" smooth="yes"/>
      <point x="538" y="322"/>
      <point x="454" y="403"/>
      <point x="341" y="403" type="curve" smooth="yes"/>
      <point x="276" y="403"/>
      <point x="210" y="356"/>
    </contour>
  </outline>
</glyph>
<glyph name="seven" format="1">
  <advance width="508"/>
  <unicode hex="0037"/>
  <note>
    seven
  </note>
  <outline>
    <contour>
      <point x="239" y="0" type="line"/>
      <point x="485" y="610" type="line"/>
      <point x="481" y="661" type="line"/>
      <point x="453" y="661"/>
      <point x="423" y="660"/>
      <point x="396" y="660" type="curve" smooth="yes"/>
      <point x="178" y="660" type="line" smooth="yes"/>
      <point x="139" y="660"/>
      <point x="65" y="662"/>
      <point x="32" y="663" type="curve"/>
      <point x="10" y="466" type="line"/>
      <point x="72" y="460" type="line"/>
      <point x="79" y="485"/>
      <point x="88" y="517"/>
      <point x="96" y="542" type="curve"/>
      <point x="112" y="544"/>
      <point x="135" y="545"/>
      <point x="151" y="545" type="curve" smooth="yes"/>
      <point x="404" y="545" type="line"/>
      <point x="404" y="588" type="line"/>
      <point x="125" y="40" type="line"/>
      <point x="125" y="0" type="line"/>
    </contour>
  </outline>
</glyph>
<glyph name="less" format="1">
  <advance width="600"/>
  <unicode hex="003C"/>
  <outline>
    <contour>
      <point x="56" y="239" type="line"/>
      <point x="544" y="32" type="line"/>
      <point x="544" y="128" type="line"/>
      <point x="93" y="316" type="line"/>
      <point x="93" y="255" type="line"/>
      <point x="544" y="444" type="line"/>
      <point x="544" y="540" type="line"/>
      <point x="56" y="334" type="line"/>
    </contour>
  </outline>
</glyph>
<glyph name="equal" format="1">
  <advance width="600"/>
  <unicode hex="003D"/>
  <outline>
    <contour>
      <point x="544" y="430" type="line"/>
      <point x="56" y="430" type="line"/>
      <point x="56" y="342" type="line"/>
      <point x="544" y="342" type="line"/>
    </contour>
    <contour>
      <point x="544" y="230" type="line"/>
      <point x="56" y="230" type="line"/>
      <point x="56" y="142" type="line"/>
      <point x="544" y="142" type="line"/>
    </contour>
  </outline>
</glyph>
<glyph name="greater" format="1">
  <advance width="600"/>
  <unicode hex="003E"/>
  <outline>
    <contour>
      <point x="544" y="239" type="line"/>
      <point x="544" y="334" type="line"/>
      <point x="56" y="540" type="line"/>
      <point x="56" y="444" type="line"/>
      <point x="507" y="255" type="line"/>
      <point x="507" y="316" type="line"/>
      <point x="56" y="128" type="line"/>
      <point x="56" y="32" type="line"/>
    </contour>
  </outline>
</glyph>
<glyph name="B" format="1">
  <advance width="652"/>
  <unicode hex="0042"/>
  <note>
    B
  </note>
  <outline>
    <contour>
      <point x="102" y="69" type="curve"/>
      <point x="91" y="61"/>
      <point x="59" y="54"/>
      <point x="31" y="51" type="curve"/>
      <point x="34" y="-5" type="line"/>
      <point x="68" y="-1"/>
      <point x="155" y="2"/>
      <point x="209" y="2" type="curve" smooth="yes"/>
      <point x="243" y="2"/>
      <point x="281" y="-2"/>
      <point x="317" y="-2" type="curve" smooth="yes"/>
      <point x="503" y="-2"/>
      <point x="604" y="79"/>
      <point x="604" y="194" type="curve" smooth="yes"/>
      <point x="604" y="286"/>
      <point x="544" y="351"/>
      <point x="387" y="358" type="curve"/>
      <point x="384" y="350" type="line"/>
      <point x="507" y="358"/>
      <point x="570" y="428"/>
      <point x="570" y="503" type="curve" smooth="yes"/>
      <point x="570" y="605"/>
      <point x="498" y="663"/>
      <point x="339" y="663" type="curve" smooth="yes"/>
      <point x="274" y="663"/>
      <point x="215" y="660"/>
      <point x="179" y="660" type="curve" smooth="yes"/>
      <point x="134" y="660"/>
      <point x="87" y="659"/>
      <point x="34" y="661" type="curve"/>
      <point x="31" y="605" type="line"/>
      <point x="59" y="605"/>
      <point x="91" y="599"/>
      <point x="102" y="591" type="curve"/>
      <point x="106" y="583"/>
      <point x="110" y="527"/>
      <point x="110" y="421" type="curve" smooth="yes"/>
      <point x="110" y="239" type="line" smooth="yes"/>
      <point x="110" y="133"/>
      <point x="106" y="77"/>
    </contour>
    <contour>
      <point x="249" y="199" type="curve" smooth="yes"/>
      <point x="249" y="461" type="line" smooth="yes"/>
      <point x="249" y="548"/>
      <point x="250" y="592"/>
      <point x="252" y="600" type="curve"/>
      <point x="262" y="603"/>
      <point x="284" y="606"/>
      <point x="306" y="606" type="curve" smooth="yes"/>
      <point x="373" y="606"/>
      <point x="423" y="568"/>
      <point x="423" y="489" type="curve" smooth="yes"/>
      <point x="423" y="415"/>
      <point x="381" y="369"/>
      <point x="302" y="369" type="curve" smooth="yes"/>
      <point x="280" y="369"/>
      <point x="260" y="369"/>
      <point x="237" y="371" type="curve"/>
      <point x="237" y="303" type="line"/>
      <point x="260" y="305"/>
      <point x="280" y="306"/>
      <point x="306" y="306" type="curve" smooth="yes"/>
      <point x="408" y="306"/>
      <point x="456" y="263"/>
      <point x="456" y="184" type="curve" smooth="yes"/>
      <point x="456" y="102"/>
      <point x="409" y="60"/>
      <point x="326" y="60" type="curve" smooth="yes"/>
      <point x="293" y="60"/>
      <point x="263" y="66"/>
      <point x="252" y="69" type="curve"/>
      <point x="251" y="79"/>
      <point x="249" y="123"/>
    </contour>
    <contour>
      <point x="326" y="0" type="move" name="bottom"/>
    </contour>
    <contour>
      <point x="326" y="660" type="move" name="top"/>
    </contour>
  </outline>
</glyph>
<glyph name="D" format="1">
  <advance width="771"/>
  <unicode hex="0044"/>
  <note>
    D
  </note>
  <outline>
    <contour>
      <point x="33" y="661" type="curve"/>
      <point x="30" y="605" type="line"/>
      <point x="58" y="604"/>
      <point x="90" y="599"/>
      <point x="101" y="591" type="curve"/>
      <point x="105" y="583"/>
      <point x="109" y="527"/>
      <point x="109" y="421" type="curve" smooth="yes"/>
      <point x="109" y="239" type="line" smooth="yes"/>
      <point x="109" y="133"/>
      <point x="105" y="77"/>
      <point x="101" y="69" type="curve"/>
      <point x="90" y="61"/>
      <point x="58" y="54"/>
      <point x="30" y="51" type="curve"/>
      <point x="33" y="-5" type="line"/>
      <point x="67" y="-1"/>
      <point x="140" y="2"/>
      <point x="216" y="2" type="curve" smooth="yes"/>
      <point x="262" y="2"/>
      <point x="307" y="-1"/>
      <point x="355" y="-1" type="curve" smooth="yes"/>
      <point x="543" y="-1"/>
      <point x="718" y="122"/>
      <point x="718" y="339" type="curve" smooth="yes"/>
      <point x="718" y="538"/>
      <point x="575" y="661"/>
      <point x="343" y="661" type="curve" smooth="yes"/>
      <point x="288" y="661"/>
      <point x="220" y="659"/>
      <point x="172" y="659" type="curve" smooth="yes"/>
      <point x="127" y="659"/>
      <point x="67" y="659"/>
    </contour>
    <contour>
      <point x="252" y="590" type="curve"/>
      <point x="271" y="595"/>
      <point x="295" y="598"/>
      <point x="328" y="598" type="curve" smooth="yes"/>
      <point x="457" y="598"/>
      <point x="562" y="499"/>
      <point x="562" y="297" type="curve" smooth="yes"/>
      <point x="562" y="139"/>
      <point x="489" y="68"/>
      <point x="361" y="68" type="curve" smooth="yes"/>
      <point x="328" y="68"/>
      <point x="284" y="73"/>
      <point x="255" y="78" type="curve"/>
      <point x="252" y="92"/>
      <point x="247" y="145"/>
      <point x="247" y="239" type="curve" smooth="yes"/>
      <point x="247" y="421" type="line" smooth="yes"/>
      <point x="247" y="524"/>
      <point x="250" y="573"/>
    </contour>
    <contour>
      <point x="386" y="0" type="move" name="bottom"/>
    </contour>
    <contour>
      <point x="386" y="330" type="move" name="center"/>
    </contour>
    <contour>
      <point x="225" y="330" type="move" name="stroke"/>
    </contour>
    <contour>
      <point x="386" y="660" type="move" name="top"/>
    </contour>
  </outline>
</glyph>
<glyph name="I" format="1">
  <advance width="356"/>
  <unicode hex="0049"/>
  <note>
    I
  </note>
  <outline>
    <contour>
      <point x="33" y="-5" type="line"/>
      <point x="67" y="-1"/>
      <point x="124" y="2"/>
      <point x="178" y="2" type="curve" smooth="yes"/>
      <point x="232" y="2"/>
      <point x="289" y="-1"/>
      <point x="323" y="-5" type="curve"/>
      <point x="326" y="51" type="line"/>
      <point x="298" y="54"/>
      <point x="266" y="61"/>
      <point x="255" y="69" type="curve"/>
      <point x="251" y="77"/>
      <point x="247" y="133"/>
      <point x="247" y="239" type="curve" smooth="yes"/>
      <point x="247" y="421" type="line" smooth="yes"/>
      <point x="247" y="527"/>
      <point x="251" y="583"/>
      <point x="255" y="591" type="curve"/>
      <point x="266" y="599"/>
      <point x="298" y="606"/>
      <point x="326" y="607" type="curve"/>
      <point x="323" y="663" type="line"/>
      <point x="289" y="661"/>
      <point x="232" y="659"/>
      <point x="178" y="659" type="curve" smooth="yes"/>
      <point x="124" y="659"/>
      <point x="67" y="661"/>
      <point x="33" y="663" type="curve"/>
      <point x="30" y="607" type="line"/>
      <point x="58" y="606"/>
      <point x="90" y="599"/>
      <point x="101" y="591" type="curve"/>
      <point x="105" y="583"/>
      <point x="109" y="527"/>
      <point x="109" y="421" type="curve" smooth="yes"/>
      <point x="109" y="239" type="line" smooth="yes"/>
      <point x="109" y="133"/>
      <point x="105" y="77"/>
      <point x="101" y="69" type="curve"/>
      <point x="90" y="61"/>
      <point x="58" y="54"/>
      <point x="30" y="51" type="curve"/>
    </contour>
    <contour>
      <point x="178" y="0" type="move" name="bottom"/>
    </contour>
    <contour>
      <point x="256" y="0" type="move" name="ogonek"/>
    </contour>
    <contour>
      <point x="178" y="660" type="move" name="top"/>
    </contour>
    <contour>
      <point x="20" y="660" type="move" name="topleft"/>
    </contour>
  </outline>
</glyph>
<glyph name="J" format="1">
  <advance width="356"/>
  <unicode hex="004A"/>
  <note>
    J
  </note>
  <outline>
    <contour>
      <point x="257" y="591" type="curve"/>
      <point x="268" y="599"/>
      <point x="300" y="606"/>
      <point x="328" y="607" type="curve"/>
      <point x="325" y="663" type="line"/>
      <point x="291" y="661"/>
      <point x="234" y="659"/>
      <point x="180" y="659" type="curve" smooth="yes"/>
      <point x="126" y="659"/>
      <point x="69" y="661"/>
      <point x="35" y="663" type="curve"/>
      <point x="32" y="607" type="line"/>
      <point x="60" y="606"/>
      <point x="92" y="599"/>
      <point x="103" y="591" type="curve"/>
      <point x="107" y="583"/>
      <point x="111" y="527"/>
      <point x="111" y="422" type="curve" smooth="yes"/>
      <point x="112" y="-26" type="line"/>
      <point x="112" y="-162"/>
      <point x="90" y="-180"/>
      <point x="40" y="-172" type="curve"/>
      <point x="97" y="-190" type="line"/>
      <point x="22" y="-122" type="line" smooth="yes"/>
      <point x="-7" y="-96"/>
      <point x="-27" y="-87"/>
      <point x="-51" y="-87" type="curve" smooth="yes"/>
      <point x="-80" y="-87"/>
      <point x="-103" y="-105"/>
      <point x="-103" y="-138" type="curve" smooth="yes"/>
      <point x="-103" y="-190"/>
      <point x="-35" y="-228"/>
      <point x="55" y="-228" type="curve" smooth="yes"/>
      <point x="159" y="-228"/>
      <point x="251" y="-149"/>
      <point x="251" y="10" type="curve"/>
      <point x="249" y="421" type="line"/>
      <point x="249" y="527"/>
      <point x="253" y="583"/>
    </contour>
    <contour>
      <point x="180" y="660" type="move" name="top"/>
    </contour>
  </outline>
</glyph>
<glyph name="M" format="1">
  <advance width="1023"/>
  <unicode hex="004D"/>
  <note>
    M
  </note>
  <outline>
    <contour>
      <point x="71" y="662" type="curve"/>
      <point x="68" y="607" type="line"/>
      <point x="99" y="606"/>
      <point x="133" y="599"/>
      <point x="144" y="591" type="curve"/>
      <point x="144" y="580"/>
      <point x="144" y="554"/>
      <point x="136" y="450" type="curve" smooth="yes"/>
      <point x="124" y="285" type="line" smooth="yes"/>
      <point x="113" y="139"/>
      <point x="110" y="77"/>
      <point x="106" y="69" type="curve"/>
      <point x="95" y="61"/>
      <point x="62" y="55"/>
      <point x="31" y="53" type="curve"/>
      <point x="34" y="-4" type="line"/>
      <point x="71" y="-1"/>
      <point x="124" y="1"/>
      <point x="150" y="1" type="curve" smooth="yes"/>
      <point x="175" y="1"/>
      <point x="227" y="-1"/>
      <point x="264" y="-4" type="curve"/>
      <point x="267" y="53" type="line"/>
      <point x="236" y="55"/>
      <point x="201" y="61"/>
      <point x="190" y="69" type="curve"/>
      <point x="190" y="80"/>
      <point x="193" y="159"/>
      <point x="201" y="302" type="curve" smooth="yes"/>
      <point x="220" y="627" type="line"/>
      <point x="167" y="627" type="line"/>
      <point x="444" y="-4" type="line"/>
      <point x="507" y="-4" type="line"/>
      <point x="751" y="627" type="line"/>
      <point x="714" y="627" type="line"/>
      <point x="754" y="262" type="line" smooth="yes"/>
      <point x="769" y="119"/>
      <point x="771" y="78"/>
      <point x="771" y="69" type="curve"/>
      <point x="760" y="61"/>
      <point x="726" y="54"/>
      <point x="698" y="52" type="curve"/>
      <point x="701" y="-4" type="line"/>
      <point x="735" y="-1"/>
      <point x="820" y="2"/>
      <point x="850" y="2" type="curve" smooth="yes"/>
      <point x="881" y="2"/>
      <point x="963" y="-1"/>
      <point x="999" y="-4" type="curve"/>
      <point x="1002" y="52" type="line"/>
      <point x="974" y="54"/>
      <point x="940" y="61"/>
      <point x="929" y="69" type="curve"/>
      <point x="925" y="82"/>
      <point x="920" y="119"/>
      <point x="904" y="265" type="curve" smooth="yes"/>
      <point x="883" y="450" type="line" smooth="yes"/>
      <point x="871" y="554"/>
      <point x="871" y="582"/>
      <point x="872" y="591" type="curve"/>
      <point x="881" y="599"/>
      <point x="915" y="606"/>
      <point x="946" y="607" type="curve"/>
      <point x="943" y="662" type="line"/>
      <point x="906" y="660"/>
      <point x="849" y="659"/>
      <point x="819" y="659" type="curve" smooth="yes"/>
      <point x="788" y="659"/>
      <point x="720" y="660"/>
      <point x="690" y="661" type="curve"/>
      <point x="492" y="147" type="line"/>
      <point x="524" y="147" type="line"/>
      <point x="308" y="661" type="line"/>
      <point x="278" y="660"/>
      <point x="220" y="659"/>
      <point x="190" y="659" type="curve" smooth="yes"/>
      <point x="160" y="659"/>
      <point x="108" y="660"/>
    </contour>
    <contour>
      <point x="481" y="0" type="move" name="bottom"/>
    </contour>
    <contour>
      <point x="481" y="660" type="move" name="top"/>
    </contour>
  </outline>
</glyph>
<glyph name="N" format="1">
  <advance width="750"/>
  <unicode hex="004E"/>
  <note>
    N
  </note>
  <outline>
    <contour>
      <point x="565" y="191" type="line"/>
      <point x="604" y="191" type="line"/>
      <point x="207" y="661" type="line"/>
      <point x="188" y="660"/>
      <point x="150" y="659"/>
      <point x="125" y="659" type="curve" smooth="yes"/>
      <point x="100" y="659"/>
      <point x="68" y="660"/>
      <point x="33" y="662" type="curve"/>
      <point x="30" y="607" type="line"/>
      <point x="58" y="606"/>
      <point x="90" y="599"/>
      <point x="101" y="591" type="curve"/>
      <point x="105" y="583"/>
      <point x="109" y="527"/>
      <point x="109" y="442" type="curve" smooth="yes"/>
      <point x="109" y="277" type="line" smooth="yes"/>
      <point x="109" y="133"/>
      <point x="105" y="77"/>
      <point x="101" y="69" type="curve"/>
      <point x="90" y="61"/>
      <point x="56" y="54"/>
      <point x="25" y="51" type="curve"/>
      <point x="28" y="-5" type="line"/>
      <point x="65" y="-1"/>
      <point x="113" y="2"/>
      <point x="145" y="2" type="curve" smooth="yes"/>
      <point x="177" y="2"/>
      <point x="234" y="-1"/>
      <point x="271" y="-5" type="curve"/>
      <point x="274" y="51" type="line"/>
      <point x="243" y="54"/>
      <point x="209" y="61"/>
      <point x="198" y="69" type="curve"/>
      <point x="194" y="77"/>
      <point x="188" y="133"/>
      <point x="189" y="277" type="curve" smooth="yes"/>
      <point x="190" y="529" type="line"/>
      <point x="138" y="529" type="line"/>
      <point x="579" y="-5" type="line"/>
      <point x="642" y="-5" type="line"/>
      <point x="642" y="47"/>
      <point x="641" y="97"/>
      <point x="641" y="158" type="curve" smooth="yes"/>
      <point x="641" y="393" type="line" smooth="yes"/>
      <point x="641" y="527"/>
      <point x="645" y="583"/>
      <point x="649" y="591" type="curve"/>
      <point x="660" y="599"/>
      <point x="694" y="605"/>
      <point x="725" y="607" type="curve"/>
      <point x="722" y="663" type="line"/>
      <point x="685" y="660"/>
      <point x="643" y="659"/>
      <point x="608" y="659" type="curve" smooth="yes"/>
      <point x="575" y="659"/>
      <point x="521" y="660"/>
      <point x="484" y="663" type="curve"/>
      <point x="481" y="607" type="line"/>
      <point x="512" y="605"/>
      <point x="546" y="599"/>
      <point x="557" y="591" type="curve"/>
      <point x="561" y="583"/>
      <point x="565" y="527"/>
      <point x="565" y="393" type="curve" smooth="yes"/>
    </contour>
    <contour>
      <point x="375" y="0" type="move" name="bottom"/>
    </contour>
    <contour>
      <point x="375" y="660" type="move" name="top"/>
    </contour>
  </outline>
</glyph>
<glyph name="O" format="1">
  <advance width="791"/>
  <unicode hex="004F"/>
  <note>
    O
  </note>
  <outline>
    <contour>
      <point x="403" y="-10" type="curve" smooth="yes"/>
      <point x="559" y="-10"/>
      <point x="739" y="117"/>
      <point x="739" y="337" type="curve" smooth="yes"/>
      <point x="739" y="534"/>
      <point x="601" y="670"/>
      <point x="404" y="670" type="curve" smooth="yes"/>
      <point x="202" y="670"/>
      <point x="52" y="524"/>
      <point x="52" y="323" type="curve" smooth="yes"/>
      <point x="52" y="127"/>
      <point x="199" y="-10"/>
    </contour>
    <contour>
      <point x="412" y="65" type="curve" smooth="yes"/>
      <point x="297" y="65"/>
      <point x="215" y="183"/>
      <point x="215" y="352" type="curve" smooth="yes"/>
      <point x="215" y="505"/>
      <point x="280" y="602"/>
      <point x="391" y="602" type="curve" smooth="yes"/>
      <point x="505" y="602"/>
      <point x="579" y="484"/>
      <point x="579" y="310" type="curve" smooth="yes"/>
      <point x="579" y="154"/>
      <point x="519" y="65"/>
    </contour>
    <contour>
      <point x="396" y="0" type="move" name="bottom"/>
    </contour>
    <contour>
      <point x="396" y="330" type="move" name="center"/>
    </contour>
    <contour>
      <point x="480" y="0" type="move" name="ogonek"/>
    </contour>
    <contour>
      <point x="396" y="660" type="move" name="top"/>
    </contour>
    <contour>
      <point x="20" y="660" type="move" name="topleft"/>
    </contour>
    <contour>
      <point x="771" y="660" type="move" name="topright"/>
    </contour>
  </outline>
</glyph>
<glyph name="Q" format="1">
  <advance width="791"/>
  <unicode hex="0051"/>
  <note>
    Q
  </note>
  <outline>
    <contour>
      <point x="403" y="-8" type="curve"/>
      <point x="408" y="-5" type="line"/>
      <point x="570" y="-5"/>
      <point x="739" y="118"/>
      <point x="739" y="337" type="curve" smooth="yes"/>
      <point x="739" y="534"/>
      <point x="601" y="670"/>
      <point x="404" y="670" type="curve" smooth="yes"/>
      <point x="202" y="670"/>
      <point x="52" y="524"/>
      <point x="52" y="323" type="curve" smooth="yes"/>
      <point x="52" y="127"/>
      <point x="199" y="-8"/>
    </contour>
    <contour>
      <point x="684" y="-161" type="curve" smooth="yes"/>
      <point x="746" y="-161"/>
      <point x="801" y="-144"/>
      <point x="841" y="-119" type="curve"/>
      <point x="826" y="-65" type="line"/>
      <point x="799" y="-72"/>
      <point x="774" y="-75"/>
      <point x="754" y="-75" type="curve" smooth="yes"/>
      <point x="708" y="-75"/>
      <point x="676" y="-64"/>
      <point x="621" y="-31" type="curve" smooth="yes"/>
      <point x="577" y="-5"/>
      <point x="529" y="9"/>
      <point x="475" y="12" type="curve"/>
      <point x="296" y="12" type="line"/>
      <point x="331" y="-3"/>
      <point x="359" y="-21"/>
      <point x="383" y="-38" type="curve" smooth="yes"/>
      <point x="403" y="-53"/>
      <point x="424" y="-69"/>
      <point x="445" y="-84" type="curve" smooth="yes"/>
      <point x="506" y="-126"/>
      <point x="574" y="-161"/>
    </contour>
    <contour>
      <point x="412" y="65" type="curve" smooth="yes"/>
      <point x="297" y="65"/>
      <point x="215" y="183"/>
      <point x="215" y="352" type="curve" smooth="yes"/>
      <point x="215" y="505"/>
      <point x="280" y="602"/>
      <point x="391" y="602" type="curve" smooth="yes"/>
      <point x="505" y="602"/>
      <point x="579" y="484"/>
      <point x="579" y="310" type="curve" smooth="yes"/>
      <point x="579" y="154"/>
      <point x="519" y="65"/>
    </contour>
    <contour>
      <point x="396" y="0" type="move" name="bottom"/>
    </contour>
    <contour>
      <point x="396" y="660" type="move" name="top"/>
    </contour>
  </outline>
</glyph>
<glyph name="T" format="1">
  <advance width="656"/>
  <unicode hex="0054"/>
  <note>
    T
  </note>
  <outline>
    <contour>
      <point x="620" y="665" type="curve"/>
      <point x="587" y="663"/>
      <point x="513" y="660"/>
      <point x="474" y="660" type="curve" smooth="yes"/>
      <point x="179" y="660" type="line" smooth="yes"/>
      <point x="140" y="660"/>
      <point x="66" y="663"/>
      <point x="33" y="665" type="curve"/>
      <point x="26" y="601"/>
      <point x="18" y="536"/>
      <point x="10" y="471" type="curve"/>
      <point x="75" y="465" type="line"/>
      <point x="89" y="518"/>
      <point x="104" y="565"/>
      <point x="118" y="594" type="curve"/>
      <point x="136" y="597"/>
      <point x="149" y="598"/>
      <point x="167" y="598" type="curve" smooth="yes"/>
      <point x="208" y="598" type="line" smooth="yes"/>
      <point x="225" y="598"/>
      <point x="244" y="597"/>
      <point x="256" y="595" type="curve"/>
      <point x="257" y="581"/>
      <point x="259" y="473"/>
      <point x="259" y="381" type="curve" smooth="yes"/>
      <point x="259" y="259" type="line" smooth="yes"/>
      <point x="259" y="170"/>
      <point x="255" y="97"/>
      <point x="251" y="69" type="curve"/>
      <point x="224" y="62"/>
      <point x="178" y="56"/>
      <point x="150" y="53" type="curve"/>
      <point x="153" y="-5" type="line"/>
      <point x="197" y="-1"/>
      <point x="283" y="0"/>
      <point x="328" y="0" type="curve" smooth="yes"/>
      <point x="373" y="0"/>
      <point x="459" y="-1"/>
      <point x="503" y="-5" type="curve"/>
      <point x="506" y="53" type="line"/>
      <point x="478" y="56"/>
      <point x="432" y="62"/>
      <point x="405" y="69" type="curve"/>
      <point x="401" y="97"/>
      <point x="397" y="170"/>
      <point x="397" y="259" type="curve" smooth="yes"/>
      <point x="397" y="381" type="line" smooth="yes"/>
      <point x="397" y="473"/>
      <point x="399" y="581"/>
      <point x="400" y="595" type="curve"/>
      <point x="412" y="597"/>
      <point x="431" y="598"/>
      <point x="448" y="598" type="curve" smooth="yes"/>
      <point x="486" y="598" type="line" smooth="yes"/>
      <point x="504" y="598"/>
      <point x="517" y="597"/>
      <point x="535" y="594" type="curve"/>
      <point x="549" y="565"/>
      <point x="564" y="518"/>
      <point x="580" y="466" type="curve"/>
      <point x="645" y="472" type="line"/>
      <point x="635" y="536"/>
      <point x="627" y="601"/>
    </contour>
    <contour>
      <point x="328" y="0" type="move" name="bottom"/>
    </contour>
    <contour>
      <point x="328" y="340" type="move" name="stroke"/>
    </contour>
    <contour>
      <point x="328" y="660" type="move" name="top"/>
    </contour>
  </outline>
</glyph>
<glyph name="V" format="1">
  <advance width="671"/>
  <unicode hex="0056"/>
  <note>
    V
  </note>
  <outline>
    <contour>
      <point x="310" y="-4" type="line"/>
      <point x="367" y="-4" type="line"/>
      <point x="631" y="593" type="line"/>
      <point x="643" y="599"/>
      <point x="666" y="605"/>
      <point x="686" y="606" type="curve"/>
      <point x="683" y="662" type="line"/>
      <point x="647" y="661"/>
      <point x="613" y="660"/>
      <point x="582" y="660" type="curve" smooth="yes"/>
      <point x="551" y="660"/>
      <point x="500" y="661"/>
      <point x="457" y="662" type="curve"/>
      <point x="454" y="605" type="line"/>
      <point x="488" y="603"/>
      <point x="519" y="599"/>
      <point x="536" y="595" type="curve"/>
      <point x="358" y="135" type="line"/>
      <point x="401" y="135" type="line"/>
      <point x="211" y="595" type="line"/>
      <point x="227" y="599"/>
      <point x="259" y="603"/>
      <point x="293" y="605" type="curve"/>
      <point x="290" y="662" type="line"/>
      <point x="247" y="661"/>
      <point x="172" y="659"/>
      <point x="132" y="659" type="curve" smooth="yes"/>
      <point x="92" y="659"/>
      <point x="36" y="661"/>
      <point x="0" y="662" type="curve"/>
      <point x="-3" y="606" type="line"/>
      <point x="17" y="605"/>
      <point x="40" y="599"/>
      <point x="52" y="593" type="curve"/>
    </contour>
    <contour>
      <point x="336" y="0" type="move" name="bottom"/>
    </contour>
    <contour>
      <point x="336" y="660" type="move" name="top"/>
    </contour>
  </outline>
</glyph>
<glyph name="W" format="1">
  <advance width="1076"/>
  <unicode hex="0057"/>
  <note>
    W
  </note>
  <outline>
    <contour>
      <point x="554" y="454" type="line"/>
      <point x="508" y="551" type="line"/>
      <point x="348" y="135" type="line"/>
      <point x="397" y="135" type="line"/>
      <point x="216" y="595" type="line"/>
      <point x="226" y="599"/>
      <point x="247" y="603"/>
      <point x="268" y="605" type="curve"/>
      <point x="266" y="662" type="line"/>
      <point x="240" y="661"/>
      <point x="177" y="659"/>
      <point x="137" y="659" type="curve" smooth="yes"/>
      <point x="97" y="659"/>
      <point x="41" y="661"/>
      <point x="5" y="662" type="curve"/>
      <point x="2" y="606" type="line"/>
      <point x="22" y="605"/>
      <point x="45" y="599"/>
      <point x="57" y="593" type="curve"/>
      <point x="306" y="-4" type="line"/>
      <point x="363" y="-4" type="line"/>
    </contour>
    <contour>
      <point x="720" y="-4" type="line"/>
      <point x="777" y="-4" type="line"/>
      <point x="1029" y="593" type="line"/>
      <point x="1041" y="599"/>
      <point x="1064" y="605"/>
      <point x="1084" y="606" type="curve"/>
      <point x="1081" y="662" type="line"/>
      <point x="1045" y="661"/>
      <point x="1015" y="660"/>
      <point x="984" y="660" type="curve" smooth="yes"/>
      <point x="953" y="660"/>
      <point x="898" y="661"/>
      <point x="855" y="662" type="curve"/>
      <point x="852" y="605" type="line"/>
      <point x="886" y="603"/>
      <point x="917" y="599"/>
      <point x="934" y="595" type="curve"/>
      <point x="765" y="135" type="line"/>
      <point x="808" y="135" type="line"/>
      <point x="626" y="595" type="line"/>
      <point x="642" y="599"/>
      <point x="674" y="603"/>
      <point x="708" y="605" type="curve"/>
      <point x="705" y="662" type="line"/>
      <point x="662" y="661"/>
      <point x="587" y="659"/>
      <point x="547" y="659" type="curve" smooth="yes"/>
      <point x="507" y="659"/>
      <point x="453" y="661"/>
      <point x="421" y="662" type="curve"/>
      <point x="418" y="606" type="line"/>
      <point x="436" y="605"/>
      <point x="459" y="599"/>
      <point x="470" y="593" type="curve"/>
    </contour>
    <contour>
      <point x="548" y="0" type="move" name="bottom"/>
    </contour>
    <contour>
      <point x="548" y="660" type="move" name="top"/>
    </contour>
  </outline>
</glyph>
<glyph name="X" format="1">
  <advance width="662"/>
  <unicode hex="0058"/>
  <note>
    X
  </note>
  <outline>
    <contour>
      <point x="670" y="-5" type="curve"/>
      <point x="672" y="51" type="line"/>
      <point x="650" y="54"/>
      <point x="626" y="61"/>
      <point x="617" y="68" type="curve"/>
      <point x="401" y="374" type="line"/>
      <point x="361" y="430" type="line"/>
      <point x="248" y="593" type="line"/>
      <point x="258" y="599"/>
      <point x="282" y="606"/>
      <point x="304" y="606" type="curve"/>
      <point x="302" y="662" type="line"/>
      <point x="275" y="661"/>
      <point x="207" y="659"/>
      <point x="157" y="659" type="curve" smooth="yes"/>
      <point x="106" y="659"/>
      <point x="55" y="661"/>
      <point x="29" y="662" type="curve"/>
      <point x="27" y="606" type="line"/>
      <point x="48" y="606"/>
      <point x="72" y="599"/>
      <point x="81" y="592" type="curve"/>
      <point x="268" y="324" type="line"/>
      <point x="312" y="268" type="line"/>
      <point x="448" y="69" type="line"/>
      <point x="437" y="61"/>
      <point x="405" y="54"/>
      <point x="377" y="51" type="curve"/>
      <point x="380" y="-5" type="line"/>
      <point x="414" y="-1"/>
      <point x="492" y="2"/>
      <point x="542" y="2" type="curve" smooth="yes"/>
      <point x="602" y="2"/>
      <point x="643" y="-1"/>
    </contour>
    <contour>
      <point x="472" y="593" type="curve"/>
      <point x="361" y="430" type="line"/>
      <point x="268" y="324" type="line"/>
      <point x="76" y="69" type="line"/>
      <point x="67" y="61"/>
      <point x="43" y="54"/>
      <point x="21" y="51" type="curve"/>
      <point x="23" y="-3" type="line"/>
      <point x="53" y="-1"/>
      <point x="94" y="2"/>
      <point x="124" y="2" type="curve" smooth="yes"/>
      <point x="154" y="2"/>
      <point x="213" y="-1"/>
      <point x="243" y="-3" type="curve"/>
      <point x="246" y="51" type="line"/>
      <point x="220" y="52"/>
      <point x="182" y="65"/>
      <point x="175" y="69" type="curve"/>
      <point x="312" y="268" type="line"/>
      <point x="401" y="374" type="line"/>
      <point x="571" y="593" type="line"/>
      <point x="580" y="599"/>
      <point x="603" y="606"/>
      <point x="625" y="606" type="curve"/>
      <point x="623" y="662" type="line"/>
      <point x="596" y="661"/>
      <point x="573" y="659"/>
      <point x="533" y="659" type="curve" smooth="yes"/>
      <point x="491" y="659"/>
      <point x="445" y="661"/>
      <point x="418" y="662" type="curve"/>
      <point x="416" y="606" type="line"/>
      <point x="438" y="606"/>
      <point x="462" y="599"/>
    </contour>
    <contour>
      <point x="331" y="0" type="move" name="bottom"/>
    </contour>
    <contour>
      <point x="331" y="660" type="move" name="top"/>
    </contour>
  </outline>
</glyph>
<glyph name="backslash" format="1">
  <advance width="418"/>
  <unicode hex="005C"/>
  <note>
    backslash
  </note>
  <outline>
    <contour>
      <point x="388" y="-220" type="line"/>
      <point x="87" y="728" type="line"/>
      <point x="-10" y="728" type="line"/>
      <point x="291" y="-220" type="line"/>
    </contour>
  </outline>
</glyph>
<glyph name="bracketright" format="1">
  <advance width="348"/>
  <unicode hex="005D"/>
  <note>
    bracketright
  </note>
  <outline>
    <contour>
      <point x="30" y="-220" type="line"/>
      <point x="258" y="-220" type="line"/>
      <point x="258" y="722" type="line"/>
      <point x="30" y="722" type="line"/>
      <point x="30" y="662" type="line"/>
      <point x="130" y="662" type="line"/>
      <point x="130" y="-160" type="line"/>
      <point x="30" y="-160" type="line"/>
    </contour>
  </outline>
</glyph>
<glyph name="l" format="1">
  <advance width="301"/>
  <unicode hex="006C"/>
  <note>
    l
  </note>
  <outline>
    <contour>
      <point x="15" y="-3" type="line"/>
      <point x="52" y="0"/>
      <point x="110" y="2"/>
      <point x="150" y="2" type="curve" smooth="yes"/>
      <point x="190" y="2"/>
      <point x="249" y="0"/>
      <point x="286" y="-3" type="curve"/>
      <point x="290" y="46" type="line"/>
      <point x="264" y="49"/>
      <point x="233" y="56"/>
      <point x="221" y="64" type="curve"/>
      <point x="219" y="73"/>
      <point x="216" y="113"/>
      <point x="216" y="241" type="curve"/>
      <point x="217" y="387" type="line" smooth="yes"/>
      <point x="218" y="532"/>
      <point x="218" y="597"/>
      <point x="223" y="680" type="curve"/>
      <point x="195" y="698" type="line"/>
      <point x="139" y="674"/>
      <point x="71" y="655"/>
      <point x="6" y="642" type="curve"/>
      <point x="8" y="594" type="line"/>
      <point x="26" y="594"/>
      <point x="53" y="592"/>
      <point x="78" y="589" type="curve"/>
      <point x="80" y="559"/>
      <point x="83" y="485"/>
      <point x="83" y="361" type="curve" smooth="yes"/>
      <point x="83" y="234" type="line" smooth="yes"/>
      <point x="83" y="123"/>
      <point x="78" y="71"/>
      <point x="77" y="64" type="curve"/>
      <point x="65" y="56"/>
      <point x="38" y="49"/>
      <point x="11" y="46" type="curve"/>
    </contour>
    <contour>
      <point x="150" y="0" type="move" name="bottom"/>
    </contour>
    <contour>
      <point x="150" y="340" type="move" name="center"/>
    </contour>
    <contour>
      <point x="330" y="340" type="move" name="dotacc"/>
    </contour>
    <contour>
      <point x="150" y="660" type="move" name="top"/>
    </contour>
    <contour>
      <point x="257" y="688" type="move" name="topright"/>
    </contour>
  </outline>
</glyph>
<glyph name="q" format="1">
  <advance width="570"/>
  <unicode hex="0071"/>
  <note>
    q
  </note>
  <outline>
    <contour>
      <point x="283" y="-227" type="line"/>
      <point x="324" y="-223"/>
      <point x="370" y="-220"/>
      <point x="420" y="-220" type="curve" smooth="yes"/>
      <point x="467" y="-220"/>
      <point x="509" y="-223"/>
      <point x="541" y="-227" type="curve"/>
      <point x="545" y="-176" type="line"/>
      <point x="523" y="-171"/>
      <point x="500" y="-166"/>
      <point x="488" y="-158" type="curve"/>
      <point x="486" y="-149"/>
      <point x="483" y="-109"/>
      <point x="482" y="-18" type="curve" smooth="yes"/>
      <point x="480" y="248" type="line" smooth="yes"/>
      <point x="479" y="321"/>
      <point x="481" y="409"/>
      <point x="483" y="462" type="curve"/>
      <point x="444" y="462" type="line"/>
      <point x="399" y="424" type="line"/>
      <point x="366" y="439"/>
      <point x="330" y="447"/>
      <point x="286" y="447" type="curve" smooth="yes"/>
      <point x="158" y="447"/>
      <point x="37" y="357"/>
      <point x="37" y="205" type="curve" smooth="yes"/>
      <point x="37" y="76"/>
      <point x="128" y="-10"/>
      <point x="233" y="-10" type="curve" smooth="yes"/>
      <point x="275" y="-10"/>
      <point x="318" y="10"/>
      <point x="351" y="67" type="curve"/>
      <point x="354" y="65" type="line"/>
      <point x="353" y="-58" type="line" smooth="yes"/>
      <point x="353" y="-109"/>
      <point x="350" y="-151"/>
      <point x="350" y="-158" type="curve"/>
      <point x="337" y="-166"/>
      <point x="306" y="-173"/>
      <point x="279" y="-176" type="curve"/>
    </contour>
    <contour>
      <point x="281" y="88" type="curve" smooth="yes"/>
      <point x="226" y="88"/>
      <point x="178" y="142"/>
      <point x="178" y="241" type="curve" smooth="yes"/>
      <point x="178" y="334"/>
      <point x="223" y="387"/>
      <point x="283" y="387" type="curve" smooth="yes"/>
      <point x="306" y="387"/>
      <point x="334" y="378"/>
      <point x="351" y="357" type="curve"/>
      <point x="350" y="130" type="line"/>
      <point x="332" y="100"/>
      <point x="301" y="88"/>
    </contour>
    <contour>
      <point x="285" y="440" type="move" name="top"/>
    </contour>
  </outline>
</glyph>
<glyph name="y" format="1">
  <advance width="511"/>
  <unicode hex="0079"/>
  <note>
    y
  </note>
  <outline>
    <contour>
      <point x="231" y="-4" type="line"/>
      <point x="313" y="135" type="line"/>
      <point x="200" y="379" type="line"/>
      <point x="217" y="384"/>
      <point x="235" y="388"/>
      <point x="261" y="391" type="curve"/>
      <point x="259" y="440" type="line"/>
      <point x="229" y="439"/>
      <point x="159" y="439"/>
      <point x="129" y="439" type="curve" smooth="yes"/>
      <point x="99" y="439"/>
      <point x="26" y="440"/>
      <point x="-4" y="440" type="curve"/>
      <point x="-7" y="393" type="line"/>
      <point x="13" y="389"/>
      <point x="32" y="384"/>
      <point x="45" y="379" type="curve"/>
    </contour>
    <contour>
      <point x="511" y="440" type="line"/>
      <point x="486" y="439"/>
      <point x="454" y="439"/>
      <point x="429" y="439" type="curve" smooth="yes"/>
      <point x="404" y="439"/>
      <point x="349" y="439"/>
      <point x="329" y="440" type="curve"/>
      <point x="327" y="391" type="line"/>
      <point x="356" y="388"/>
      <point x="373" y="384"/>
      <point x="390" y="379" type="curve"/>
      <point x="283" y="135" type="line"/>
      <point x="270" y="112" type="line"/>
      <point x="148" y="-114" type="line"/>
      <point x="216" y="-68" type="line"/>
      <point x="97" y="-101" type="line" smooth="yes"/>
      <point x="49" y="-114"/>
      <point x="25" y="-140"/>
      <point x="25" y="-171" type="curve" smooth="yes"/>
      <point x="25" y="-203"/>
      <point x="53" y="-228"/>
      <point x="99" y="-228" type="curve" smooth="yes"/>
      <point x="141" y="-228"/>
      <point x="178" y="-208"/>
      <point x="214" y="-133" type="curve" smooth="yes"/>
      <point x="293" y="32" type="line"/>
      <point x="468" y="379" type="line"/>
      <point x="479" y="384"/>
      <point x="496" y="389"/>
      <point x="513" y="393" type="curve"/>
    </contour>
    <contour>
      <point x="337" y="0" type="move" name="bottom"/>
    </contour>
    <contour>
      <point x="295" y="440" type="move" name="top"/>
    </contour>
  </outline>
</glyph>
<glyph name="braceright" format="1">
  <advance width="381"/>
  <unicode hex="007D"/>
  <note>
    braceright
  </note>
  <outline>
    <contour>
      <point x="134" y="-77" type="curve" smooth="yes"/>
      <point x="134" y="-140"/>
      <point x="93" y="-168"/>
      <point x="35" y="-175" type="curve"/>
      <point x="49" y="-228" type="line"/>
      <point x="193" y="-211"/>
      <point x="284" y="-162"/>
      <point x="284" y="-60" type="curve" smooth="yes"/>
      <point x="284" y="14"/>
      <point x="229" y="86"/>
      <point x="229" y="146" type="curve" smooth="yes"/>
      <point x="229" y="192"/>
      <point x="248" y="216"/>
      <point x="331" y="219" type="curve"/>
      <point x="331" y="283" type="line"/>
      <point x="248" y="286"/>
      <point x="229" y="310"/>
      <point x="229" y="356" type="curve" smooth="yes"/>
      <point x="229" y="416"/>
      <point x="284" y="488"/>
      <point x="284" y="562" type="curve" smooth="yes"/>
      <point x="284" y="664"/>
      <point x="193" y="713"/>
      <point x="49" y="730" type="curve"/>
      <point x="35" y="677" type="line"/>
      <point x="93" y="670"/>
      <point x="134" y="642"/>
      <point x="134" y="579" type="curve" smooth="yes"/>
      <point x="134" y="511"/>
      <point x="95" y="461"/>
      <point x="95" y="381" type="curve" smooth="yes"/>
      <point x="95" y="306"/>
      <point x="150" y="259"/>
      <point x="234" y="250" type="curve"/>
      <point x="234" y="264" type="line"/>
      <point x="150" y="254"/>
      <point x="95" y="196"/>
      <point x="95" y="121" type="curve" smooth="yes"/>
      <point x="95" y="41"/>
      <point x="134" y="-9"/>
    </contour>
  </outline>
</glyph>
<glyph name="cent" format="1">
  <advance width="467"/>
  <unicode hex="00A2"/>
  <note>
    cent
  </note>
  <outline>
    <contour>
      <point x="263" y="-8" type="curve" smooth="yes"/>
      <point x="340" y="-8"/>
      <point x="412" y="34"/>
      <point x="450" y="117" type="curve"/>
      <point x="419" y="146" type="line"/>
      <point x="383" y="104"/>
      <point x="347" y="90"/>
      <point x="310" y="90" type="curve" smooth="yes"/>
      <point x="236" y="90"/>
      <point x="180" y="143"/>
      <point x="180" y="244" type="curve" smooth="yes"/>
      <point x="180" y="349"/>
      <point x="242" y="400"/>
      <point x="301" y="388" type="curve"/>
      <point x="261" y="400" type="line"/>
      <point x="330" y="335" type="line" smooth="yes"/>
      <point x="354" y="313"/>
      <point x="370" y="305"/>
      <point x="394" y="305" type="curve" smooth="yes"/>
      <point x="420" y="305"/>
      <point x="444" y="323"/>
      <point x="444" y="356" type="curve" smooth="yes"/>
      <point x="444" y="409"/>
      <point x="375" y="448"/>
      <point x="287" y="448" type="curve" smooth="yes"/>
      <point x="141" y="448"/>
      <point x="37" y="337"/>
      <point x="37" y="209" type="curve" smooth="yes"/>
      <point x="37" y="82"/>
      <point x="137" y="-8"/>
    </contour>
    <contour>
      <point x="257" y="-130" type="line"/>
      <point x="317" y="-130" type="line"/>
      <point x="317" y="570" type="line"/>
      <point x="257" y="570" type="line"/>
    </contour>
  </outline>
</glyph>
<glyph name="yen" format="1">
  <advance width="636"/>
  <unicode hex="00A5"/>
  <note>
    yen
  </note>
  <outline>
    <contour>
      <point x="582" y="594" type="line"/>
      <point x="595" y="600"/>
      <point x="619" y="605"/>
      <point x="637" y="606" type="curve"/>
      <point x="634" y="662" type="line"/>
      <point x="598" y="661"/>
      <point x="566" y="660"/>
      <point x="535" y="660" type="curve" smooth="yes"/>
      <point x="503" y="660"/>
      <point x="456" y="661"/>
      <point x="413" y="662" type="curve"/>
      <point x="410" y="605" type="line"/>
      <point x="441" y="603"/>
      <point x="474" y="599"/>
      <point x="492" y="595" type="curve"/>
      <point x="343" y="339" type="line"/>
      <point x="368" y="339" type="line"/>
      <point x="215" y="595" type="line"/>
      <point x="231" y="599"/>
      <point x="264" y="603"/>
      <point x="297" y="605" type="curve"/>
      <point x="294" y="662" type="line"/>
      <point x="254" y="661"/>
      <point x="177" y="659"/>
      <point x="137" y="659" type="curve" smooth="yes"/>
      <point x="94" y="659"/>
      <point x="43" y="661"/>
      <point x="3" y="662" type="curve"/>
      <point x="0" y="606" type="line"/>
      <point x="20" y="604"/>
      <point x="43" y="599"/>
      <point x="55" y="594" type="curve"/>
      <point x="283" y="220" type="line"/>
      <point x="249" y="319" type="line"/>
      <point x="249" y="209" type="line" smooth="yes"/>
      <point x="249" y="133"/>
      <point x="246" y="77"/>
      <point x="242" y="69" type="curve"/>
      <point x="231" y="61"/>
      <point x="199" y="55"/>
      <point x="161" y="52" type="curve"/>
      <point x="164" y="-5" type="line"/>
      <point x="208" y="-1"/>
      <point x="265" y="2"/>
      <point x="318" y="2" type="curve" smooth="yes"/>
      <point x="372" y="2"/>
      <point x="428" y="-1"/>
      <point x="472" y="-5" type="curve"/>
      <point x="475" y="52" type="line"/>
      <point x="437" y="55"/>
      <point x="405" y="61"/>
      <point x="394" y="69" type="curve"/>
      <point x="390" y="77"/>
      <point x="387" y="133"/>
      <point x="387" y="209" type="curve" smooth="yes"/>
      <point x="387" y="319" type="line"/>
      <point x="342" y="220" type="line"/>
    </contour>
    <contour>
      <point x="85" y="273" type="line"/>
      <point x="551" y="273" type="line"/>
      <point x="551" y="335" type="line"/>
      <point x="85" y="335" type="line"/>
    </contour>
    <contour>
      <point x="85" y="141" type="line"/>
      <point x="551" y="141" type="line"/>
      <point x="551" y="203" type="line"/>
      <point x="85" y="203" type="line"/>
    </contour>
  </outline>
</glyph>
<glyph name="section" format="1">
  <advance width="447"/>
  <unicode hex="00A7"/>
  <note>
    section
  </note>
  <outline>
    <contour>
      <point x="227" y="220" type="line"/>
      <point x="315" y="220"/>
      <point x="407" y="265"/>
      <point x="407" y="357" type="curve" smooth="yes"/>
      <point x="407" y="509"/>
      <point x="183" y="493"/>
      <point x="183" y="576" type="curve" smooth="yes"/>
      <point x="183" y="607"/>
      <point x="210" y="625"/>
      <point x="246" y="625" type="curve" smooth="yes"/>
      <point x="260" y="625"/>
      <point x="281" y="623"/>
      <point x="295" y="616" type="curve"/>
      <point x="302" y="594"/>
      <point x="309" y="571"/>
      <point x="314" y="553" type="curve"/>
      <point x="380" y="553" type="line"/>
      <point x="377" y="589"/>
      <point x="374" y="619"/>
      <point x="370" y="659" type="curve"/>
      <point x="341" y="672"/>
      <point x="290" y="680"/>
      <point x="251" y="680" type="curve" smooth="yes"/>
      <point x="137" y="680"/>
      <point x="56" y="624"/>
      <point x="56" y="548" type="curve" smooth="yes"/>
      <point x="56" y="406"/>
      <point x="290" y="422"/>
      <point x="290" y="318" type="curve" smooth="yes"/>
      <point x="290" y="277"/>
      <point x="263" y="249"/>
      <point x="210" y="239" type="curve"/>
    </contour>
    <contour>
      <point x="186" y="-8" type="curve" smooth="yes"/>
      <point x="306" y="-8"/>
      <point x="387" y="50"/>
      <point x="387" y="126" type="curve" smooth="yes"/>
      <point x="387" y="265"/>
      <point x="159" y="250"/>
      <point x="159" y="351" type="curve" smooth="yes"/>
      <point x="159" y="394"/>
      <point x="186" y="422"/>
      <point x="243" y="433" type="curve"/>
      <point x="227" y="452" type="line"/>
      <point x="136" y="452"/>
      <point x="40" y="404"/>
      <point x="40" y="308" type="curve" smooth="yes"/>
      <point x="40" y="164"/>
      <point x="258" y="178"/>
      <point x="258" y="99" type="curve" smooth="yes"/>
      <point x="258" y="69"/>
      <point x="233" y="50"/>
      <point x="190" y="50" type="curve" smooth="yes"/>
      <point x="175" y="50"/>
      <point x="154" y="54"/>
      <point x="140" y="62" type="curve"/>
      <point x="134" y="85"/>
      <point x="128" y="107"/>
      <point x="124" y="125" type="curve"/>
      <point x="58" y="125" type="line"/>
      <point x="59" y="89"/>
      <point x="61" y="56"/>
      <point x="63" y="16" type="curve"/>
      <point x="91" y="2"/>
      <point x="140" y="-8"/>
    </contour>
  </outline>
</glyph>
<glyph name="ordfeminine" format="1">
  <advance width="347"/>
  <unicode hex="00AA"/>
  <note>
    ordfeminine
  </note>
  <outline>
    <contour>
      <point x="108" y="248" type="curve" smooth="yes"/>
      <point x="141" y="248"/>
      <point x="175" y="266"/>
      <point x="190" y="278" type="curve"/>
      <point x="195" y="281" type="line"/>
      <point x="202" y="265"/>
      <point x="224" y="249"/>
      <point x="245" y="249" type="curve" smooth="yes"/>
      <point x="272" y="249"/>
      <point x="296" y="256"/>
      <point x="316" y="271" type="curve"/>
      <point x="320" y="281"/>
      <point x="322" y="290"/>
      <point x="322" y="297" type="curve" smooth="yes"/>
      <point x="322" y="303"/>
      <point x="320" y="306"/>
      <point x="317" y="306" type="curve" smooth="yes"/>
      <point x="316" y="306"/>
      <point x="304" y="298"/>
      <point x="296" y="298" type="curve" smooth="yes"/>
      <point x="278" y="298"/>
      <point x="277" y="308"/>
      <point x="277" y="326" type="curve" smooth="yes"/>
      <point x="277" y="436" type="line" smooth="yes"/>
      <point x="277" y="516"/>
      <point x="241" y="556"/>
      <point x="170" y="556" type="curve" smooth="yes"/>
      <point x="102" y="556"/>
      <point x="35" y="517"/>
      <point x="35" y="482" type="curve" smooth="yes"/>
      <point x="35" y="463"/>
      <point x="50" y="447"/>
      <point x="74" y="447" type="curve" smooth="yes"/>
      <point x="91" y="447"/>
      <point x="113" y="456"/>
      <point x="113" y="467" type="curve" smooth="yes"/>
      <point x="113" y="500"/>
      <point x="135" y="518"/>
      <point x="159" y="518" type="curve" smooth="yes"/>
      <point x="179" y="518"/>
      <point x="189" y="500"/>
      <point x="189" y="463" type="curve" smooth="yes"/>
      <point x="189" y="439" type="line" smooth="yes"/>
      <point x="189" y="433"/>
      <point x="187" y="429"/>
      <point x="183" y="428" type="curve" smooth="yes"/>
      <point x="177" y="426"/>
      <point x="165" y="423"/>
      <point x="147" y="418" type="curve" smooth="yes"/>
      <point x="129" y="413"/>
      <point x="115" y="409"/>
      <point x="104" y="406" type="curve" smooth="yes"/>
      <point x="93" y="402"/>
      <point x="81" y="397"/>
      <point x="68" y="390" type="curve" smooth="yes"/>
      <point x="54" y="383"/>
      <point x="40" y="363"/>
      <point x="27" y="330" type="curve"/>
      <point x="27" y="285"/>
      <point x="52" y="248"/>
    </contour>
    <contour>
      <point x="151" y="297" type="curve" smooth="yes"/>
      <point x="127" y="297"/>
      <point x="115" y="312"/>
      <point x="115" y="343" type="curve" smooth="yes"/>
      <point x="115" y="358"/>
      <point x="123" y="365"/>
      <point x="134" y="373" type="curve" smooth="yes"/>
      <point x="140" y="377"/>
      <point x="173" y="389"/>
      <point x="189" y="394" type="curve"/>
      <point x="189" y="326" type="line" smooth="yes"/>
      <point x="189" y="309"/>
      <point x="175" y="297"/>
    </contour>
  </outline>
</glyph>
<glyph name="degree" format="1">
  <advance width="401"/>
  <unicode hex="00B0"/>
  <note>
    degree
  </note>
  <outline>
    <contour>
      <point x="200" y="377" type="curve" smooth="yes"/>
      <point x="285" y="377"/>
      <point x="351" y="439"/>
      <point x="351" y="523" type="curve" smooth="yes"/>
      <point x="351" y="608"/>
      <point x="285" y="670"/>
      <point x="200" y="670" type="curve" smooth="yes"/>
      <point x="116" y="670"/>
      <point x="50" y="608"/>
      <point x="50" y="523" type="curve" smooth="yes"/>
      <point x="50" y="439"/>
      <point x="116" y="377"/>
    </contour>
    <contour>
      <point x="200" y="443" type="curve" smooth="yes"/>
      <point x="156" y="443"/>
      <point x="123" y="476"/>
      <point x="123" y="523" type="curve" smooth="yes"/>
      <point x="123" y="571"/>
      <point x="156" y="604"/>
      <point x="200" y="604" type="curve" smooth="yes"/>
      <point x="245" y="604"/>
      <point x="278" y="571"/>
      <point x="278" y="523" type="curve" smooth="yes"/>
      <point x="278" y="476"/>
      <point x="245" y="443"/>
    </contour>
  </outline>
</glyph>
<glyph name="plusminus" format="1">
  <advance width="600"/>
  <unicode hex="00B1"/>
  <outline>
    <contour>
      <point x="544" y="375" type="line"/>
      <point x="56" y="375" type="line"/>
      <point x="56" y="291" type="line"/>
      <point x="544" y="291" type="line"/>
    </contour>
    <contour>
      <point x="256" y="530" type="line"/>
      <point x="256" y="135" type="line"/>
      <point x="344" y="135" type="line"/>
      <point x="344" y="530" type="line"/>
    </contour>
    <contour>
      <point x="544" y="88" type="line"/>
      <point x="56" y="88" type="line"/>
      <point x="56" y="0" type="line"/>
      <point x="544" y="0" type="line"/>
    </contour>
  </outline>
</glyph>
<glyph name="twosuperior" format="1">
  <advance width="322"/>
  <unicode hex="00B2"/>
  <note>
    uni00B2
  </note>
  <outline>
    <contour>
      <point x="39" y="253" type="curve"/>
      <point x="42" y="253"/>
      <point x="85" y="253"/>
      <point x="167" y="254" type="curve" smooth="yes"/>
      <point x="270" y="253" type="line"/>
      <point x="271" y="256"/>
      <point x="275" y="273"/>
      <point x="283" y="302" type="curve" smooth="yes"/>
      <point x="290" y="331"/>
      <point x="295" y="351"/>
      <point x="298" y="363" type="curve"/>
      <point x="295" y="366"/>
      <point x="288" y="368"/>
      <point x="278" y="368" type="curve" smooth="yes"/>
      <point x="274" y="368"/>
      <point x="272" y="367"/>
      <point x="271" y="364" type="curve"/>
      <point x="270" y="362"/>
      <point x="268" y="358"/>
      <point x="265" y="351" type="curve" smooth="yes"/>
      <point x="262" y="344"/>
      <point x="259" y="339"/>
      <point x="258" y="337" type="curve" smooth="yes"/>
      <point x="256" y="334"/>
      <point x="253" y="331"/>
      <point x="250" y="327" type="curve" smooth="yes"/>
      <point x="246" y="322"/>
      <point x="235" y="319"/>
      <point x="217" y="316" type="curve"/>
      <point x="103" y="316" type="line" smooth="yes"/>
      <point x="100" y="316"/>
      <point x="98" y="319"/>
      <point x="101" y="322" type="curve"/>
      <point x="182" y="375"/>
      <point x="260" y="458"/>
      <point x="260" y="534" type="curve" smooth="yes"/>
      <point x="260" y="599"/>
      <point x="215" y="644"/>
      <point x="151" y="644" type="curve" smooth="yes"/>
      <point x="92" y="644"/>
      <point x="42" y="602"/>
      <point x="27" y="574" type="curve"/>
      <point x="27" y="572" type="line"/>
      <point x="26" y="569"/>
      <point x="26" y="566"/>
      <point x="26" y="564" type="curve" smooth="yes"/>
      <point x="26" y="557"/>
      <point x="36" y="540"/>
      <point x="43" y="540" type="curve"/>
      <point x="36" y="540"/>
      <point x="89" y="586"/>
      <point x="121" y="586" type="curve" smooth="yes"/>
      <point x="154" y="586"/>
      <point x="173" y="556"/>
      <point x="173" y="528" type="curve" smooth="yes"/>
      <point x="173" y="465"/>
      <point x="124" y="385"/>
      <point x="27" y="288" type="curve"/>
      <point x="26" y="286"/>
      <point x="26" y="283"/>
      <point x="26" y="279" type="curve" smooth="yes"/>
      <point x="26" y="270"/>
      <point x="30" y="262"/>
    </contour>
  </outline>
</glyph>
<glyph name="paragraph" format="1">
  <advance width="630"/>
  <unicode hex="00B6"/>
  <note>
    paragraph
  </note>
  <outline>
    <contour>
      <point x="592" y="-5" type="curve"/>
      <point x="595" y="51" type="line"/>
      <point x="570" y="54"/>
      <point x="540" y="61"/>
      <point x="529" y="69" type="curve"/>
      <point x="525" y="77"/>
      <point x="521" y="133"/>
      <point x="521" y="239" type="curve" smooth="yes"/>
      <point x="521" y="421" type="line" smooth="yes"/>
      <point x="521" y="527"/>
      <point x="525" y="583"/>
      <point x="529" y="591" type="curve"/>
      <point x="540" y="599"/>
      <point x="572" y="604"/>
      <point x="600" y="605" type="curve"/>
      <point x="597" y="661" type="line"/>
      <point x="563" y="659"/>
      <point x="503" y="659"/>
      <point x="428" y="659" type="curve" smooth="yes"/>
      <point x="382" y="659"/>
      <point x="345" y="661"/>
      <point x="296" y="661" type="curve" smooth="yes"/>
      <point x="135" y="661"/>
      <point x="29" y="579"/>
      <point x="29" y="455" type="curve" smooth="yes"/>
      <point x="29" y="324"/>
      <point x="137" y="252"/>
      <point x="315" y="252" type="curve" smooth="yes"/>
      <point x="364" y="252"/>
      <point x="414" y="258"/>
      <point x="481" y="274" type="curve"/>
      <point x="481" y="347" type="line"/>
      <point x="419" y="328"/>
      <point x="372" y="321"/>
      <point x="320" y="321" type="curve" smooth="yes"/>
      <point x="228" y="321"/>
      <point x="175" y="377"/>
      <point x="175" y="471" type="curve" smooth="yes"/>
      <point x="175" y="552"/>
      <point x="219" y="602"/>
      <point x="300" y="602" type="curve" smooth="yes"/>
      <point x="311" y="602"/>
      <point x="320" y="602"/>
      <point x="334" y="601" type="curve"/>
      <point x="335" y="583"/>
      <point x="335" y="525"/>
      <point x="335" y="416" type="curve" smooth="yes"/>
      <point x="335" y="199" type="line" smooth="yes"/>
      <point x="335" y="133"/>
      <point x="331" y="77"/>
      <point x="327" y="69" type="curve"/>
      <point x="300" y="62"/>
      <point x="264" y="56"/>
      <point x="234" y="53" type="curve"/>
      <point x="237" y="-5" type="line"/>
      <point x="273" y="-1"/>
      <point x="348" y="0"/>
      <point x="413" y="0" type="curve" smooth="yes"/>
      <point x="488" y="0"/>
      <point x="561" y="-1"/>
    </contour>
    <contour>
      <point x="405" y="602" type="line"/>
      <point x="461" y="602" type="line"/>
      <point x="456" y="59" type="line"/>
      <point x="405" y="59" type="line"/>
    </contour>
  </outline>
</glyph>
<glyph name="periodcentered" format="1">
  <advance width="300"/>
  <unicode hex="00B7"/>
  <note>
    periodcentered
  </note>
  <outline>
    <contour>
      <point x="150" y="130" type="curve" smooth="yes"/>
      <point x="203" y="130"/>
      <point x="245" y="170"/>
      <point x="245" y="222" type="curve" smooth="yes"/>
      <point x="245" y="275"/>
      <point x="203" y="317"/>
      <point x="150" y="317" type="curve" smooth="yes"/>
      <point x="98" y="317"/>
      <point x="55" y="275"/>
      <point x="55" y="222" type="curve" smooth="yes"/>
      <point x="55" y="170"/>
      <point x="98" y="130"/>
    </contour>
  </outline>
</glyph>
<glyph name="onesuperior" format="1">
  <advance width="277"/>
  <unicode hex="00B9"/>
  <note>
    uni00B9
  </note>
  <outline>
    <contour>
      <point x="32" y="252" type="curve"/>
      <point x="67" y="252"/>
      <point x="214" y="252"/>
      <point x="248" y="252" type="curve"/>
      <point x="250" y="254"/>
      <point x="251" y="259"/>
      <point x="251" y="266" type="curve" smooth="yes"/>
      <point x="251" y="276"/>
      <point x="250" y="281"/>
      <point x="247" y="281" type="curve" smooth="yes"/>
      <point x="236" y="281"/>
      <point x="205" y="287"/>
      <point x="197" y="295" type="curve"/>
      <point x="190" y="302"/>
      <point x="187" y="314"/>
      <point x="187" y="331" type="curve" smooth="yes"/>
      <point x="187" y="543" type="line" smooth="yes"/>
      <point x="187" y="568"/>
      <point x="191" y="596"/>
      <point x="200" y="628" type="curve"/>
      <point x="199" y="632"/>
      <point x="187" y="648"/>
      <point x="183" y="648" type="curve" smooth="yes"/>
      <point x="182" y="648" type="line" smooth="yes"/>
      <point x="180" y="648"/>
      <point x="127" y="623"/>
      <point x="23" y="572" type="curve"/>
      <point x="23" y="563" type="line" smooth="yes"/>
      <point x="23" y="555"/>
      <point x="33" y="544"/>
      <point x="38" y="543" type="curve"/>
      <point x="63" y="554"/>
      <point x="77" y="560"/>
      <point x="81" y="560" type="curve" smooth="yes"/>
      <point x="90" y="560"/>
      <point x="94" y="550"/>
      <point x="94" y="529" type="curve" smooth="yes"/>
      <point x="94" y="330" type="line" smooth="yes"/>
      <point x="94" y="318"/>
      <point x="90" y="307"/>
      <point x="83" y="297" type="curve"/>
      <point x="76" y="289"/>
      <point x="43" y="281"/>
      <point x="32" y="281" type="curve" smooth="yes"/>
      <point x="31" y="281"/>
      <point x="30" y="277"/>
      <point x="30" y="268" type="curve" smooth="yes"/>
      <point x="30" y="259"/>
      <point x="31" y="253"/>
    </contour>
  </outline>
</glyph>
<glyph name="multiply" format="1">
  <advance width="600"/>
  <unicode hex="00D7"/>
  <outline>
    <contour>
      <point x="472" y="520" type="line"/>
      <point x="66" y="114" type="line"/>
      <point x="128" y="52" type="line"/>
      <point x="534" y="458" type="line"/>
    </contour>
    <contour>
      <point x="128" y="520" type="line"/>
      <point x="66" y="458" type="line"/>
      <point x="472" y="52" type="line"/>
      <point x="534" y="114" type="line"/>
    </contour>
  </outline>
</glyph>
<glyph name="germandbls" format="1">
  <advance width="634"/>
  <unicode hex="00DF"/>
  <note>
    germandbls
  </note>
  <outline>
    <contour>
      <point x="438" y="-8" type="curve" smooth="yes"/>
      <point x="548" y="-8"/>
      <point x="619" y="49"/>
      <point x="619" y="138" type="curve" smooth="yes"/>
      <point x="619" y="288"/>
      <point x="414" y="275"/>
      <point x="414" y="369" type="curve" smooth="yes"/>
      <point x="414" y="425"/>
      <point x="502" y="479"/>
      <point x="503" y="559" type="curve" smooth="yes"/>
      <point x="504" y="645"/>
      <point x="431" y="698"/>
      <point x="319" y="698" type="curve" smooth="yes"/>
      <point x="172" y="698"/>
      <point x="80" y="603"/>
      <point x="80" y="470" type="curve" smooth="yes"/>
      <point x="80" y="374" type="line"/>
      <point x="82" y="204" type="line" smooth="yes"/>
      <point x="83" y="113"/>
      <point x="78" y="71"/>
      <point x="77" y="64" type="curve"/>
      <point x="65" y="56"/>
      <point x="43" y="50"/>
      <point x="19" y="46" type="curve"/>
      <point x="23" y="-3" type="line"/>
      <point x="55" y="0"/>
      <point x="104" y="2"/>
      <point x="157" y="2" type="curve" smooth="yes"/>
      <point x="205" y="2"/>
      <point x="237" y="0"/>
      <point x="268" y="-3" type="curve"/>
      <point x="269" y="46" type="line"/>
      <point x="253" y="50"/>
      <point x="232" y="56"/>
      <point x="218" y="62" type="curve"/>
      <point x="216" y="73"/>
      <point x="215" y="113"/>
      <point x="214" y="235" type="curve" smooth="yes"/>
      <point x="212" y="512" type="line"/>
      <point x="212" y="593"/>
      <point x="248" y="641"/>
      <point x="309" y="641" type="curve" smooth="yes"/>
      <point x="353" y="641"/>
      <point x="392" y="614"/>
      <point x="392" y="543" type="curve" smooth="yes"/>
      <point x="392" y="449"/>
      <point x="295" y="406"/>
      <point x="295" y="324" type="curve" smooth="yes"/>
      <point x="295" y="181"/>
      <point x="498" y="202"/>
      <point x="498" y="100" type="curve" smooth="yes"/>
      <point x="498" y="70"/>
      <point x="477" y="50"/>
      <point x="444" y="50" type="curve" smooth="yes"/>
      <point x="424" y="50"/>
      <point x="398" y="54"/>
      <point x="374" y="70" type="curve"/>
      <point x="368" y="91"/>
      <point x="363" y="114"/>
      <point x="358" y="142" type="curve"/>
      <point x="297" y="142" type="line"/>
      <point x="297" y="96"/>
      <point x="299" y="66"/>
      <point x="302" y="26" type="curve"/>
      <point x="339" y="6"/>
      <point x="389" y="-8"/>
    </contour>
    <contour>
      <point x="6" y="374" type="line"/>
      <point x="139" y="374" type="line"/>
      <point x="139" y="438" type="line"/>
      <point x="80" y="442" type="line"/>
      <point x="55" y="432"/>
      <point x="31" y="425"/>
      <point x="6" y="421" type="curve"/>
    </contour>
  </outline>
</glyph>
<glyph name="ae" format="1">
  <advance width="740"/>
  <unicode hex="00E6"/>
  <note>
    ae
  </note>
  <outline>
    <contour>
      <point x="209" y="-8" type="curve" smooth="yes"/>
      <point x="248" y="-8"/>
      <point x="299" y="15"/>
      <point x="364" y="87" type="curve"/>
      <point x="332" y="132" type="line"/>
      <point x="304" y="98"/>
      <point x="283" y="83"/>
      <point x="250" y="83" type="curve" smooth="yes"/>
      <point x="215" y="83"/>
      <point x="179" y="107"/>
      <point x="179" y="138" type="curve" smooth="yes"/>
      <point x="179" y="162"/>
      <point x="194" y="176"/>
      <point x="231" y="182" type="curve" smooth="yes"/>
      <point x="695" y="251" type="line"/>
      <point x="695" y="368"/>
      <point x="631" y="448"/>
      <point x="524" y="448" type="curve" smooth="yes"/>
      <point x="457" y="448"/>
      <point x="401" y="414"/>
      <point x="365" y="360" type="curve"/>
      <point x="413" y="360" type="line"/>
      <point x="383" y="419"/>
      <point x="318" y="448"/>
      <point x="233" y="448" type="curve"/>
      <point x="174" y="441"/>
      <point x="49" y="379"/>
      <point x="49" y="326" type="curve" smooth="yes"/>
      <point x="49" y="285"/>
      <point x="95" y="264"/>
      <point x="163" y="278" type="curve"/>
      <point x="168" y="340" type="line" smooth="yes"/>
      <point x="170" y="369"/>
      <point x="178" y="377"/>
      <point x="199" y="377" type="curve" smooth="yes"/>
      <point x="250" y="377"/>
      <point x="296" y="337"/>
      <point x="296" y="268" type="curve" smooth="yes"/>
      <point x="296" y="212" type="line" smooth="yes"/>
      <point x="296" y="88"/>
      <point x="390" y="-8"/>
      <point x="513" y="-8" type="curve" smooth="yes"/>
      <point x="596" y="-8"/>
      <point x="666" y="34"/>
      <point x="701" y="115" type="curve"/>
      <point x="670" y="144" type="line"/>
      <point x="637" y="104"/>
      <point x="602" y="89"/>
      <point x="560" y="89" type="curve" smooth="yes"/>
      <point x="480" y="89"/>
      <point x="429" y="151"/>
      <point x="429" y="244" type="curve" smooth="yes"/>
      <point x="429" y="263" type="line" smooth="yes"/>
      <point x="429" y="354"/>
      <point x="463" y="392"/>
      <point x="507" y="392" type="curve" smooth="yes"/>
      <point x="551" y="392"/>
      <point x="577" y="356"/>
      <point x="577" y="290" type="curve" smooth="yes"/>
      <point x="577" y="255" type="line"/>
      <point x="597" y="289" type="line"/>
      <point x="186" y="228" type="line" smooth="yes"/>
      <point x="82" y="212"/>
      <point x="41" y="174"/>
      <point x="41" y="114" type="curve" smooth="yes"/>
      <point x="41" y="63"/>
      <point x="103" y="-8"/>
    </contour>
    <contour>
      <point x="363" y="0" type="move" name="bottom"/>
    </contour>
    <contour>
      <point x="363" y="440" type="move" name="top"/>
    </contour>
  </outline>
</glyph>
<glyph name="divide" format="1">
  <advance width="600"/>
  <unicode hex="00F7"/>
  <outline>
    <contour>
      <point x="544" y="330" type="line"/>
      <point x="56" y="330" type="line"/>
      <point x="56" y="242" type="line"/>
      <point x="544" y="242" type="line"/>
    </contour>
    <contour>
      <point x="294" y="22" type="curve" smooth="yes"/>
      <point x="333" y="22"/>
      <point x="364" y="51"/>
      <point x="364" y="89" type="curve" smooth="yes"/>
      <point x="364" y="128"/>
      <point x="333" y="159"/>
      <point x="294" y="159" type="curve" smooth="yes"/>
      <point x="256" y="159"/>
      <point x="224" y="128"/>
      <point x="224" y="89" type="curve" smooth="yes"/>
      <point x="224" y="51"/>
      <point x="256" y="22"/>
    </contour>
    <contour>
      <point x="294" y="413" type="curve" smooth="yes"/>
      <point x="333" y="413"/>
      <point x="364" y="442"/>
      <point x="364" y="480" type="curve" smooth="yes"/>
      <point x="364" y="519"/>
      <point x="333" y="550"/>
      <point x="294" y="550" type="curve" smooth="yes"/>
      <point x="256" y="550"/>
      <point x="224" y="519"/>
      <point x="224" y="480" type="curve" smooth="yes"/>
      <point x="224" y="442"/>
      <point x="256" y="413"/>
    </contour>
  </outline>
</glyph>
<glyph name="Eogonek" format="1">
  <advance width="629"/>
  <unicode hex="0118"/>
  <note>
    Eogonek
  </note>
  <outline>
    <contour>
      <point x="426" y="226" type="curve"/>
      <point x="485" y="226" type="line"/>
      <point x="484" y="263"/>
      <point x="482" y="304"/>
      <point x="482" y="339" type="curve" smooth="yes"/>
      <point x="482" y="374"/>
      <point x="484" y="412"/>
      <point x="485" y="449" type="curve"/>
      <point x="426" y="449" type="line"/>
      <point x="423" y="426"/>
      <point x="417" y="387"/>
      <point x="413" y="374" type="curve"/>
      <point x="404" y="373"/>
      <point x="381" y="371"/>
      <point x="353" y="371" type="curve" smooth="yes"/>
      <point x="287" y="371" type="line" smooth="yes"/>
      <point x="262" y="371"/>
      <point x="239" y="373"/>
      <point x="223" y="374" type="curve"/>
      <point x="223" y="303" type="line"/>
      <point x="239" y="304"/>
      <point x="262" y="306"/>
      <point x="287" y="306" type="curve" smooth="yes"/>
      <point x="353" y="306" type="line" smooth="yes"/>
      <point x="381" y="306"/>
      <point x="404" y="304"/>
      <point x="413" y="303" type="curve"/>
      <point x="417" y="290"/>
      <point x="423" y="249"/>
    </contour>
    <contour>
      <point x="599" y="-134" type="line"/>
      <point x="575" y="-157"/>
      <point x="553" y="-168"/>
      <point x="531" y="-168" type="curve" smooth="yes"/>
      <point x="501" y="-168"/>
      <point x="479" y="-148"/>
      <point x="479" y="-113" type="curve" smooth="yes"/>
      <point x="479" y="-75"/>
      <point x="508" y="-37"/>
      <point x="566" y="0" type="curve"/>
      <point x="613" y="169" type="line"/>
      <point x="553" y="181" type="line"/>
      <point x="530" y="134"/>
      <point x="511" y="95"/>
      <point x="492" y="66" type="curve"/>
      <point x="473" y="63"/>
      <point x="460" y="62"/>
      <point x="412" y="62" type="curve" smooth="yes"/>
      <point x="340" y="62" type="line" smooth="yes"/>
      <point x="298" y="62"/>
      <point x="274" y="64"/>
      <point x="249" y="67" type="curve"/>
      <point x="247" y="83"/>
      <point x="246" y="133"/>
      <point x="246" y="199" type="curve" smooth="yes"/>
      <point x="246" y="461" type="line" smooth="yes"/>
      <point x="246" y="527"/>
      <point x="247" y="583"/>
      <point x="249" y="598" type="curve"/>
      <point x="268" y="601"/>
      <point x="296" y="602"/>
      <point x="321" y="602" type="curve" smooth="yes"/>
      <point x="416" y="602" type="line" smooth="yes"/>
      <point x="433" y="602"/>
      <point x="447" y="601"/>
      <point x="465" y="598" type="curve"/>
      <point x="480" y="569"/>
      <point x="490" y="538"/>
      <point x="506" y="497" type="curve"/>
      <point x="568" y="505" type="line"/>
      <point x="539" y="665" type="line"/>
      <point x="501" y="663"/>
      <point x="427" y="660"/>
      <point x="383" y="660" type="curve" smooth="yes"/>
      <point x="178" y="660" type="line" smooth="yes"/>
      <point x="133" y="660"/>
      <point x="67" y="661"/>
      <point x="33" y="663" type="curve"/>
      <point x="30" y="607" type="line"/>
      <point x="58" y="606"/>
      <point x="90" y="599"/>
      <point x="101" y="591" type="curve"/>
      <point x="105" y="583"/>
      <point x="109" y="527"/>
      <point x="109" y="421" type="curve" smooth="yes"/>
      <point x="109" y="239" type="line" smooth="yes"/>
      <point x="109" y="133"/>
      <point x="105" y="77"/>
      <point x="101" y="69" type="curve"/>
      <point x="90" y="61"/>
      <point x="58" y="54"/>
      <point x="30" y="51" type="curve"/>
      <point x="33" y="-5" type="line"/>
      <point x="67" y="-1"/>
      <point x="133" y="0"/>
      <point x="178" y="0" type="curve" smooth="yes"/>
      <point x="491" y="0" type="line"/>
      <point x="420" y="-34"/>
      <point x="382" y="-77"/>
      <point x="382" y="-122" type="curve" smooth="yes"/>
      <point x="382" y="-181"/>
      <point x="440" y="-223"/>
      <point x="512" y="-223" type="curve" smooth="yes"/>
      <point x="559" y="-223"/>
      <point x="598" y="-205"/>
      <point x="627" y="-173" type="curve"/>
    </contour>
    <contour>
      <point x="315" y="0" type="move" name="bottom"/>
    </contour>
    <contour>
      <point x="315" y="660" type="move" name="top"/>
    </contour>
    <contour>
      <point x="20" y="660" type="move" name="topleft"/>
    </contour>
  </outline>
</glyph>
<glyph name="Iogonek" format="1">
  <advance width="356"/>
  <unicode hex="012E"/>
  <note>
    Iogonek
  </note>
  <outline>
    <contour>
      <point x="247" y="239" type="curve" smooth="yes"/>
      <point x="247" y="421" type="line" smooth="yes"/>
      <point x="247" y="527"/>
      <point x="251" y="583"/>
      <point x="255" y="591" type="curve"/>
      <point x="266" y="599"/>
      <point x="298" y="606"/>
      <point x="326" y="607" type="curve"/>
      <point x="323" y="663" type="line"/>
      <point x="289" y="661"/>
      <point x="232" y="659"/>
      <point x="178" y="659" type="curve" smooth="yes"/>
      <point x="124" y="659"/>
      <point x="67" y="661"/>
      <point x="33" y="663" type="curve"/>
      <point x="30" y="607" type="line"/>
      <point x="58" y="606"/>
      <point x="90" y="599"/>
      <point x="101" y="591" type="curve"/>
      <point x="105" y="583"/>
      <point x="109" y="527"/>
      <point x="109" y="421" type="curve" smooth="yes"/>
      <point x="109" y="239" type="line" smooth="yes"/>
      <point x="109" y="133"/>
      <point x="105" y="77"/>
      <point x="101" y="69" type="curve"/>
      <point x="90" y="61"/>
      <point x="58" y="54"/>
      <point x="30" y="51" type="curve"/>
      <point x="33" y="-5" type="line"/>
      <point x="74" y="0"/>
      <point x="146" y="3"/>
      <point x="225" y="2" type="curve"/>
      <point x="230" y="14" type="line"/>
      <point x="118" y="-10"/>
      <point x="58" y="-67"/>
      <point x="58" y="-122" type="curve" smooth="yes"/>
      <point x="58" y="-181"/>
      <point x="116" y="-223"/>
      <point x="188" y="-223" type="curve" smooth="yes"/>
      <point x="235" y="-223"/>
      <point x="274" y="-205"/>
      <point x="303" y="-173" type="curve"/>
      <point x="275" y="-134" type="line"/>
      <point x="251" y="-157"/>
      <point x="229" y="-168"/>
      <point x="207" y="-168" type="curve" smooth="yes"/>
      <point x="177" y="-168"/>
      <point x="155" y="-148"/>
      <point x="155" y="-109" type="curve" smooth="yes"/>
      <point x="155" y="-50"/>
      <point x="234" y="0"/>
      <point x="323" y="0" type="curve"/>
      <point x="326" y="51" type="line"/>
      <point x="298" y="54"/>
      <point x="266" y="61"/>
      <point x="255" y="69" type="curve"/>
      <point x="251" y="77"/>
      <point x="247" y="133"/>
    </contour>
    <contour>
      <point x="178" y="660" type="move" name="top"/>
    </contour>
    <contour>
      <point x="20" y="660" type="move" name="topleft"/>
    </contour>
  </outline>
</glyph>
<glyph name="kgreenlandic" format="1">
  <advance width="562"/>
  <unicode hex="0138"/>
  <note>
    kgreenlandic
  </note>
  <outline>
    <contour>
      <point x="17" y="-3" type="line"/>
      <point x="54" y="0"/>
      <point x="111" y="2"/>
      <point x="152" y="2" type="curve" smooth="yes"/>
      <point x="193" y="2"/>
      <point x="250" y="0"/>
      <point x="286" y="-3" type="curve"/>
      <point x="290" y="46" type="line"/>
      <point x="265" y="49"/>
      <point x="235" y="56"/>
      <point x="223" y="64" type="curve"/>
      <point x="221" y="73"/>
      <point x="218" y="113"/>
      <point x="218" y="164" type="curve" smooth="yes"/>
      <point x="218" y="291" type="line" smooth="yes"/>
      <point x="218" y="350"/>
      <point x="220" y="390"/>
      <point x="224" y="429" type="curve"/>
      <point x="196" y="446" type="line"/>
      <point x="149" y="429"/>
      <point x="78" y="411"/>
      <point x="10" y="400" type="curve"/>
      <point x="10" y="355" type="line"/>
      <point x="33" y="352"/>
      <point x="58" y="348"/>
      <point x="77" y="341" type="curve"/>
      <point x="82" y="311"/>
      <point x="85" y="284"/>
      <point x="85" y="239" type="curve"/>
      <point x="84" y="164" type="line" smooth="yes"/>
      <point x="83" y="113"/>
      <point x="80" y="71"/>
      <point x="79" y="64" type="curve"/>
      <point x="67" y="56"/>
      <point x="41" y="49"/>
      <point x="13" y="46" type="curve"/>
    </contour>
    <contour>
      <point x="559" y="-2" type="curve"/>
      <point x="561" y="47" type="line"/>
      <point x="548" y="48"/>
      <point x="534" y="51"/>
      <point x="524" y="54" type="curve"/>
      <point x="514" y="62"/>
      <point x="497" y="83"/>
      <point x="472" y="113" type="curve" smooth="yes"/>
      <point x="326" y="290" type="line"/>
      <point x="312" y="244" type="line"/>
      <point x="476" y="381" type="line"/>
      <point x="494" y="386"/>
      <point x="520" y="390"/>
      <point x="545" y="393" type="curve"/>
      <point x="542" y="441" type="line"/>
      <point x="512" y="440"/>
      <point x="463" y="439"/>
      <point x="431" y="439" type="curve" smooth="yes"/>
      <point x="399" y="439"/>
      <point x="347" y="439"/>
      <point x="317" y="440" type="curve"/>
      <point x="315" y="391" type="line"/>
      <point x="329" y="390"/>
      <point x="360" y="387"/>
      <point x="379" y="382" type="curve"/>
      <point x="235" y="242" type="line"/>
      <point x="205" y="235" type="line"/>
      <point x="205" y="197" type="line"/>
      <point x="229" y="197" type="line"/>
      <point x="337" y="67" type="line" smooth="yes"/>
      <point x="355" y="45"/>
      <point x="371" y="22"/>
      <point x="387" y="0" type="curve"/>
      <point x="439" y="0"/>
      <point x="513" y="0"/>
    </contour>
  </outline>
</glyph>
<glyph name="OE" format="1">
  <advance width="1037"/>
  <unicode hex="0152"/>
  <note>
    OE
  </note>
  <outline>
    <contour>
      <point x="429" y="-10" type="curve" smooth="yes"/>
      <point x="484" y="-10"/>
      <point x="532" y="0"/>
      <point x="580" y="0" type="curve" smooth="yes"/>
      <point x="828" y="0" type="line" smooth="yes"/>
      <point x="872" y="0"/>
      <point x="933" y="-3"/>
      <point x="971" y="-6" type="curve"/>
      <point x="1020" y="169" type="line"/>
      <point x="960" y="181" type="line"/>
      <point x="937" y="134"/>
      <point x="918" y="95"/>
      <point x="899" y="66" type="curve"/>
      <point x="880" y="63"/>
      <point x="867" y="62"/>
      <point x="819" y="62" type="curve" smooth="yes"/>
      <point x="757" y="62" type="line" smooth="yes"/>
      <point x="715" y="62"/>
      <point x="691" y="64"/>
      <point x="666" y="67" type="curve"/>
      <point x="664" y="83"/>
      <point x="663" y="133"/>
      <point x="663" y="199" type="curve" smooth="yes"/>
      <point x="663" y="461" type="line" smooth="yes"/>
      <point x="663" y="527"/>
      <point x="664" y="583"/>
      <point x="666" y="598" type="curve"/>
      <point x="685" y="601"/>
      <point x="713" y="602"/>
      <point x="738" y="602" type="curve" smooth="yes"/>
      <point x="823" y="602" type="line" smooth="yes"/>
      <point x="840" y="602"/>
      <point x="854" y="601"/>
      <point x="872" y="598" type="curve"/>
      <point x="887" y="569"/>
      <point x="897" y="538"/>
      <point x="913" y="497" type="curve"/>
      <point x="975" y="505" type="line"/>
      <point x="946" y="665" type="line"/>
      <point x="908" y="663"/>
      <point x="834" y="660"/>
      <point x="790" y="660" type="curve" smooth="yes"/>
      <point x="578" y="660" type="line" smooth="yes"/>
      <point x="532" y="660"/>
      <point x="487" y="667"/>
      <point x="442" y="667" type="curve" smooth="yes"/>
      <point x="178" y="667"/>
      <point x="54" y="507"/>
      <point x="54" y="323" type="curve" smooth="yes"/>
      <point x="54" y="114"/>
      <point x="204" y="-10"/>
    </contour>
    <contour>
      <point x="444" y="62" type="curve" smooth="yes"/>
      <point x="308" y="62"/>
      <point x="217" y="165"/>
      <point x="217" y="342" type="curve" smooth="yes"/>
      <point x="217" y="481"/>
      <point x="284" y="599"/>
      <point x="435" y="599" type="curve" smooth="yes"/>
      <point x="464" y="599"/>
      <point x="496" y="594"/>
      <point x="519" y="585" type="curve"/>
      <point x="521" y="572"/>
      <point x="525" y="521"/>
      <point x="525" y="427" type="curve" smooth="yes"/>
      <point x="525" y="243" type="line" smooth="yes"/>
      <point x="525" y="143"/>
      <point x="522" y="91"/>
      <point x="521" y="75" type="curve"/>
      <point x="501" y="69"/>
      <point x="470" y="62"/>
    </contour>
    <contour>
      <point x="833" y="226" type="curve"/>
      <point x="892" y="226" type="line"/>
      <point x="891" y="263"/>
      <point x="889" y="304"/>
      <point x="889" y="339" type="curve" smooth="yes"/>
      <point x="889" y="374"/>
      <point x="891" y="412"/>
      <point x="892" y="449" type="curve"/>
      <point x="833" y="449" type="line"/>
      <point x="830" y="426"/>
      <point x="824" y="387"/>
      <point x="820" y="374" type="curve"/>
      <point x="811" y="373"/>
      <point x="788" y="371"/>
      <point x="760" y="371" type="curve" smooth="yes"/>
      <point x="704" y="371" type="line" smooth="yes"/>
      <point x="679" y="371"/>
      <point x="656" y="373"/>
      <point x="640" y="374" type="curve"/>
      <point x="640" y="303" type="line"/>
      <point x="656" y="304"/>
      <point x="679" y="306"/>
      <point x="704" y="306" type="curve" smooth="yes"/>
      <point x="760" y="306" type="line" smooth="yes"/>
      <point x="788" y="306"/>
      <point x="811" y="304"/>
      <point x="820" y="303" type="curve"/>
      <point x="824" y="290"/>
      <point x="830" y="249"/>
    </contour>
    <contour>
      <point x="594" y="0" type="move" name="bottom"/>
    </contour>
    <contour>
      <point x="594" y="660" type="move" name="top"/>
    </contour>
  </outline>
</glyph>
<glyph name="oe" format="1">
  <advance width="822"/>
  <unicode hex="0153"/>
  <note>
    oe
  </note>
  <outline>
    <contour>
      <point x="275" y="-8" type="curve" smooth="yes"/>
      <point x="401" y="-8"/>
      <point x="480" y="96"/>
      <point x="480" y="225" type="curve" smooth="yes"/>
      <point x="480" y="356"/>
      <point x="398" y="448"/>
      <point x="270" y="448" type="curve" smooth="yes"/>
      <point x="141" y="448"/>
      <point x="39" y="350"/>
      <point x="39" y="215" type="curve" smooth="yes"/>
      <point x="39" y="83"/>
      <point x="138" y="-8"/>
    </contour>
    <contour>
      <point x="288" y="56" type="curve" smooth="yes"/>
      <point x="229" y="56"/>
      <point x="184" y="134"/>
      <point x="184" y="245" type="curve" smooth="yes"/>
      <point x="184" y="345"/>
      <point x="220" y="388"/>
      <point x="266" y="388" type="curve" smooth="yes"/>
      <point x="326" y="388"/>
      <point x="366" y="309"/>
      <point x="366" y="193" type="curve" smooth="yes"/>
      <point x="366" y="99"/>
      <point x="334" y="56"/>
    </contour>
    <contour>
      <point x="601" y="-8" type="curve" smooth="yes"/>
      <point x="675" y="-8"/>
      <point x="746" y="34"/>
      <point x="783" y="115" type="curve"/>
      <point x="752" y="144" type="line"/>
      <point x="717" y="104"/>
      <point x="682" y="89"/>
      <point x="637" y="89" type="curve" smooth="yes"/>
      <point x="553" y="89"/>
      <point x="499" y="151"/>
      <point x="499" y="244" type="curve" smooth="yes"/>
      <point x="499" y="265" type="line" smooth="yes"/>
      <point x="499" y="351"/>
      <point x="536" y="392"/>
      <point x="584" y="392" type="curve" smooth="yes"/>
      <point x="632" y="392"/>
      <point x="659" y="353"/>
      <point x="659" y="290" type="curve" smooth="yes"/>
      <point x="659" y="255" type="line"/>
      <point x="680" y="280" type="line"/>
      <point x="489" y="280" type="line"/>
      <point x="488" y="227" type="line"/>
      <point x="777" y="227" type="line"/>
      <point x="777" y="251" type="line" smooth="yes"/>
      <point x="777" y="368"/>
      <point x="710" y="448"/>
      <point x="596" y="448" type="curve" smooth="yes"/>
      <point x="474" y="448"/>
      <point x="382" y="344"/>
      <point x="382" y="222" type="curve" smooth="yes"/>
      <point x="382" y="88"/>
      <point x="471" y="-8"/>
    </contour>
    <contour>
      <point x="433" y="0" type="move" name="bottom"/>
    </contour>
    <contour>
      <point x="433" y="440" type="move" name="top"/>
    </contour>
  </outline>
</glyph>
<glyph name="Uogonek" format="1">
  <advance width="756"/>
  <unicode hex="0172"/>
  <note>
    Uogonek
  </note>
  <outline>
    <contour>
      <point x="730" y="662" type="line"/>
      <point x="693" y="661"/>
      <point x="639" y="660"/>
      <point x="608" y="660" type="curve" smooth="yes"/>
      <point x="577" y="660"/>
      <point x="523" y="661"/>
      <point x="486" y="662" type="curve"/>
      <point x="483" y="606" type="line"/>
      <point x="514" y="606"/>
      <point x="546" y="599"/>
      <point x="557" y="591" type="curve"/>
      <point x="561" y="583"/>
      <point x="565" y="507"/>
      <point x="565" y="401" type="curve" smooth="yes"/>
      <point x="565" y="286" type="line" smooth="yes"/>
      <point x="565" y="139"/>
      <point x="504" y="84"/>
      <point x="414" y="84" type="curve" smooth="yes"/>
      <point x="305" y="84"/>
      <point x="244" y="144"/>
      <point x="245" y="283" type="curve" smooth="yes"/>
      <point x="246" y="421" type="line" smooth="yes"/>
      <point x="247" y="527"/>
      <point x="249" y="573"/>
      <point x="254" y="591" type="curve"/>
      <point x="265" y="599"/>
      <point x="297" y="606"/>
      <point x="328" y="606" type="curve"/>
      <point x="325" y="662" type="line"/>
      <point x="288" y="661"/>
      <point x="231" y="659"/>
      <point x="176" y="659" type="curve" smooth="yes"/>
      <point x="121" y="659"/>
      <point x="64" y="661"/>
      <point x="30" y="662" type="curve"/>
      <point x="27" y="606" type="line"/>
      <point x="55" y="606"/>
      <point x="87" y="599"/>
      <point x="98" y="591" type="curve"/>
      <point x="102" y="583"/>
      <point x="106" y="527"/>
      <point x="106" y="421" type="curve" smooth="yes"/>
      <point x="106" y="266" type="line" smooth="yes"/>
      <point x="106" y="88"/>
      <point x="211" y="-10"/>
      <point x="390" y="-10" type="curve" smooth="yes"/>
      <point x="423" y="-10" type="line"/>
      <point x="455" y="25" type="line"/>
      <point x="344" y="-12"/>
      <point x="287" y="-65"/>
      <point x="287" y="-122" type="curve" smooth="yes"/>
      <point x="287" y="-181"/>
      <point x="345" y="-223"/>
      <point x="417" y="-223" type="curve" smooth="yes"/>
      <point x="464" y="-223"/>
      <point x="503" y="-205"/>
      <point x="532" y="-173" type="curve"/>
      <point x="504" y="-134" type="line"/>
      <point x="480" y="-157"/>
      <point x="458" y="-168"/>
      <point x="436" y="-168" type="curve" smooth="yes"/>
      <point x="406" y="-168"/>
      <point x="384" y="-148"/>
      <point x="384" y="-113" type="curve" smooth="yes"/>
      <point x="384" y="-75"/>
      <point x="411" y="-28"/>
      <point x="502" y="10" type="curve" smooth="yes"/>
      <point x="591" y="47"/>
      <point x="651" y="133"/>
      <point x="651" y="273" type="curve" smooth="yes"/>
      <point x="651" y="401" type="line" smooth="yes"/>
      <point x="651" y="507"/>
      <point x="655" y="583"/>
      <point x="659" y="591" type="curve"/>
      <point x="670" y="599"/>
      <point x="702" y="606"/>
      <point x="733" y="606" type="curve"/>
    </contour>
    <contour>
      <point x="406" y="660" type="move" name="top"/>
    </contour>
    <contour>
      <point x="736" y="660" type="move" name="topright"/>
    </contour>
  </outline>
</glyph>
<glyph name="Schwa" format="1">
  <advance width="739"/>
  <unicode hex="018F"/>
  <outline>
    <contour>
      <point x="358" y="670" type="curve" smooth="yes"/>
      <point x="225" y="670"/>
      <point x="111" y="601"/>
      <point x="57" y="487" type="curve"/>
      <point x="92" y="455" type="line"/>
      <point x="146" y="515"/>
      <point x="216" y="545"/>
      <point x="304" y="545" type="curve" smooth="yes"/>
      <point x="441" y="545"/>
      <point x="528" y="454"/>
      <point x="528" y="305" type="curve" smooth="yes"/>
      <point x="528" y="273" type="line" smooth="yes"/>
      <point x="528" y="142"/>
      <point x="473" y="64"/>
      <point x="376" y="64" type="curve" smooth="yes"/>
      <point x="282" y="64"/>
      <point x="221" y="130"/>
      <point x="221" y="235" type="curve" smooth="yes"/>
      <point x="221" y="279" type="line"/>
      <point x="198" y="248" type="line"/>
      <point x="603" y="248" type="line"/>
      <point x="603" y="320" type="line"/>
      <point x="52" y="320" type="line"/>
      <point x="52" y="285" type="line" smooth="yes"/>
      <point x="52" y="106"/>
      <point x="179" y="-10"/>
      <point x="373" y="-10" type="curve" smooth="yes"/>
      <point x="551" y="-10"/>
      <point x="687" y="143"/>
      <point x="687" y="341" type="curve" smooth="yes"/>
      <point x="687" y="531"/>
      <point x="548" y="670"/>
    </contour>
    <contour>
      <point x="370" y="0" type="move" name="bottom"/>
    </contour>
    <contour>
      <point x="370" y="660" type="move" name="top"/>
    </contour>
  </outline>
</glyph>
<glyph name="florin" format="1">
  <advance width="407"/>
  <unicode hex="0192"/>
  <outline>
    <contour>
      <point x="83" y="-230" type="curve" smooth="yes"/>
      <point x="180" y="-230"/>
      <point x="263" y="-138"/>
      <point x="263" y="70" type="curve" smooth="yes"/>
      <point x="263" y="374" type="line"/>
      <point x="261" y="438" type="line"/>
      <point x="261" y="514" type="line" smooth="yes"/>
      <point x="261" y="589"/>
      <point x="275" y="626"/>
      <point x="294" y="642" type="curve"/>
      <point x="334" y="605" type="line" smooth="yes"/>
      <point x="353" y="587"/>
      <point x="370" y="579"/>
      <point x="393" y="579" type="curve" smooth="yes"/>
      <point x="421" y="579"/>
      <point x="440" y="594"/>
      <point x="440" y="623" type="curve" smooth="yes"/>
      <point x="440" y="667"/>
      <point x="391" y="698"/>
      <point x="324" y="698" type="curve" smooth="yes"/>
      <point x="217" y="698"/>
      <point x="131" y="606"/>
      <point x="131" y="468" type="curve" smooth="yes"/>
      <point x="131" y="-6" type="line"/>
      <point x="131" y="-121"/>
      <point x="122" y="-158"/>
      <point x="113" y="-174" type="curve"/>
      <point x="73" y="-137" type="line" smooth="yes"/>
      <point x="54" y="-119"/>
      <point x="37" y="-111"/>
      <point x="14" y="-111" type="curve" smooth="yes"/>
      <point x="-14" y="-111"/>
      <point x="-33" y="-126"/>
      <point x="-33" y="-155" type="curve" smooth="yes"/>
      <point x="-33" y="-199"/>
      <point x="16" y="-230"/>
    </contour>
    <contour>
      <point x="57" y="374" type="line"/>
      <point x="368" y="374" type="line"/>
      <point x="368" y="438" type="line"/>
      <point x="190" y="438" type="line"/>
      <point x="131" y="442" type="line"/>
      <point x="106" y="432"/>
      <point x="82" y="425"/>
      <point x="57" y="421" type="curve"/>
    </contour>
  </outline>
</glyph>
<glyph name="Ohorn" format="1">
  <advance width="791"/>
  <unicode hex="01A0"/>
  <note>
    Ohorn
  </note>
  <outline>
    <contour>
      <point x="774" y="728" type="curve" smooth="yes"/>
      <point x="774" y="791"/>
      <point x="721" y="800"/>
      <point x="659" y="792" type="curve"/>
      <point x="657" y="732" type="line" smooth="yes"/>
      <point x="656" y="686"/>
      <point x="627" y="654"/>
      <point x="575" y="654" type="curve" smooth="yes"/>
      <point x="535" y="654"/>
      <point x="479" y="670"/>
      <point x="414" y="670" type="curve" smooth="yes"/>
      <point x="199" y="670"/>
      <point x="52" y="524"/>
      <point x="52" y="323" type="curve" smooth="yes"/>
      <point x="52" y="127"/>
      <point x="199" y="-10"/>
      <point x="403" y="-10" type="curve" smooth="yes"/>
      <point x="559" y="-10"/>
      <point x="739" y="117"/>
      <point x="739" y="337" type="curve" smooth="yes"/>
      <point x="739" y="462"/>
      <point x="683" y="562"/>
      <point x="594" y="618" type="curve"/>
      <point x="543" y="605" type="line"/>
      <point x="681" y="572"/>
      <point x="774" y="650"/>
    </contour>
    <contour>
      <point x="412" y="65" type="curve" smooth="yes"/>
      <point x="297" y="65"/>
      <point x="215" y="183"/>
      <point x="215" y="352" type="curve" smooth="yes"/>
      <point x="215" y="505"/>
      <point x="280" y="602"/>
      <point x="391" y="602" type="curve" smooth="yes"/>
      <point x="505" y="602"/>
      <point x="579" y="484"/>
      <point x="579" y="310" type="curve" smooth="yes"/>
      <point x="579" y="154"/>
      <point x="519" y="65"/>
    </contour>
    <contour>
      <point x="396" y="0" type="move" name="bottom"/>
    </contour>
    <contour>
      <point x="396" y="330" type="move" name="center"/>
    </contour>
    <contour>
      <point x="396" y="660" type="move" name="top"/>
    </contour>
    <contour>
      <point x="20" y="660" type="move" name="topleft"/>
    </contour>
  </outline>
</glyph>
<glyph name="ohorn" format="1">
  <advance width="542"/>
  <unicode hex="01A1"/>
  <note>
    ohorn
  </note>
  <outline>
    <contour>
      <point x="530" y="482" type="curve" smooth="yes"/>
      <point x="530" y="525"/>
      <point x="484" y="548"/>
      <point x="416" y="537" type="curve"/>
      <point x="411" y="472" type="line" smooth="yes"/>
      <point x="409" y="445"/>
      <point x="402" y="433"/>
      <point x="376" y="433" type="curve" smooth="yes"/>
      <point x="348" y="433"/>
      <point x="331" y="448"/>
      <point x="269" y="448" type="curve" smooth="yes"/>
      <point x="154" y="448"/>
      <point x="38" y="363"/>
      <point x="38" y="215" type="curve" smooth="yes"/>
      <point x="38" y="84"/>
      <point x="135" y="-8"/>
      <point x="275" y="-8" type="curve" smooth="yes"/>
      <point x="402" y="-8"/>
      <point x="504" y="94"/>
      <point x="504" y="225" type="curve" smooth="yes"/>
      <point x="504" y="304"/>
      <point x="470" y="370"/>
      <point x="414" y="409" type="curve"/>
      <point x="396" y="384" type="line"/>
      <point x="441" y="384"/>
      <point x="530" y="421"/>
    </contour>
    <contour>
      <point x="285" y="57" type="curve" smooth="yes"/>
      <point x="226" y="57"/>
      <point x="182" y="137"/>
      <point x="182" y="245" type="curve" smooth="yes"/>
      <point x="182" y="333"/>
      <point x="213" y="387"/>
      <point x="263" y="387" type="curve" smooth="yes"/>
      <point x="322" y="387"/>
      <point x="362" y="309"/>
      <point x="362" y="193" type="curve" smooth="yes"/>
      <point x="362" y="107"/>
      <point x="334" y="57"/>
    </contour>
    <contour>
      <point x="271" y="0" type="move" name="bottom"/>
    </contour>
    <contour>
      <point x="271" y="220" type="move" name="center"/>
    </contour>
    <contour>
      <point x="335" y="0" type="move" name="ogonek"/>
    </contour>
    <contour>
      <point x="271" y="440" type="move" name="top"/>
    </contour>
  </outline>
</glyph>
<glyph name="commaturnedmod" format="1">
  <advance width="600"/>
  <unicode hex="02BB"/>
  <note>
    uni02BB
  </note>
  <outline>
    <contour>
      <point x="378" y="736" type="line"/>
      <point x="273" y="713"/>
      <point x="224" y="646"/>
      <point x="224" y="588" type="curve" smooth="yes"/>
      <point x="224" y="531"/>
      <point x="265" y="508"/>
      <point x="306" y="508" type="curve" smooth="yes"/>
      <point x="347" y="508"/>
      <point x="376" y="532"/>
      <point x="376" y="563" type="curve" smooth="yes"/>
      <point x="376" y="624"/>
      <point x="309" y="613"/>
      <point x="309" y="646" type="curve" smooth="yes"/>
      <point x="309" y="665"/>
      <point x="328" y="687"/>
      <point x="393" y="701" type="curve"/>
    </contour>
    <contour>
      <point x="300" y="440" type="move" name="_top"/>
    </contour>
    <contour>
      <point x="300" y="662" type="move" name="top"/>
    </contour>
  </outline>
</glyph>
<glyph name="apostrophemod" format="1">
  <advance width="600"/>
  <unicode hex="02BC"/>
  <note>
    uni02BB
  </note>
  <outline>
    <contour>
      <point x="239" y="508" type="line"/>
      <point x="344" y="531"/>
      <point x="393" y="598"/>
      <point x="393" y="656" type="curve" smooth="yes"/>
      <point x="393" y="713"/>
      <point x="352" y="736"/>
      <point x="311" y="736" type="curve" smooth="yes"/>
      <point x="270" y="736"/>
      <point x="241" y="712"/>
      <point x="241" y="681" type="curve" smooth="yes"/>
      <point x="241" y="620"/>
      <point x="308" y="631"/>
      <point x="308" y="598" type="curve" smooth="yes"/>
      <point x="308" y="579"/>
      <point x="289" y="557"/>
      <point x="224" y="543" type="curve"/>
    </contour>
    <contour>
      <point x="300" y="440" type="move" name="_top"/>
    </contour>
    <contour>
      <point x="300" y="662" type="move" name="top"/>
    </contour>
  </outline>
</glyph>
<glyph name="ringhalfleft" format="1">
  <advance width="600"/>
  <unicode hex="02BF"/>
  <outline>
    <contour>
      <point x="300" y="652" type="curve"/>
      <point x="300" y="696" type="line"/>
      <point x="236" y="696"/>
      <point x="187" y="650"/>
      <point x="187" y="590" type="curve" smooth="yes"/>
      <point x="187" y="530"/>
      <point x="236" y="484"/>
      <point x="300" y="484" type="curve"/>
      <point x="300" y="530" type="line"/>
      <point x="267" y="530"/>
      <point x="242" y="556"/>
      <point x="242" y="591" type="curve" smooth="yes"/>
      <point x="242" y="626"/>
      <point x="267" y="652"/>
    </contour>
    <contour>
      <point x="300" y="440" type="move" name="_top"/>
    </contour>
    <contour>
      <point x="300" y="662" type="move" name="top"/>
    </contour>
  </outline>
</glyph>
<glyph name="verticallinemod" format="1">
  <advance width="600"/>
  <unicode hex="02C8"/>
  <outline>
    <contour>
      <point x="264" y="540" type="line"/>
      <point x="337" y="540" type="line"/>
      <point x="337" y="660" type="line"/>
      <point x="264" y="660" type="line"/>
    </contour>
    <contour>
      <point x="300" y="440" type="move" name="_top"/>
    </contour>
    <contour>
      <point x="300" y="687" type="move" name="top"/>
    </contour>
  </outline>
</glyph>
<glyph name="acutecomb" format="1">
  <advance width="600"/>
  <unicode hex="0301"/>
  <note>
    acutecomb
  </note>
  <outline>
    <contour>
      <point x="330" y="483" type="line"/>
      <point x="490" y="654" type="line"/>
      <point x="369" y="677" type="line"/>
      <point x="270" y="504" type="line"/>
    </contour>
    <contour>
      <point x="300" y="440" type="move" name="_top"/>
    </contour>
    <contour>
      <point x="300" y="687" type="move" name="top"/>
    </contour>
  </outline>
</glyph>
<glyph name="tildecomb" format="1">
  <advance width="600"/>
  <unicode hex="0303"/>
  <note>
    tildecomb
  </note>
  <outline>
    <contour>
      <point x="443" y="649" type="line"/>
      <point x="425" y="617"/>
      <point x="407" y="602"/>
      <point x="382" y="602" type="curve" smooth="yes"/>
      <point x="343" y="602"/>
      <point x="279" y="650"/>
      <point x="230" y="650" type="curve" smooth="yes"/>
      <point x="176" y="650"/>
      <point x="133" y="607"/>
      <point x="112" y="534" type="curve"/>
      <point x="157" y="508" type="line"/>
      <point x="175" y="540"/>
      <point x="193" y="555"/>
      <point x="218" y="555" type="curve" smooth="yes"/>
      <point x="257" y="555"/>
      <point x="321" y="507"/>
      <point x="370" y="507" type="curve" smooth="yes"/>
      <point x="424" y="507"/>
      <point x="467" y="550"/>
      <point x="488" y="623" type="curve"/>
    </contour>
    <contour>
      <point x="300" y="440" type="move" name="_top"/>
    </contour>
    <contour>
      <point x="300" y="687" type="move" name="top"/>
    </contour>
  </outline>
</glyph>
<glyph name="hookabovecomb" format="1">
  <advance width="600"/>
  <unicode hex="0309"/>
  <note>
    hookabovecomb
  </note>
  <outline>
    <contour>
      <point x="301" y="671" type="curve" smooth="yes"/>
      <point x="237" y="671"/>
      <point x="195" y="643"/>
      <point x="195" y="612" type="curve" smooth="yes"/>
      <point x="195" y="595"/>
      <point x="208" y="584"/>
      <point x="227" y="584" type="curve" smooth="yes"/>
      <point x="244" y="584"/>
      <point x="254" y="590"/>
      <point x="266" y="602" type="curve" smooth="yes"/>
      <point x="307" y="646" type="line"/>
      <point x="265" y="630" type="line"/>
      <point x="301" y="639"/>
      <point x="321" y="635"/>
      <point x="321" y="610" type="curve" smooth="yes"/>
      <point x="321" y="583"/>
      <point x="277" y="559"/>
      <point x="277" y="510" type="curve" smooth="yes"/>
      <point x="277" y="493" type="line"/>
      <point x="323" y="493" type="line"/>
      <point x="323" y="538"/>
      <point x="412" y="543"/>
      <point x="412" y="604" type="curve" smooth="yes"/>
      <point x="412" y="646"/>
      <point x="369" y="671"/>
    </contour>
    <contour>
      <point x="300" y="440" type="move" name="_top"/>
    </contour>
    <contour>
      <point x="300" y="687" type="move" name="top"/>
    </contour>
  </outline>
</glyph>
<glyph name="horncomb" format="1">
  <advance width="600"/>
  <unicode hex="031B"/>
  <outline>
    <contour>
      <point x="370" y="433" type="curve" smooth="yes"/>
      <point x="344" y="433" type="line"/>
      <point x="344" y="384" type="line"/>
      <point x="396" y="384" type="line" smooth="yes"/>
      <point x="441" y="384"/>
      <point x="530" y="421"/>
      <point x="530" y="482" type="curve" smooth="yes"/>
      <point x="530" y="525"/>
      <point x="484" y="548"/>
      <point x="416" y="537" type="curve"/>
      <point x="411" y="472" type="line" smooth="yes"/>
      <point x="409" y="443"/>
      <point x="401" y="433"/>
    </contour>
    <contour>
      <point x="370" y="433" type="move" name="_topright"/>
    </contour>
  </outline>
</glyph>
<glyph name="dieresisbelowcomb" format="1">
  <advance width="600"/>
  <unicode hex="0324"/>
  <outline>
    <contour>
      <point x="206" y="-205" type="curve" smooth="yes"/>
      <point x="250" y="-205"/>
      <point x="276" y="-173"/>
      <point x="276" y="-138" type="curve" smooth="yes"/>
      <point x="276" y="-103"/>
      <point x="250" y="-71"/>
      <point x="206" y="-71" type="curve" smooth="yes"/>
      <point x="160" y="-71"/>
      <point x="134" y="-103"/>
      <point x="134" y="-138" type="curve" smooth="yes"/>
      <point x="134" y="-173"/>
      <point x="160" y="-205"/>
    </contour>
    <contour>
      <point x="396" y="-205" type="curve" smooth="yes"/>
      <point x="440" y="-205"/>
      <point x="466" y="-173"/>
      <point x="466" y="-138" type="curve" smooth="yes"/>
      <point x="466" y="-103"/>
      <point x="440" y="-71"/>
      <point x="396" y="-71" type="curve" smooth="yes"/>
      <point x="350" y="-71"/>
      <point x="324" y="-103"/>
      <point x="324" y="-138" type="curve" smooth="yes"/>
      <point x="324" y="-173"/>
      <point x="350" y="-205"/>
    </contour>
    <contour>
      <point x="300" y="0" type="move" name="_bottom"/>
    </contour>
    <contour>
      <point x="300" y="-220" type="move" name="bottom"/>
    </contour>
  </outline>
</glyph>
<glyph name="commaaccentcomb" format="1">
  <advance width="600"/>
  <unicode hex="0326"/>
  <note>
    uni0326
  </note>
  <outline>
    <contour>
      <point x="222" y="-292" type="line"/>
      <point x="327" y="-269"/>
      <point x="376" y="-202"/>
      <point x="376" y="-144" type="curve" smooth="yes"/>
      <point x="376" y="-87"/>
      <point x="335" y="-64"/>
      <point x="294" y="-64" type="curve" smooth="yes"/>
      <point x="253" y="-64"/>
      <point x="224" y="-88"/>
      <point x="224" y="-119" type="curve" smooth="yes"/>
      <point x="224" y="-180"/>
      <point x="291" y="-169"/>
      <point x="291" y="-202" type="curve" smooth="yes"/>
      <point x="291" y="-221"/>
      <point x="272" y="-243"/>
      <point x="207" y="-257" type="curve"/>
    </contour>
    <contour>
      <point x="300" y="0" type="move" name="_bottom"/>
    </contour>
    <contour>
      <point x="300" y="-220" type="move" name="bottom"/>
    </contour>
  </outline>
</glyph>
<glyph name="brevebelowcomb" format="1">
  <advance width="600"/>
  <unicode hex="032E"/>
  <outline>
    <contour>
      <point x="398" y="-71" type="line"/>
      <point x="388" y="-117"/>
      <point x="352" y="-144"/>
      <point x="303" y="-144" type="curve" smooth="yes"/>
      <point x="256" y="-144"/>
      <point x="220" y="-117"/>
      <point x="208" y="-71" type="curve"/>
      <point x="142" y="-92" type="line"/>
      <point x="152" y="-174"/>
      <point x="212" y="-227"/>
      <point x="301" y="-227" type="curve" smooth="yes"/>
      <point x="390" y="-227"/>
      <point x="448" y="-174"/>
      <point x="458" y="-92" type="curve"/>
    </contour>
    <contour>
      <point x="300" y="0" type="move" name="_bottom"/>
    </contour>
    <contour>
      <point x="300" y="-220" type="move" name="bottom"/>
    </contour>
  </outline>
</glyph>
<glyph name="strokelongcomb" format="1">
  <advance width="600"/>
  <unicode hex="0336"/>
  <outline>
    <contour>
      <point x="-87" y="372" type="line"/>
      <point x="603" y="372" type="line"/>
      <point x="603" y="440" type="line"/>
      <point x="-87" y="440" type="line"/>
    </contour>
    <contour>
      <point x="258" y="406" type="move" name="_center"/>
    </contour>
  </outline>
</glyph>
<glyph name="Delta" format="1">
  <advance width="646"/>
  <unicode hex="0394"/>
  <note>
    uni2206
  </note>
  <outline>
    <contour>
      <point x="9" y="0" type="line"/>
      <point x="637" y="0" type="line"/>
      <point x="326" y="682" type="line"/>
    </contour>
    <contour>
      <point x="105" y="37" type="line"/>
      <point x="327" y="522" type="line"/>
      <point x="271" y="505" type="line"/>
      <point x="481" y="37" type="line"/>
      <point x="492" y="93" type="line"/>
      <point x="104" y="93" type="line"/>
    </contour>
  </outline>
</glyph>
<glyph name="pi" format="1">
  <advance width="691"/>
  <unicode hex="03C0"/>
  <outline>
    <contour>
      <point x="513" y="-11" type="curve" smooth="yes"/>
      <point x="576" y="-11"/>
      <point x="634" y="22"/>
      <point x="669" y="95" type="curve"/>
      <point x="631" y="130" type="line"/>
      <point x="611" y="101"/>
      <point x="584" y="83"/>
      <point x="563" y="83" type="curve" smooth="yes"/>
      <point x="527" y="83"/>
      <point x="511" y="109"/>
      <point x="512" y="169" type="curve" smooth="yes"/>
      <point x="515" y="411" type="line"/>
      <point x="382" y="410" type="line"/>
      <point x="374" y="138" type="line" smooth="yes"/>
      <point x="371" y="49"/>
      <point x="426" y="-11"/>
    </contour>
    <contour>
      <point x="106" y="-10" type="curve" smooth="yes"/>
      <point x="201" y="-10"/>
      <point x="248" y="62"/>
      <point x="257" y="210" type="curve" smooth="yes"/>
      <point x="270" y="419" type="line"/>
      <point x="185" y="419" type="line"/>
      <point x="172" y="183" type="line" smooth="yes"/>
      <point x="166" y="72"/>
      <point x="152" y="36"/>
      <point x="109" y="36" type="curve"/>
      <point x="164" y="30" type="line"/>
      <point x="106" y="83" type="line" smooth="yes"/>
      <point x="86" y="102"/>
      <point x="68" y="109"/>
      <point x="47" y="109" type="curve" smooth="yes"/>
      <point x="18" y="109"/>
      <point x="0" y="93"/>
      <point x="0" y="65" type="curve" smooth="yes"/>
      <point x="0" y="23"/>
      <point x="46" y="-10"/>
    </contour>
    <contour>
      <point x="61" y="347" type="line"/>
      <point x="106" y="368"/>
      <point x="147" y="377"/>
      <point x="187" y="377" type="curve" smooth="yes"/>
      <point x="516" y="377" type="line" smooth="yes"/>
      <point x="555" y="377"/>
      <point x="587" y="376"/>
      <point x="620" y="375" type="curve"/>
      <point x="628" y="433"/>
      <point x="635" y="481"/>
      <point x="640" y="515" type="curve"/>
      <point x="576" y="515" type="line"/>
      <point x="569" y="491"/>
      <point x="559" y="464"/>
      <point x="550" y="445" type="curve"/>
      <point x="521" y="441"/>
      <point x="500" y="440"/>
      <point x="480" y="440" type="curve" smooth="yes"/>
      <point x="212" y="440" type="line" smooth="yes"/>
      <point x="150" y="440"/>
      <point x="94" y="433"/>
      <point x="39" y="409" type="curve"/>
    </contour>
  </outline>
</glyph>
<glyph name="Germandbls" format="1">
  <advance width="794"/>
  <unicode hex="1E9E"/>
  <outline>
    <contour>
      <point x="38" y="-5" type="line"/>
      <point x="72" y="-1"/>
      <point x="118" y="2"/>
      <point x="173" y="2" type="curve" smooth="yes"/>
      <point x="226" y="2"/>
      <point x="279" y="-1"/>
      <point x="306" y="-4" type="curve"/>
      <point x="308" y="52" type="line"/>
      <point x="286" y="54"/>
      <point x="262" y="61"/>
      <point x="253" y="69" type="curve"/>
      <point x="249" y="77"/>
      <point x="246" y="133"/>
      <point x="245" y="239" type="curve"/>
      <point x="243" y="416" type="line"/>
      <point x="242" y="541"/>
      <point x="303" y="605"/>
      <point x="398" y="605" type="curve" smooth="yes"/>
      <point x="459" y="605"/>
      <point x="510" y="582"/>
      <point x="533" y="524" type="curve"/>
      <point x="623" y="524" type="line"/>
      <point x="581" y="627"/>
      <point x="496" y="672"/>
      <point x="396" y="672" type="curve" smooth="yes"/>
      <point x="216" y="672"/>
      <point x="106" y="557"/>
      <point x="106" y="385" type="curve"/>
      <point x="107" y="239" type="line"/>
      <point x="107" y="133"/>
      <point x="103" y="77"/>
      <point x="99" y="69" type="curve"/>
      <point x="88" y="61"/>
      <point x="63" y="54"/>
      <point x="35" y="51" type="curve"/>
    </contour>
    <contour>
      <point x="540" y="-10" type="curve" smooth="yes"/>
      <point x="672" y="-10"/>
      <point x="771" y="58"/>
      <point x="771" y="158" type="curve" smooth="yes"/>
      <point x="771" y="339"/>
      <point x="496" y="312"/>
      <point x="496" y="422" type="curve" smooth="yes"/>
      <point x="496" y="467"/>
      <point x="535" y="494"/>
      <point x="590" y="494" type="curve" smooth="yes"/>
      <point x="607" y="494"/>
      <point x="622" y="493"/>
      <point x="642" y="486" type="curve"/>
      <point x="655" y="461"/>
      <point x="665" y="428"/>
      <point x="673" y="392" type="curve"/>
      <point x="735" y="397" type="line"/>
      <point x="725" y="533" type="line"/>
      <point x="690" y="546"/>
      <point x="626" y="554"/>
      <point x="586" y="554" type="curve" smooth="yes"/>
      <point x="460" y="554"/>
      <point x="364" y="479"/>
      <point x="364" y="383" type="curve" smooth="yes"/>
      <point x="364" y="196"/>
      <point x="638" y="242"/>
      <point x="638" y="119" type="curve" smooth="yes"/>
      <point x="638" y="75"/>
      <point x="596" y="53"/>
      <point x="545" y="53" type="curve" smooth="yes"/>
      <point x="516" y="53"/>
      <point x="484" y="60"/>
      <point x="456" y="79" type="curve"/>
      <point x="445" y="107"/>
      <point x="434" y="141"/>
      <point x="425" y="177" type="curve"/>
      <point x="362" y="170" type="line"/>
      <point x="361" y="130"/>
      <point x="363" y="77"/>
      <point x="366" y="27" type="curve"/>
      <point x="411" y="4"/>
      <point x="483" y="-10"/>
    </contour>
  </outline>
</glyph>
<glyph name="figuredash" format="1">
  <advance width="600"/>
  <unicode hex="2012"/>
  <note>
    figuredash
  </note>
  <outline>
    <contour>
      <point x="50" y="195" type="line"/>
      <point x="550" y="195" type="line"/>
      <point x="550" y="259" type="line"/>
      <point x="50" y="259" type="line"/>
    </contour>
  </outline>
</glyph>
<glyph name="endash" format="1">
  <advance width="500"/>
  <unicode hex="2013"/>
  <note>
    endash
  </note>
  <outline>
    <contour>
      <point x="0" y="195" type="line"/>
      <point x="500" y="195" type="line"/>
      <point x="500" y="259" type="line"/>
      <point x="0" y="259" type="line"/>
    </contour>
  </outline>
</glyph>
<glyph name="quoteleft" format="1">
  <advance width="298"/>
  <unicode hex="2018"/>
  <note>
    quoteleft
  </note>
  <outline>
    <contour>
      <point x="244" y="698" type="line"/>
      <point x="112" y="645"/>
      <point x="48" y="550"/>
      <point x="48" y="441" type="curve" smooth="yes"/>
      <point x="48" y="345"/>
      <point x="102" y="309"/>
      <point x="152" y="309" type="curve" smooth="yes"/>
      <point x="205" y="309"/>
      <point x="244" y="346"/>
      <point x="244" y="393" type="curve" smooth="yes"/>
      <point x="244" y="473"/>
      <point x="157" y="467"/>
      <point x="157" y="539" type="curve" smooth="yes"/>
      <point x="157" y="584"/>
      <point x="185" y="623"/>
      <point x="264" y="656" type="curve"/>
    </contour>
  </outline>
</glyph>
<glyph name="dagger" format="1">
  <advance width="504"/>
  <unicode hex="2020"/>
  <note>
    dagger
  </note>
  <outline>
    <contour>
      <point x="414" y="534" type="curve" smooth="yes"/>
      <point x="378" y="534"/>
      <point x="322" y="509"/>
      <point x="278" y="500" type="curve"/>
      <point x="287" y="544"/>
      <point x="312" y="600"/>
      <point x="312" y="636" type="curve" smooth="yes"/>
      <point x="312" y="679"/>
      <point x="286" y="698"/>
      <point x="252" y="698" type="curve" smooth="yes"/>
      <point x="218" y="698"/>
      <point x="192" y="679"/>
      <point x="192" y="636" type="curve" smooth="yes"/>
      <point x="192" y="600"/>
      <point x="217" y="544"/>
      <point x="226" y="500" type="curve"/>
      <point x="182" y="509"/>
      <point x="126" y="534"/>
      <point x="90" y="534" type="curve" smooth="yes"/>
      <point x="47" y="534"/>
      <point x="28" y="508"/>
      <point x="28" y="474" type="curve" smooth="yes"/>
      <point x="28" y="440"/>
      <point x="47" y="414"/>
      <point x="90" y="414" type="curve" smooth="yes"/>
      <point x="125" y="414"/>
      <point x="177" y="437"/>
      <point x="220" y="447" type="curve"/>
      <point x="209" y="416"/>
      <point x="196" y="385"/>
      <point x="179" y="340" type="curve"/>
      <point x="211" y="200"/>
      <point x="220" y="108"/>
      <point x="230" y="0" type="curve"/>
      <point x="277" y="0" type="line"/>
      <point x="287" y="108"/>
      <point x="293" y="200"/>
      <point x="325" y="340" type="curve"/>
      <point x="308" y="385"/>
      <point x="295" y="416"/>
      <point x="284" y="447" type="curve"/>
      <point x="327" y="437"/>
      <point x="379" y="414"/>
      <point x="414" y="414" type="curve" smooth="yes"/>
      <point x="457" y="414"/>
      <point x="476" y="440"/>
      <point x="476" y="474" type="curve" smooth="yes"/>
      <point x="476" y="508"/>
      <point x="457" y="534"/>
    </contour>
  </outline>
</glyph>
<glyph name="guilsinglleft" format="1">
  <advance width="410"/>
  <unicode hex="2039"/>
  <note>
    guilsinglleft
  </note>
  <outline>
    <contour>
      <point x="345" y="388" type="line"/>
      <point x="308" y="429" type="line"/>
      <point x="75" y="249" type="line"/>
      <point x="75" y="198" type="line"/>
      <point x="308" y="18" type="line"/>
      <point x="345" y="59" type="line"/>
      <point x="182" y="262" type="line"/>
      <point x="182" y="185" type="line"/>
    </contour>
  </outline>
</glyph>
<glyph name="guilsinglright" format="1">
  <advance width="410"/>
  <unicode hex="203A"/>
  <note>
    guilsinglright
  </note>
  <outline>
    <contour>
      <point x="65" y="388" type="line"/>
      <point x="228" y="185" type="line"/>
      <point x="228" y="262" type="line"/>
      <point x="65" y="59" type="line"/>
      <point x="102" y="18" type="line"/>
      <point x="335" y="198" type="line"/>
      <point x="335" y="249" type="line"/>
      <point x="102" y="429" type="line"/>
    </contour>
  </outline>
</glyph>
<glyph name="commercialMinusSign" format="1">
  <advance width="600"/>
  <unicode hex="2052"/>
  <outline>
    <contour>
      <point x="142" y="0" type="line"/>
      <point x="239" y="0" type="line"/>
      <point x="457" y="660" type="line"/>
      <point x="360" y="660" type="line"/>
    </contour>
    <contour>
      <point x="402" y="-10" type="curve" smooth="yes"/>
      <point x="455" y="-10"/>
      <point x="497" y="30"/>
      <point x="497" y="82" type="curve" smooth="yes"/>
      <point x="497" y="135"/>
      <point x="455" y="177"/>
      <point x="402" y="177" type="curve" smooth="yes"/>
      <point x="350" y="177"/>
      <point x="307" y="135"/>
      <point x="307" y="82" type="curve" smooth="yes"/>
      <point x="307" y="30"/>
      <point x="350" y="-10"/>
    </contour>
    <contour>
      <point x="197" y="483" type="curve" smooth="yes"/>
      <point x="250" y="483"/>
      <point x="292" y="523"/>
      <point x="292" y="575" type="curve" smooth="yes"/>
      <point x="292" y="628"/>
      <point x="250" y="670"/>
      <point x="197" y="670" type="curve" smooth="yes"/>
      <point x="145" y="670"/>
      <point x="102" y="628"/>
      <point x="102" y="575" type="curve" smooth="yes"/>
      <point x="102" y="523"/>
      <point x="145" y="483"/>
    </contour>
  </outline>
</glyph>
<glyph name="peso" format="1">
  <advance width="670"/>
  <unicode hex="20B1"/>
  <outline>
    <contour>
      <point x="38" y="-5" type="line"/>
      <point x="69" y="-1"/>
      <point x="142" y="0"/>
      <point x="187" y="0" type="curve" smooth="yes"/>
      <point x="232" y="0"/>
      <point x="307" y="-1"/>
      <point x="343" y="-5" type="curve"/>
      <point x="346" y="53" type="line"/>
      <point x="316" y="56"/>
      <point x="280" y="62"/>
      <point x="253" y="69" type="curve"/>
      <point x="249" y="77"/>
      <point x="245" y="133"/>
      <point x="245" y="199" type="curve" smooth="yes"/>
      <point x="245" y="383" type="line" smooth="yes"/>
      <point x="245" y="511"/>
      <point x="245" y="578"/>
      <point x="246" y="596" type="curve"/>
      <point x="260" y="601"/>
      <point x="274" y="602"/>
      <point x="296" y="602" type="curve" smooth="yes"/>
      <point x="375" y="602"/>
      <point x="425" y="536"/>
      <point x="425" y="422" type="curve" smooth="yes"/>
      <point x="425" y="324"/>
      <point x="382" y="271"/>
      <point x="312" y="271" type="curve" smooth="yes"/>
      <point x="276" y="271"/>
      <point x="249" y="278"/>
      <point x="228" y="290" type="curve"/>
      <point x="228" y="215" type="line"/>
      <point x="250" y="209"/>
      <point x="284" y="205"/>
      <point x="308" y="205" type="curve" smooth="yes"/>
      <point x="464" y="205"/>
      <point x="571" y="305"/>
      <point x="571" y="441" type="curve" smooth="yes"/>
      <point x="571" y="580"/>
      <point x="475" y="661"/>
      <point x="314" y="661" type="curve" smooth="yes"/>
      <point x="265" y="661"/>
      <point x="228" y="659"/>
      <point x="192" y="659" type="curve" smooth="yes"/>
      <point x="127" y="659"/>
      <point x="67" y="659"/>
      <point x="33" y="661" type="curve"/>
      <point x="30" y="605" type="line"/>
      <point x="58" y="604"/>
      <point x="90" y="599"/>
      <point x="101" y="591" type="curve"/>
      <point x="105" y="583"/>
      <point x="109" y="527"/>
      <point x="109" y="421" type="curve" smooth="yes"/>
      <point x="109" y="239" type="line" smooth="yes"/>
      <point x="109" y="133"/>
      <point x="105" y="77"/>
      <point x="101" y="69" type="curve"/>
      <point x="90" y="61"/>
      <point x="60" y="54"/>
      <point x="35" y="51" type="curve"/>
    </contour>
    <contour>
      <point x="10" y="337" type="line"/>
      <point x="655" y="337" type="line"/>
      <point x="655" y="399" type="line"/>
      <point x="10" y="399" type="line"/>
    </contour>
    <contour>
      <point x="10" y="469" type="line"/>
      <point x="655" y="469" type="line"/>
      <point x="655" y="531" type="line"/>
      <point x="10" y="531" type="line"/>
    </contour>
  </outline>
</glyph>
<glyph name="liraTurkish" format="1">
  <advance width="610"/>
  <unicode hex="20BA"/>
  <outline>
    <contour>
      <point x="322" y="-10" type="curve" smooth="yes"/>
      <point x="461" y="-10"/>
      <point x="550" y="41"/>
      <point x="599" y="152" type="curve"/>
      <point x="544" y="187" type="line"/>
      <point x="505" y="121"/>
      <point x="449" y="84"/>
      <point x="372" y="84" type="curve" smooth="yes"/>
      <point x="330" y="84"/>
      <point x="281" y="97"/>
      <point x="245" y="122" type="curve"/>
      <point x="246" y="421" type="line" smooth="yes"/>
      <point x="246" y="528"/>
      <point x="248" y="573"/>
      <point x="254" y="591" type="curve"/>
      <point x="265" y="599"/>
      <point x="299" y="606"/>
      <point x="328" y="606" type="curve"/>
      <point x="325" y="662" type="line"/>
      <point x="288" y="661"/>
      <point x="231" y="659"/>
      <point x="176" y="659" type="curve" smooth="yes"/>
      <point x="121" y="659"/>
      <point x="64" y="661"/>
      <point x="30" y="662" type="curve"/>
      <point x="27" y="606" type="line"/>
      <point x="54" y="606"/>
      <point x="87" y="599"/>
      <point x="98" y="591" type="curve"/>
      <point x="103" y="581"/>
      <point x="106" y="517"/>
      <point x="106" y="421" type="curve" smooth="yes"/>
      <point x="106" y="56" type="line"/>
      <point x="161" y="11"/>
      <point x="257" y="-10"/>
    </contour>
    <contour>
      <point x="7" y="198" type="line"/>
      <point x="470" y="378" type="line"/>
      <point x="470" y="440" type="line"/>
      <point x="7" y="260" type="line"/>
    </contour>
    <contour>
      <point x="7" y="330" type="line"/>
      <point x="470" y="510" type="line"/>
      <point x="470" y="572" type="line"/>
      <point x="7" y="392" type="line"/>
    </contour>
  </outline>
</glyph>
<glyph name="ruble" format="1">
  <advance width="600"/>
  <unicode hex="20BD"/>
  <outline>
    <contour>
      <point x="38" y="-5" type="line"/>
      <point x="69" y="-1"/>
      <point x="142" y="0"/>
      <point x="187" y="0" type="curve" smooth="yes"/>
      <point x="232" y="0"/>
      <point x="307" y="-1"/>
      <point x="343" y="-5" type="curve"/>
      <point x="346" y="53" type="line"/>
      <point x="316" y="56"/>
      <point x="280" y="62"/>
      <point x="253" y="69" type="curve"/>
      <point x="249" y="77"/>
      <point x="245" y="133"/>
      <point x="245" y="199" type="curve" smooth="yes"/>
      <point x="245" y="416" type="line" smooth="yes"/>
      <point x="245" y="525"/>
      <point x="245" y="582"/>
      <point x="246" y="597" type="curve"/>
      <point x="260" y="601"/>
      <point x="274" y="602"/>
      <point x="296" y="602" type="curve" smooth="yes"/>
      <point x="375" y="602"/>
      <point x="425" y="550"/>
      <point x="425" y="465" type="curve" smooth="yes"/>
      <point x="425" y="393"/>
      <point x="382" y="351"/>
      <point x="312" y="351" type="curve" smooth="yes"/>
      <point x="10" y="351" type="line"/>
      <point x="10" y="289" type="line"/>
      <point x="318" y="289" type="line" smooth="yes"/>
      <point x="474" y="289"/>
      <point x="571" y="372"/>
      <point x="571" y="480" type="curve" smooth="yes"/>
      <point x="571" y="593"/>
      <point x="475" y="661"/>
      <point x="314" y="661" type="curve" smooth="yes"/>
      <point x="265" y="661"/>
      <point x="228" y="659"/>
      <point x="192" y="659" type="curve" smooth="yes"/>
      <point x="127" y="659"/>
      <point x="67" y="659"/>
      <point x="33" y="661" type="curve"/>
      <point x="30" y="605" type="line"/>
      <point x="58" y="604"/>
      <point x="90" y="599"/>
      <point x="101" y="591" type="curve"/>
      <point x="105" y="583"/>
      <point x="109" y="527"/>
      <point x="109" y="421" type="curve" smooth="yes"/>
      <point x="109" y="249" type="line" smooth="yes"/>
      <point x="109" y="133"/>
      <point x="105" y="77"/>
      <point x="101" y="69" type="curve"/>
      <point x="90" y="61"/>
      <point x="60" y="54"/>
      <point x="35" y="51" type="curve"/>
    </contour>
    <contour>
      <point x="10" y="157" type="line"/>
      <point x="440" y="157" type="line"/>
      <point x="440" y="219" type="line"/>
      <point x="10" y="219" type="line"/>
    </contour>
  </outline>
</glyph>
<glyph name="literSign" format="1">
  <advance width="600"/>
  <unicode hex="2113"/>
  <outline>
    <contour>
      <point x="324" y="-17" type="curve" smooth="yes"/>
      <point x="381" y="-17"/>
      <point x="434" y="6"/>
      <point x="479" y="51" type="curve"/>
      <point x="440" y="132" type="line"/>
      <point x="413" y="109"/>
      <point x="391" y="97"/>
      <point x="366" y="97" type="curve" smooth="yes"/>
      <point x="334" y="97"/>
      <point x="310" y="121"/>
      <point x="310" y="172" type="curve" smooth="yes"/>
      <point x="310" y="289" type="line"/>
      <point x="317" y="298"/>
      <point x="331" y="314"/>
      <point x="341" y="325" type="curve" smooth="yes"/>
      <point x="411" y="403"/>
      <point x="466" y="481"/>
      <point x="466" y="580" type="curve" smooth="yes"/>
      <point x="466" y="661"/>
      <point x="419" y="710"/>
      <point x="335" y="710" type="curve" smooth="yes"/>
      <point x="236" y="710"/>
      <point x="170" y="635"/>
      <point x="170" y="524" type="curve" smooth="yes"/>
      <point x="170" y="280" type="line"/>
      <point x="70" y="186" type="line"/>
      <point x="120" y="134" type="line"/>
      <point x="170" y="181" type="line"/>
      <point x="170" y="145" type="line" smooth="yes"/>
      <point x="170" y="61"/>
      <point x="213" y="-17"/>
    </contour>
    <contour>
      <point x="310" y="398" type="curve"/>
      <point x="310" y="542" type="line" smooth="yes"/>
      <point x="310" y="585"/>
      <point x="325" y="604"/>
      <point x="350" y="604" type="curve" smooth="yes"/>
      <point x="374" y="604"/>
      <point x="382" y="583"/>
      <point x="382" y="560" type="curve" smooth="yes"/>
      <point x="382" y="517"/>
      <point x="356" y="459"/>
      <point x="322" y="413" type="curve" smooth="yes"/>
      <point x="319" y="408"/>
      <point x="315" y="403"/>
    </contour>
  </outline>
</glyph>
<glyph name="Ohm" format="1">
  <advance width="874"/>
  <unicode hex="2126"/>
  <outline>
    <contour>
      <point x="58" y="-7" type="line"/>
      <point x="88" y="-3"/>
      <point x="160" y="0"/>
      <point x="217" y="0" type="curve" smooth="yes"/>
      <point x="382" y="0" type="line"/>
      <point x="391" y="52" type="line"/>
      <point x="304" y="147"/>
      <point x="254" y="260"/>
      <point x="254" y="362" type="curve" smooth="yes"/>
      <point x="254" y="512"/>
      <point x="322" y="600"/>
      <point x="437" y="600" type="curve" smooth="yes"/>
      <point x="552" y="600"/>
      <point x="620" y="512"/>
      <point x="620" y="362" type="curve" smooth="yes"/>
      <point x="620" y="260"/>
      <point x="570" y="147"/>
      <point x="483" y="52" type="curve"/>
      <point x="492" y="0" type="line"/>
      <point x="657" y="0" type="line" smooth="yes"/>
      <point x="714" y="0"/>
      <point x="786" y="-3"/>
      <point x="816" y="-7" type="curve"/>
      <point x="869" y="183" type="line"/>
      <point x="804" y="198" type="line"/>
      <point x="781" y="150"/>
      <point x="762" y="109"/>
      <point x="743" y="80" type="curve"/>
      <point x="724" y="77"/>
      <point x="711" y="74"/>
      <point x="663" y="74" type="curve" smooth="yes"/>
      <point x="555" y="74" type="line"/>
      <point x="576" y="57" type="line"/>
      <point x="699" y="131"/>
      <point x="783" y="261"/>
      <point x="783" y="383" type="curve" smooth="yes"/>
      <point x="783" y="545"/>
      <point x="642" y="670"/>
      <point x="437" y="670" type="curve" smooth="yes"/>
      <point x="232" y="670"/>
      <point x="91" y="545"/>
      <point x="91" y="383" type="curve" smooth="yes"/>
      <point x="91" y="261"/>
      <point x="175" y="141"/>
      <point x="298" y="57" type="curve"/>
      <point x="319" y="74" type="line"/>
      <point x="211" y="74" type="line" smooth="yes"/>
      <point x="163" y="74"/>
      <point x="150" y="77"/>
      <point x="131" y="80" type="curve"/>
      <point x="112" y="109"/>
      <point x="93" y="150"/>
      <point x="70" y="198" type="curve"/>
      <point x="5" y="183" type="line"/>
    </contour>
  </outline>
</glyph>
<glyph name="partialdiff" format="1">
  <advance width="600"/>
  <unicode hex="2202"/>
  <note>
    partialdiff
  </note>
  <outline>
    <contour>
      <point x="302" y="-10" type="curve" smooth="yes"/>
      <point x="452" y="-10"/>
      <point x="538" y="113"/>
      <point x="538" y="323" type="curve" smooth="yes"/>
      <point x="538" y="563"/>
      <point x="416" y="704"/>
      <point x="215" y="704" type="curve" smooth="yes"/>
      <point x="187" y="704"/>
      <point x="163" y="702"/>
      <point x="137" y="699" type="curve"/>
      <point x="137" y="644" type="line"/>
      <point x="169" y="644" type="line" smooth="yes"/>
      <point x="319" y="644"/>
      <point x="396" y="557"/>
      <point x="396" y="357" type="curve"/>
      <point x="410" y="355" type="line"/>
      <point x="382" y="425"/>
      <point x="333" y="451"/>
      <point x="267" y="451" type="curve" smooth="yes"/>
      <point x="149" y="451"/>
      <point x="61" y="355"/>
      <point x="61" y="219" type="curve" smooth="yes"/>
      <point x="61" y="79"/>
      <point x="154" y="-10"/>
    </contour>
    <contour>
      <point x="303" y="46" type="curve" smooth="yes"/>
      <point x="243" y="46"/>
      <point x="199" y="119"/>
      <point x="199" y="240" type="curve" smooth="yes"/>
      <point x="199" y="330"/>
      <point x="233" y="385"/>
      <point x="285" y="385" type="curve" smooth="yes"/>
      <point x="346" y="385"/>
      <point x="390" y="313"/>
      <point x="390" y="196" type="curve" smooth="yes"/>
      <point x="390" y="105"/>
      <point x="355" y="46"/>
    </contour>
  </outline>
</glyph>
<glyph name="summation" format="1">
  <advance width="587"/>
  <unicode hex="2211"/>
  <note>
    summation
  </note>
  <outline>
    <contour>
      <point x="470" y="-2" type="line"/>
      <point x="463" y="-46"/>
      <point x="457" y="-73"/>
      <point x="450" y="-103" type="curve"/>
      <point x="428" y="-106"/>
      <point x="405" y="-108"/>
      <point x="363" y="-108" type="curve" smooth="yes"/>
      <point x="91" y="-108" type="line"/>
      <point x="99" y="-192" type="line"/>
      <point x="388" y="229" type="line"/>
      <point x="158" y="642" type="line"/>
      <point x="155" y="598" type="line"/>
      <point x="358" y="598" type="line" smooth="yes"/>
      <point x="400" y="598"/>
      <point x="423" y="596"/>
      <point x="445" y="593" type="curve"/>
      <point x="452" y="563"/>
      <point x="458" y="531"/>
      <point x="465" y="478" type="curve"/>
      <point x="529" y="478" type="line"/>
      <point x="531" y="662" type="line"/>
      <point x="496" y="660"/>
      <point x="453" y="660"/>
      <point x="425" y="660" type="curve" smooth="yes"/>
      <point x="109" y="660" type="line" smooth="yes"/>
      <point x="80" y="660"/>
      <point x="50" y="661"/>
      <point x="21" y="662" type="curve"/>
      <point x="21" y="610" type="line"/>
      <point x="280" y="154" type="line"/>
      <point x="299" y="242" type="line"/>
      <point x="24" y="-170" type="line"/>
      <point x="24" y="-222" type="line"/>
      <point x="53" y="-221"/>
      <point x="83" y="-220"/>
      <point x="112" y="-220" type="curve" smooth="yes"/>
      <point x="428" y="-220" type="line" smooth="yes"/>
      <point x="456" y="-220"/>
      <point x="499" y="-220"/>
      <point x="534" y="-222" type="curve"/>
      <point x="532" y="-2" type="line"/>
    </contour>
  </outline>
</glyph>
<glyph name="radical" format="1">
  <advance width="559"/>
  <unicode hex="221A"/>
  <note>
    radical
  </note>
  <outline>
    <contour>
      <point x="265" y="-4" type="line"/>
      <point x="315" y="-4" type="line"/>
      <point x="562" y="660" type="line"/>
      <point x="478" y="660" type="line"/>
      <point x="306" y="135" type="line"/>
      <point x="347" y="135" type="line"/>
      <point x="253" y="371" type="line" smooth="yes"/>
      <point x="242" y="400"/>
      <point x="233" y="420"/>
      <point x="226" y="442" type="curve"/>
      <point x="190" y="440"/>
      <point x="75" y="440"/>
      <point x="32" y="440" type="curve"/>
      <point x="29" y="393" type="line"/>
      <point x="62" y="389"/>
      <point x="81" y="384"/>
      <point x="94" y="379" type="curve"/>
    </contour>
  </outline>
</glyph>
<glyph name="infinity" format="1">
  <advance width="600"/>
  <unicode hex="221E"/>
  <outline>
    <contour>
      <point x="35" y="279" type="curve" smooth="yes"/>
      <point x="35" y="186"/>
      <point x="93" y="124"/>
      <point x="173" y="124" type="curve" smooth="yes"/>
      <point x="229" y="124"/>
      <point x="285" y="167"/>
      <point x="305" y="242" type="curve"/>
      <point x="286" y="253" type="line"/>
      <point x="250" y="222"/>
      <point x="217" y="210"/>
      <point x="179" y="210" type="curve" smooth="yes"/>
      <point x="128" y="210"/>
      <point x="95" y="241"/>
      <point x="95" y="290" type="curve" smooth="yes"/>
      <point x="95" y="332"/>
      <point x="119" y="358"/>
      <point x="157" y="358" type="curve" smooth="yes"/>
      <point x="199" y="358"/>
      <point x="226" y="324"/>
      <point x="253" y="271" type="curve" smooth="yes"/>
      <point x="302" y="175"/>
      <point x="339" y="124"/>
      <point x="413" y="124" type="curve" smooth="yes"/>
      <point x="503" y="124"/>
      <point x="565" y="190"/>
      <point x="565" y="289" type="curve" smooth="yes"/>
      <point x="565" y="382"/>
      <point x="507" y="444"/>
      <point x="427" y="444" type="curve" smooth="yes"/>
      <point x="371" y="444"/>
      <point x="315" y="401"/>
      <point x="295" y="326" type="curve"/>
      <point x="314" y="315" type="line"/>
      <point x="350" y="346"/>
      <point x="383" y="358"/>
      <point x="421" y="358" type="curve" smooth="yes"/>
      <point x="472" y="358"/>
      <point x="505" y="327"/>
      <point x="505" y="278" type="curve" smooth="yes"/>
      <point x="505" y="236"/>
      <point x="481" y="210"/>
      <point x="443" y="210" type="curve" smooth="yes"/>
      <point x="398" y="210"/>
      <point x="374" y="244"/>
      <point x="338" y="317" type="curve" smooth="yes"/>
      <point x="300" y="394"/>
      <point x="249" y="444"/>
      <point x="187" y="444" type="curve" smooth="yes"/>
      <point x="97" y="444"/>
      <point x="35" y="378"/>
    </contour>
  </outline>
</glyph>
<glyph name="integral" format="1">
  <advance width="600"/>
  <unicode hex="222B"/>
  <outline>
    <contour>
      <point x="448" y="698" type="curve" smooth="yes"/>
      <point x="318" y="698"/>
      <point x="238" y="639"/>
      <point x="238" y="496" type="curve" smooth="yes"/>
      <point x="238" y="-55" type="line" smooth="yes"/>
      <point x="238" y="-136"/>
      <point x="211" y="-160"/>
      <point x="145" y="-160" type="curve" smooth="yes"/>
      <point x="124" y="-160"/>
      <point x="114" y="-159"/>
      <point x="113" y="-158" type="curve"/>
      <point x="113" y="-225" type="line"/>
      <point x="119" y="-228"/>
      <point x="134" y="-230"/>
      <point x="160" y="-230" type="curve" smooth="yes"/>
      <point x="280" y="-230"/>
      <point x="362" y="-182"/>
      <point x="362" y="-29" type="curve" smooth="yes"/>
      <point x="362" y="523" type="line" smooth="yes"/>
      <point x="362" y="595"/>
      <point x="388" y="628"/>
      <point x="464" y="628" type="curve" smooth="yes"/>
      <point x="474" y="628"/>
      <point x="485" y="627"/>
      <point x="495" y="626" type="curve"/>
      <point x="495" y="693" type="line"/>
      <point x="479" y="696"/>
      <point x="464" y="698"/>
    </contour>
  </outline>
</glyph>
<glyph name="approxequal" format="1">
  <advance width="600"/>
  <unicode hex="2248"/>
  <outline>
    <contour>
      <point x="500" y="442" type="line"/>
      <point x="482" y="407"/>
      <point x="457" y="388"/>
      <point x="425" y="388" type="curve" smooth="yes"/>
      <point x="371" y="388"/>
      <point x="273" y="464"/>
      <point x="190" y="464" type="curve" smooth="yes"/>
      <point x="130" y="464"/>
      <point x="79" y="423"/>
      <point x="56" y="354" type="curve"/>
      <point x="100" y="326" type="line"/>
      <point x="119" y="362"/>
      <point x="144" y="381"/>
      <point x="175" y="381" type="curve" smooth="yes"/>
      <point x="229" y="381"/>
      <point x="327" y="304"/>
      <point x="410" y="304" type="curve" smooth="yes"/>
      <point x="470" y="304"/>
      <point x="521" y="346"/>
      <point x="544" y="414" type="curve"/>
    </contour>
    <contour>
      <point x="500" y="242" type="line"/>
      <point x="482" y="207"/>
      <point x="457" y="188"/>
      <point x="425" y="188" type="curve" smooth="yes"/>
      <point x="371" y="188"/>
      <point x="273" y="264"/>
      <point x="190" y="264" type="curve" smooth="yes"/>
      <point x="130" y="264"/>
      <point x="79" y="223"/>
      <point x="56" y="154" type="curve"/>
      <point x="100" y="126" type="line"/>
      <point x="119" y="162"/>
      <point x="144" y="181"/>
      <point x="175" y="181" type="curve" smooth="yes"/>
      <point x="229" y="181"/>
      <point x="327" y="104"/>
      <point x="410" y="104" type="curve" smooth="yes"/>
      <point x="470" y="104"/>
      <point x="521" y="146"/>
      <point x="544" y="214" type="curve"/>
    </contour>
  </outline>
</glyph>
<glyph name="notequal" format="1">
  <advance width="600"/>
  <unicode hex="2260"/>
  <outline>
    <contour>
      <point x="361" y="562" type="line"/>
      <point x="146" y="44" type="line"/>
      <point x="227" y="10" type="line"/>
      <point x="442" y="528" type="line"/>
    </contour>
    <contour>
      <point x="544" y="430" type="line"/>
      <point x="56" y="430" type="line"/>
      <point x="56" y="342" type="line"/>
      <point x="544" y="342" type="line"/>
    </contour>
    <contour>
      <point x="544" y="230" type="line"/>
      <point x="56" y="230" type="line"/>
      <point x="56" y="142" type="line"/>
      <point x="544" y="142" type="line"/>
    </contour>
  </outline>
</glyph>
<glyph name="lessequal" format="1">
  <advance width="600"/>
  <unicode hex="2264"/>
  <outline>
    <contour>
      <point x="56" y="285" type="line"/>
      <point x="544" y="125" type="line"/>
      <point x="544" y="218" type="line"/>
      <point x="85" y="364" type="line"/>
      <point x="85" y="302" type="line"/>
      <point x="544" y="447" type="line"/>
      <point x="544" y="540" type="line"/>
      <point x="56" y="380" type="line"/>
    </contour>
    <contour>
      <point x="544" y="88" type="line"/>
      <point x="56" y="88" type="line"/>
      <point x="56" y="0" type="line"/>
      <point x="544" y="0" type="line"/>
    </contour>
  </outline>
</glyph>
<glyph name="greaterequal" format="1">
  <advance width="600"/>
  <unicode hex="2265"/>
  <outline>
    <contour>
      <point x="544" y="285" type="line"/>
      <point x="544" y="380" type="line"/>
      <point x="56" y="540" type="line"/>
      <point x="56" y="447" type="line"/>
      <point x="515" y="302" type="line"/>
      <point x="515" y="364" type="line"/>
      <point x="56" y="218" type="line"/>
      <point x="56" y="125" type="line"/>
    </contour>
    <contour>
      <point x="544" y="88" type="line"/>
      <point x="56" y="88" type="line"/>
      <point x="56" y="0" type="line"/>
      <point x="544" y="0" type="line"/>
    </contour>
  </outline>
</glyph>
<glyph name="leftanglebracket-math" format="1">
  <advance width="600"/>
  <unicode hex="27E8"/>
  <outline>
    <contour>
      <point x="176" y="274" type="line"/>
      <point x="326" y="-180" type="line"/>
      <point x="423" y="-180" type="line"/>
      <point x="273" y="274" type="line"/>
      <point x="423" y="728" type="line"/>
      <point x="326" y="728" type="line"/>
    </contour>
  </outline>
</glyph>
<glyph name="T_h" format="1">
  <advance width="1132"/>
  <note>
    T_h
  </note>
  <outline>
    <contour>
      <point x="1058" y="64" type="curve"/>
      <point x="1056" y="73"/>
      <point x="1053" y="113"/>
      <point x="1053" y="164" type="curve" smooth="yes"/>
      <point x="1053" y="268" type="line" smooth="yes"/>
      <point x="1053" y="382"/>
      <point x="988" y="448"/>
      <point x="903" y="448" type="curve" smooth="yes"/>
      <point x="849" y="448"/>
      <point x="798" y="424"/>
      <point x="756" y="373" type="curve"/>
      <point x="753" y="374" type="line"/>
      <point x="756" y="532"/>
      <point x="758" y="588"/>
      <point x="762" y="668" type="curve"/>
      <point x="729" y="665"/>
      <point x="665" y="660"/>
      <point x="616" y="660" type="curve" smooth="yes"/>
      <point x="179" y="660" type="line" smooth="yes"/>
      <point x="140" y="660"/>
      <point x="66" y="663"/>
      <point x="33" y="665" type="curve"/>
      <point x="26" y="601"/>
      <point x="18" y="536"/>
      <point x="10" y="471" type="curve"/>
      <point x="75" y="465" type="line"/>
      <point x="89" y="518"/>
      <point x="104" y="565"/>
      <point x="118" y="594" type="curve"/>
      <point x="136" y="597"/>
      <point x="149" y="598"/>
      <point x="167" y="598" type="curve" smooth="yes"/>
      <point x="208" y="598" type="line" smooth="yes"/>
      <point x="225" y="598"/>
      <point x="244" y="597"/>
      <point x="256" y="595" type="curve"/>
      <point x="257" y="581"/>
      <point x="259" y="473"/>
      <point x="259" y="381" type="curve" smooth="yes"/>
      <point x="259" y="259" type="line" smooth="yes"/>
      <point x="259" y="170"/>
      <point x="255" y="97"/>
      <point x="251" y="69" type="curve"/>
      <point x="224" y="62"/>
      <point x="178" y="56"/>
      <point x="150" y="53" type="curve"/>
      <point x="153" y="-5" type="line"/>
      <point x="197" y="-1"/>
      <point x="283" y="0"/>
      <point x="328" y="0" type="curve" smooth="yes"/>
      <point x="373" y="0"/>
      <point x="459" y="-1"/>
      <point x="503" y="-5" type="curve"/>
      <point x="506" y="53" type="line"/>
      <point x="478" y="56"/>
      <point x="432" y="62"/>
      <point x="405" y="69" type="curve"/>
      <point x="401" y="97"/>
      <point x="397" y="170"/>
      <point x="397" y="259" type="curve" smooth="yes"/>
      <point x="397" y="381" type="line" smooth="yes"/>
      <point x="397" y="473"/>
      <point x="399" y="581"/>
      <point x="400" y="595" type="curve"/>
      <point x="412" y="597"/>
      <point x="431" y="598"/>
      <point x="448" y="598" type="curve" smooth="yes"/>
      <point x="558" y="598" type="line" smooth="yes"/>
      <point x="576" y="598"/>
      <point x="601" y="595"/>
      <point x="619" y="592" type="curve"/>
      <point x="621" y="562"/>
      <point x="625" y="485"/>
      <point x="625" y="361" type="curve" smooth="yes"/>
      <point x="625" y="234" type="line" smooth="yes"/>
      <point x="625" y="123"/>
      <point x="620" y="71"/>
      <point x="619" y="64" type="curve"/>
      <point x="607" y="56"/>
      <point x="580" y="49"/>
      <point x="556" y="46" type="curve"/>
      <point x="560" y="-3" type="line"/>
      <point x="594" y="0"/>
      <point x="651" y="2"/>
      <point x="691" y="2" type="curve" smooth="yes"/>
      <point x="731" y="2"/>
      <point x="788" y="0"/>
      <point x="822" y="-3" type="curve"/>
      <point x="826" y="46" type="line"/>
      <point x="804" y="49"/>
      <point x="773" y="56"/>
      <point x="761" y="64" type="curve"/>
      <point x="759" y="73"/>
      <point x="756" y="113"/>
      <point x="756" y="164" type="curve" smooth="yes"/>
      <point x="756" y="311" type="line"/>
      <point x="778" y="339"/>
      <point x="808" y="354"/>
      <point x="840" y="354" type="curve" smooth="yes"/>
      <point x="886" y="354"/>
      <point x="923" y="323"/>
      <point x="923" y="248" type="curve" smooth="yes"/>
      <point x="923" y="164" type="line" smooth="yes"/>
      <point x="923" y="113"/>
      <point x="919" y="72"/>
      <point x="918" y="64" type="curve"/>
      <point x="904" y="56"/>
      <point x="879" y="49"/>
      <point x="860" y="46" type="curve"/>
      <point x="864" y="-3" type="line"/>
      <point x="898" y="0"/>
      <point x="950" y="2"/>
      <point x="990" y="2" type="curve" smooth="yes"/>
      <point x="1030" y="2"/>
      <point x="1085" y="0"/>
      <point x="1119" y="-3" type="curve"/>
      <point x="1123" y="46" type="line"/>
      <point x="1101" y="49"/>
      <point x="1070" y="56"/>
    </contour>
  </outline>
</glyph>
<glyph name="acutecomb.case" format="1">
  <advance width="600"/>
  <note>
    acutecomb.cap
  </note>
  <outline>
    <contour>
      <point x="332" y="703" type="line"/>
      <point x="484" y="834" type="line"/>
      <point x="364" y="857" type="line"/>
      <point x="268" y="724" type="line"/>
    </contour>
    <contour>
      <point x="300" y="660" type="move" name="_top"/>
    </contour>
    <contour>
      <point x="300" y="867" type="move" name="top"/>
    </contour>
  </outline>
</glyph>
<glyph name="brevecomb_gravecomb" format="1">
  <advance width="600"/>
  <outline>
    <contour>
      <point x="398" y="677" type="line"/>
      <point x="388" y="611"/>
      <point x="352" y="576"/>
      <point x="303" y="576" type="curve" smooth="yes"/>
      <point x="256" y="576"/>
      <point x="220" y="611"/>
      <point x="208" y="677" type="curve"/>
      <point x="142" y="656" type="line"/>
      <point x="147" y="556"/>
      <point x="212" y="491"/>
      <point x="301" y="491" type="curve" smooth="yes"/>
      <point x="390" y="491"/>
      <point x="453" y="556"/>
      <point x="458" y="656" type="curve"/>
    </contour>
    <contour>
      <point x="288" y="635" type="line"/>
      <point x="352" y="656" type="line"/>
      <point x="282" y="790" type="line"/>
      <point x="157" y="767" type="line"/>
    </contour>
    <contour>
      <point x="300" y="440" type="move" name="_top"/>
    </contour>
  </outline>
</glyph>
<glyph name="brevecomb_tildecomb.case" format="1">
  <advance width="600"/>
  <outline>
    <contour>
      <point x="301" y="716" type="curve" smooth="yes"/>
      <point x="397" y="716"/>
      <point x="472" y="761"/>
      <point x="488" y="831" type="curve"/>
      <point x="428" y="852" type="line"/>
      <point x="415" y="819"/>
      <point x="367" y="797"/>
      <point x="306" y="797" type="curve" smooth="yes"/>
      <point x="241" y="797"/>
      <point x="194" y="819"/>
      <point x="178" y="852" type="curve"/>
      <point x="112" y="831" type="line"/>
      <point x="128" y="761"/>
      <point x="205" y="716"/>
    </contour>
    <contour>
      <point x="369" y="860" type="curve" smooth="yes"/>
      <point x="424" y="860"/>
      <point x="467" y="893"/>
      <point x="489" y="951" type="curve"/>
      <point x="449" y="975" type="line"/>
      <point x="430" y="955"/>
      <point x="412" y="943"/>
      <point x="387" y="943" type="curve" smooth="yes"/>
      <point x="347" y="943"/>
      <point x="281" y="976"/>
      <point x="231" y="976" type="curve" smooth="yes"/>
      <point x="176" y="976"/>
      <point x="133" y="943"/>
      <point x="111" y="885" type="curve"/>
      <point x="151" y="861" type="line"/>
      <point x="169" y="881"/>
      <point x="188" y="893"/>
      <point x="213" y="893" type="curve" smooth="yes"/>
      <point x="253" y="893"/>
      <point x="319" y="860"/>
    </contour>
    <contour>
      <point x="300" y="660" type="move" name="_top"/>
    </contour>
  </outline>
</glyph>
<glyph name="brevecomb_tildecomb" format="1">
  <advance width="600"/>
  <outline>
    <contour>
      <point x="301" y="491" type="curve" smooth="yes"/>
      <point x="390" y="491"/>
      <point x="443" y="541"/>
      <point x="458" y="618" type="curve"/>
      <point x="398" y="637" type="line"/>
      <point x="388" y="597"/>
      <point x="352" y="573"/>
      <point x="303" y="573" type="curve" smooth="yes"/>
      <point x="256" y="573"/>
      <point x="220" y="597"/>
      <point x="208" y="637" type="curve"/>
      <point x="142" y="618" type="line"/>
      <point x="157" y="541"/>
      <point x="222" y="491"/>
    </contour>
    <contour>
      <point x="361" y="662" type="curve" smooth="yes"/>
      <point x="408" y="662"/>
      <point x="444" y="700"/>
      <point x="462" y="766" type="curve"/>
      <point x="422" y="789" type="line"/>
      <point x="406" y="760"/>
      <point x="391" y="747"/>
      <point x="370" y="747" type="curve" smooth="yes"/>
      <point x="336" y="747"/>
      <point x="281" y="790"/>
      <point x="239" y="790" type="curve" smooth="yes"/>
      <point x="192" y="790"/>
      <point x="156" y="752"/>
      <point x="138" y="686" type="curve"/>
      <point x="178" y="663" type="line"/>
      <point x="193" y="692"/>
      <point x="209" y="705"/>
      <point x="230" y="705" type="curve" smooth="yes"/>
      <point x="264" y="705"/>
      <point x="319" y="662"/>
    </contour>
    <contour>
      <point x="300" y="440" type="move" name="_top"/>
    </contour>
  </outline>
</glyph>
<glyph name="breveinvertedcomb.case" format="1">
  <advance width="600"/>
  <outline>
    <contour>
      <point x="172" y="710" type="line"/>
      <point x="185" y="743"/>
      <point x="233" y="765"/>
      <point x="294" y="765" type="curve" smooth="yes"/>
      <point x="359" y="765"/>
      <point x="406" y="743"/>
      <point x="422" y="710" type="curve"/>
      <point x="488" y="731" type="line"/>
      <point x="472" y="801"/>
      <point x="395" y="846"/>
      <point x="299" y="846" type="curve" smooth="yes"/>
      <point x="203" y="846"/>
      <point x="128" y="801"/>
      <point x="112" y="731" type="curve"/>
    </contour>
    <contour>
      <point x="300" y="660" type="move" name="_top"/>
    </contour>
    <contour>
      <point x="300" y="867" type="move" name="top"/>
    </contour>
  </outline>
</glyph>
<glyph name="caroncomb.alt" format="1">
  <advance width="600"/>
  <outline>
    <contour>
      <point x="265" y="457" type="line"/>
      <point x="341" y="492"/>
      <point x="390" y="559"/>
      <point x="390" y="617" type="curve" smooth="yes"/>
      <point x="390" y="670"/>
      <point x="349" y="693"/>
      <point x="308" y="693" type="curve" smooth="yes"/>
      <point x="270" y="693"/>
      <point x="241" y="669"/>
      <point x="241" y="638" type="curve" smooth="yes"/>
      <point x="241" y="577"/>
      <point x="303" y="588"/>
      <point x="303" y="555" type="curve" smooth="yes"/>
      <point x="303" y="536"/>
      <point x="286" y="514"/>
      <point x="243" y="490" type="curve"/>
    </contour>
    <contour>
      <point x="241" y="688" type="move" name="_topright"/>
    </contour>
  </outline>
</glyph>
<glyph name="circumflexcomb_hookabovecomb.case" format="1">
  <advance width="600"/>
  <outline>
    <contour>
      <point x="492" y="741" type="line"/>
      <point x="355" y="843" type="line"/>
      <point x="245" y="843" type="line"/>
      <point x="108" y="741" type="line"/>
      <point x="158" y="710" type="line"/>
      <point x="333" y="793" type="line"/>
      <point x="267" y="793" type="line"/>
      <point x="442" y="710" type="line"/>
    </contour>
    <contour>
      <point x="447" y="976" type="curve" smooth="yes"/>
      <point x="383" y="976"/>
      <point x="341" y="948"/>
      <point x="341" y="917" type="curve" smooth="yes"/>
      <point x="341" y="900"/>
      <point x="354" y="889"/>
      <point x="373" y="889" type="curve" smooth="yes"/>
      <point x="390" y="889"/>
      <point x="400" y="895"/>
      <point x="412" y="907" type="curve" smooth="yes"/>
      <point x="453" y="951" type="line"/>
      <point x="411" y="935" type="line"/>
      <point x="447" y="944"/>
      <point x="467" y="940"/>
      <point x="467" y="915" type="curve" smooth="yes"/>
      <point x="467" y="888"/>
      <point x="423" y="868"/>
      <point x="423" y="836" type="curve" smooth="yes"/>
      <point x="423" y="822" type="line"/>
      <point x="469" y="822" type="line"/>
      <point x="469" y="851"/>
      <point x="558" y="857"/>
      <point x="558" y="912" type="curve" smooth="yes"/>
      <point x="558" y="954"/>
      <point x="515" y="976"/>
    </contour>
    <contour>
      <point x="300" y="660" type="move" name="_top"/>
    </contour>
  </outline>
</glyph>
<glyph name="commaturnedabovecomb.case" format="1">
  <advance width="600"/>
  <outline>
    <contour>
      <point x="378" y="944" type="line"/>
      <point x="273" y="921"/>
      <point x="224" y="854"/>
      <point x="224" y="796" type="curve" smooth="yes"/>
      <point x="224" y="739"/>
      <point x="265" y="716"/>
      <point x="306" y="716" type="curve" smooth="yes"/>
      <point x="347" y="716"/>
      <point x="376" y="740"/>
      <point x="376" y="771" type="curve" smooth="yes"/>
      <point x="376" y="832"/>
      <point x="309" y="821"/>
      <point x="309" y="854" type="curve" smooth="yes"/>
      <point x="309" y="873"/>
      <point x="328" y="895"/>
      <point x="393" y="909" type="curve"/>
    </contour>
    <contour>
      <point x="300" y="660" type="move" name="_top"/>
    </contour>
    <contour>
      <point x="300" y="842" type="move" name="top"/>
    </contour>
  </outline>
</glyph>
<glyph name="dieresiscomb_acutecomb.case" format="1">
  <advance width="600"/>
  <outline>
    <contour>
      <point x="330" y="841" type="line"/>
      <point x="455" y="953" type="line"/>
      <point x="334" y="976" type="line"/>
      <point x="270" y="862" type="line"/>
    </contour>
    <contour>
      <point x="186" y="716" type="curve" smooth="yes"/>
      <point x="230" y="716"/>
      <point x="256" y="748"/>
      <point x="256" y="783" type="curve" smooth="yes"/>
      <point x="256" y="818"/>
      <point x="230" y="850"/>
      <point x="186" y="850" type="curve" smooth="yes"/>
      <point x="140" y="850"/>
      <point x="114" y="818"/>
      <point x="114" y="783" type="curve" smooth="yes"/>
      <point x="114" y="748"/>
      <point x="140" y="716"/>
    </contour>
    <contour>
      <point x="416" y="716" type="curve" smooth="yes"/>
      <point x="460" y="716"/>
      <point x="486" y="748"/>
      <point x="486" y="783" type="curve" smooth="yes"/>
      <point x="486" y="818"/>
      <point x="460" y="850"/>
      <point x="416" y="850" type="curve" smooth="yes"/>
      <point x="370" y="850"/>
      <point x="344" y="818"/>
      <point x="344" y="783" type="curve" smooth="yes"/>
      <point x="344" y="748"/>
      <point x="370" y="716"/>
    </contour>
    <contour>
      <point x="300" y="660" type="move" name="_top"/>
    </contour>
  </outline>
</glyph>
<glyph name="dieresiscomb_acutecomb" format="1">
  <advance width="600"/>
  <outline>
    <contour>
      <point x="206" y="511" type="curve" smooth="yes"/>
      <point x="249" y="511"/>
      <point x="274" y="542"/>
      <point x="274" y="576" type="curve" smooth="yes"/>
      <point x="274" y="610"/>
      <point x="249" y="641"/>
      <point x="206" y="641" type="curve" smooth="yes"/>
      <point x="161" y="641"/>
      <point x="136" y="610"/>
      <point x="136" y="576" type="curve" smooth="yes"/>
      <point x="136" y="542"/>
      <point x="161" y="511"/>
    </contour>
    <contour>
      <point x="396" y="511" type="curve" smooth="yes"/>
      <point x="439" y="511"/>
      <point x="464" y="542"/>
      <point x="464" y="576" type="curve" smooth="yes"/>
      <point x="464" y="610"/>
      <point x="439" y="641"/>
      <point x="396" y="641" type="curve" smooth="yes"/>
      <point x="351" y="641"/>
      <point x="326" y="610"/>
      <point x="326" y="576" type="curve" smooth="yes"/>
      <point x="326" y="542"/>
      <point x="351" y="511"/>
    </contour>
    <contour>
      <point x="330" y="645" type="line"/>
      <point x="455" y="767" type="line"/>
      <point x="334" y="790" type="line"/>
      <point x="270" y="666" type="line"/>
    </contour>
    <contour>
      <point x="300" y="440" type="move" name="_top"/>
    </contour>
  </outline>
</glyph>
<glyph name="dieresiscomb_macroncomb" format="1">
  <advance width="600"/>
  <outline>
    <contour>
      <point x="206" y="511" type="curve" smooth="yes"/>
      <point x="250" y="511"/>
      <point x="276" y="543"/>
      <point x="276" y="578" type="curve" smooth="yes"/>
      <point x="276" y="613"/>
      <point x="250" y="645"/>
      <point x="206" y="645" type="curve" smooth="yes"/>
      <point x="160" y="645"/>
      <point x="134" y="613"/>
      <point x="134" y="578" type="curve" smooth="yes"/>
      <point x="134" y="543"/>
      <point x="160" y="511"/>
    </contour>
    <contour>
      <point x="396" y="511" type="curve" smooth="yes"/>
      <point x="440" y="511"/>
      <point x="466" y="543"/>
      <point x="466" y="578" type="curve" smooth="yes"/>
      <point x="466" y="613"/>
      <point x="440" y="645"/>
      <point x="396" y="645" type="curve" smooth="yes"/>
      <point x="350" y="645"/>
      <point x="324" y="613"/>
      <point x="324" y="578" type="curve" smooth="yes"/>
      <point x="324" y="543"/>
      <point x="350" y="511"/>
    </contour>
    <contour>
      <point x="144" y="757" type="line"/>
      <point x="144" y="684" type="line"/>
      <point x="456" y="684" type="line"/>
      <point x="456" y="757" type="line"/>
    </contour>
    <contour>
      <point x="300" y="440" type="move" name="_top"/>
    </contour>
  </outline>
</glyph>
<glyph name="eight.osf" format="1">
  <advance width="597"/>
  <note>
    eight.onum
  </note>
  <outline>
    <contour>
      <point x="296" y="-10" type="curve" smooth="yes"/>
      <point x="450" y="-10"/>
      <point x="556" y="69"/>
      <point x="556" y="185" type="curve" smooth="yes"/>
      <point x="556" y="265"/>
      <point x="506" y="322"/>
      <point x="354" y="383" type="curve" smooth="yes"/>
      <point x="241" y="429"/>
      <point x="211" y="461"/>
      <point x="211" y="520" type="curve" smooth="yes"/>
      <point x="211" y="578"/>
      <point x="248" y="611"/>
      <point x="304" y="611" type="curve" smooth="yes"/>
      <point x="367" y="611"/>
      <point x="404" y="566"/>
      <point x="404" y="488" type="curve" smooth="yes"/>
      <point x="404" y="434"/>
      <point x="391" y="395"/>
      <point x="353" y="344" type="curve"/>
      <point x="367" y="330" type="line"/>
      <point x="474" y="357"/>
      <point x="532" y="416"/>
      <point x="532" y="497" type="curve" smooth="yes"/>
      <point x="532" y="598"/>
      <point x="450" y="670"/>
      <point x="316" y="670" type="curve" smooth="yes"/>
      <point x="176" y="670"/>
      <point x="78" y="592"/>
      <point x="78" y="486" type="curve" smooth="yes"/>
      <point x="78" y="392"/>
      <point x="132" y="334"/>
      <point x="283" y="274" type="curve" smooth="yes"/>
      <point x="394" y="230"/>
      <point x="420" y="200"/>
      <point x="420" y="144" type="curve" smooth="yes"/>
      <point x="420" y="88"/>
      <point x="379" y="54"/>
      <point x="313" y="54" type="curve" smooth="yes"/>
      <point x="237" y="54"/>
      <point x="188" y="100"/>
      <point x="188" y="172" type="curve" smooth="yes"/>
      <point x="188" y="223"/>
      <point x="206" y="266"/>
      <point x="255" y="312" type="curve"/>
      <point x="238" y="336" type="line"/>
      <point x="121" y="311"/>
      <point x="52" y="252"/>
      <point x="52" y="167" type="curve" smooth="yes"/>
      <point x="52" y="64"/>
      <point x="151" y="-10"/>
    </contour>
  </outline>
</glyph>
<glyph name="eight.tf" format="1">
  <advance width="600"/>
  <note>
    eight
  </note>
  <outline>
    <contour>
      <point x="295" y="-10" type="curve" smooth="yes"/>
      <point x="455" y="-10"/>
      <point x="563" y="69"/>
      <point x="563" y="185" type="curve" smooth="yes"/>
      <point x="563" y="265"/>
      <point x="513" y="322"/>
      <point x="355" y="383" type="curve" smooth="yes"/>
      <point x="237" y="429"/>
      <point x="205" y="461"/>
      <point x="205" y="518" type="curve" smooth="yes"/>
      <point x="205" y="573"/>
      <point x="245" y="606"/>
      <point x="303" y="606" type="curve" smooth="yes"/>
      <point x="369" y="606"/>
      <point x="408" y="561"/>
      <point x="408" y="486" type="curve" smooth="yes"/>
      <point x="408" y="434"/>
      <point x="394" y="395"/>
      <point x="354" y="344" type="curve"/>
      <point x="369" y="330" type="line"/>
      <point x="479" y="357"/>
      <point x="541" y="416"/>
      <point x="541" y="497" type="curve" smooth="yes"/>
      <point x="541" y="598"/>
      <point x="455" y="670"/>
      <point x="316" y="670" type="curve" smooth="yes"/>
      <point x="170" y="670"/>
      <point x="70" y="592"/>
      <point x="70" y="486" type="curve" smooth="yes"/>
      <point x="70" y="392"/>
      <point x="124" y="334"/>
      <point x="281" y="274" type="curve" smooth="yes"/>
      <point x="397" y="230"/>
      <point x="425" y="200"/>
      <point x="425" y="147" type="curve" smooth="yes"/>
      <point x="425" y="94"/>
      <point x="381" y="60"/>
      <point x="313" y="60" type="curve" smooth="yes"/>
      <point x="233" y="60"/>
      <point x="182" y="106"/>
      <point x="182" y="175" type="curve" smooth="yes"/>
      <point x="182" y="223"/>
      <point x="202" y="266"/>
      <point x="252" y="312" type="curve"/>
      <point x="234" y="336" type="line"/>
      <point x="113" y="311"/>
      <point x="43" y="252"/>
      <point x="43" y="167" type="curve" smooth="yes"/>
      <point x="43" y="64"/>
      <point x="143" y="-10"/>
    </contour>
  </outline>
</glyph>
<glyph name="four.tf" format="1">
  <advance width="600"/>
  <note>
    four
  </note>
  <outline>
    <contour>
      <point x="455" y="164" type="curve" smooth="yes"/>
      <point x="454" y="483" type="line"/>
      <point x="454" y="547"/>
      <point x="456" y="610"/>
      <point x="459" y="664" type="curve"/>
      <point x="381" y="664" type="line"/>
      <point x="21" y="211" type="line"/>
      <point x="31" y="164" type="line"/>
      <point x="552" y="164" type="line"/>
      <point x="552" y="251" type="line"/>
      <point x="176" y="251" type="line" smooth="yes"/>
      <point x="151" y="251"/>
      <point x="125" y="253"/>
      <point x="100" y="255" type="curve"/>
      <point x="128" y="228" type="line"/>
      <point x="334" y="503" type="line"/>
      <point x="317" y="509" type="line"/>
      <point x="317" y="164" type="line"/>
      <point x="317" y="103"/>
      <point x="315" y="77"/>
      <point x="315" y="69" type="curve"/>
      <point x="295" y="61"/>
      <point x="259" y="54"/>
      <point x="222" y="51" type="curve"/>
      <point x="226" y="-5" type="line"/>
      <point x="271" y="-1"/>
      <point x="332" y="2"/>
      <point x="386" y="2" type="curve" smooth="yes"/>
      <point x="440" y="2"/>
      <point x="492" y="-1"/>
      <point x="526" y="-5" type="curve"/>
      <point x="529" y="51" type="line"/>
      <point x="501" y="54"/>
      <point x="472" y="61"/>
      <point x="458" y="69" type="curve"/>
      <point x="457" y="77"/>
      <point x="455" y="103"/>
    </contour>
  </outline>
</glyph>
<glyph name="macroncomb_dieresiscomb.case" format="1">
  <advance width="600"/>
  <outline>
    <contour>
      <point x="114" y="730" type="line"/>
      <point x="486" y="730" type="line"/>
      <point x="486" y="803" type="line"/>
      <point x="114" y="803" type="line"/>
    </contour>
    <contour>
      <point x="186" y="976" type="curve" smooth="yes"/>
      <point x="140" y="976"/>
      <point x="114" y="944"/>
      <point x="114" y="909" type="curve" smooth="yes"/>
      <point x="114" y="874"/>
      <point x="140" y="842"/>
      <point x="186" y="842" type="curve" smooth="yes"/>
      <point x="230" y="842"/>
      <point x="256" y="874"/>
      <point x="256" y="909" type="curve" smooth="yes"/>
      <point x="256" y="944"/>
      <point x="230" y="976"/>
    </contour>
    <contour>
      <point x="416" y="976" type="curve" smooth="yes"/>
      <point x="370" y="976"/>
      <point x="344" y="944"/>
      <point x="344" y="909" type="curve" smooth="yes"/>
      <point x="344" y="874"/>
      <point x="370" y="842"/>
      <point x="416" y="842" type="curve" smooth="yes"/>
      <point x="460" y="842"/>
      <point x="486" y="874"/>
      <point x="486" y="909" type="curve" smooth="yes"/>
      <point x="486" y="944"/>
      <point x="460" y="976"/>
    </contour>
    <contour>
      <point x="300" y="660" type="move" name="_top"/>
    </contour>
  </outline>
</glyph>
<glyph name="macroncomb_gravecomb" format="1">
  <advance width="600"/>
  <outline>
    <contour>
      <point x="456" y="605" type="line"/>
      <point x="144" y="605" type="line"/>
      <point x="144" y="532" type="line"/>
      <point x="456" y="532" type="line"/>
    </contour>
    <contour>
      <point x="270" y="635" type="line"/>
      <point x="330" y="656" type="line"/>
      <point x="260" y="790" type="line"/>
      <point x="139" y="767" type="line"/>
    </contour>
    <contour>
      <point x="300" y="440" type="move" name="_top"/>
    </contour>
  </outline>
</glyph>
<glyph name="one.osf" format="1">
  <advance width="351"/>
  <note>
    one.onum
  </note>
  <outline>
    <contour>
      <point x="262" y="69" type="curve"/>
      <point x="258" y="74"/>
      <point x="254" y="110"/>
      <point x="254" y="177" type="curve" smooth="yes"/>
      <point x="254" y="292" type="line" smooth="yes"/>
      <point x="254" y="344"/>
      <point x="255" y="407"/>
      <point x="262" y="453" type="curve"/>
      <point x="26" y="354" type="line"/>
      <point x="29" y="293" type="line"/>
      <point x="56" y="302"/>
      <point x="100" y="312"/>
      <point x="116" y="314" type="curve"/>
      <point x="118" y="301"/>
      <point x="120" y="270"/>
      <point x="120" y="241" type="curve" smooth="yes"/>
      <point x="120" y="159" type="line" smooth="yes"/>
      <point x="120" y="103"/>
      <point x="116" y="73"/>
      <point x="112" y="69" type="curve"/>
      <point x="100" y="61"/>
      <point x="68" y="54"/>
      <point x="39" y="51" type="curve"/>
      <point x="42" y="-5" type="line"/>
      <point x="77" y="-1"/>
      <point x="133" y="2"/>
      <point x="187" y="2" type="curve" smooth="yes"/>
      <point x="241" y="2"/>
      <point x="297" y="-1"/>
      <point x="332" y="-5" type="curve"/>
      <point x="335" y="51" type="line"/>
      <point x="306" y="54"/>
      <point x="274" y="61"/>
    </contour>
  </outline>
</glyph>
<glyph name="one.tosf" format="1">
  <advance width="600"/>
  <note>
    one.onum
  </note>
  <outline>
    <contour>
      <point x="394" y="69" type="curve"/>
      <point x="388" y="74"/>
      <point x="384" y="110"/>
      <point x="384" y="177" type="curve" smooth="yes"/>
      <point x="384" y="292" type="line" smooth="yes"/>
      <point x="384" y="344"/>
      <point x="385" y="407"/>
      <point x="392" y="453" type="curve"/>
      <point x="132" y="355" type="line"/>
      <point x="136" y="294" type="line"/>
      <point x="170" y="302"/>
      <point x="225" y="312"/>
      <point x="246" y="314" type="curve"/>
      <point x="248" y="301"/>
      <point x="250" y="270"/>
      <point x="250" y="241" type="curve" smooth="yes"/>
      <point x="250" y="159" type="line" smooth="yes"/>
      <point x="250" y="103"/>
      <point x="246" y="73"/>
      <point x="242" y="69" type="curve"/>
      <point x="225" y="61"/>
      <point x="180" y="54"/>
      <point x="139" y="51" type="curve"/>
      <point x="143" y="-5" type="line"/>
      <point x="193" y="-1"/>
      <point x="263" y="2"/>
      <point x="317" y="2" type="curve" smooth="yes"/>
      <point x="371" y="2"/>
      <point x="442" y="-1"/>
      <point x="491" y="-5" type="curve"/>
      <point x="495" y="51" type="line"/>
      <point x="455" y="54"/>
      <point x="410" y="61"/>
    </contour>
  </outline>
</glyph>
<glyph name="ringcomb.case" format="1">
  <advance width="600"/>
  <note>
    uni030A.cap
  </note>
  <outline>
    <contour>
      <point x="301" y="709" type="curve" smooth="yes"/>
      <point x="366" y="709"/>
      <point x="413" y="754"/>
      <point x="413" y="815" type="curve" smooth="yes"/>
      <point x="413" y="876"/>
      <point x="366" y="921"/>
      <point x="301" y="921" type="curve" smooth="yes"/>
      <point x="236" y="921"/>
      <point x="187" y="875"/>
      <point x="187" y="815" type="curve" smooth="yes"/>
      <point x="187" y="755"/>
      <point x="236" y="709"/>
    </contour>
    <contour>
      <point x="302" y="755" type="curve" smooth="yes"/>
      <point x="267" y="755"/>
      <point x="242" y="781"/>
      <point x="242" y="816" type="curve" smooth="yes"/>
      <point x="242" y="851"/>
      <point x="267" y="877"/>
      <point x="302" y="877" type="curve" smooth="yes"/>
      <point x="336" y="877"/>
      <point x="360" y="852"/>
      <point x="360" y="816" type="curve" smooth="yes"/>
      <point x="360" y="780"/>
      <point x="336" y="755"/>
    </contour>
    <contour>
      <point x="300" y="660" type="move" name="_top"/>
    </contour>
    <contour>
      <point x="300" y="882" type="move" name="top"/>
    </contour>
  </outline>
</glyph>
<glyph name="ringcomb_acutecomb" format="1">
  <advance width="600"/>
  <outline>
    <contour>
      <point x="301" y="484" type="curve" smooth="yes"/>
      <point x="366" y="484"/>
      <point x="413" y="529"/>
      <point x="413" y="590" type="curve" smooth="yes"/>
      <point x="413" y="651"/>
      <point x="366" y="696"/>
      <point x="301" y="696" type="curve" smooth="yes"/>
      <point x="236" y="696"/>
      <point x="187" y="650"/>
      <point x="187" y="590" type="curve" smooth="yes"/>
      <point x="187" y="530"/>
      <point x="236" y="484"/>
    </contour>
    <contour>
      <point x="302" y="530" type="curve" smooth="yes"/>
      <point x="267" y="530"/>
      <point x="242" y="556"/>
      <point x="242" y="591" type="curve" smooth="yes"/>
      <point x="242" y="626"/>
      <point x="267" y="652"/>
      <point x="302" y="652" type="curve" smooth="yes"/>
      <point x="336" y="652"/>
      <point x="360" y="627"/>
      <point x="360" y="591" type="curve" smooth="yes"/>
      <point x="360" y="555"/>
      <point x="336" y="530"/>
    </contour>
    <contour>
      <point x="383" y="635" type="line"/>
      <point x="514" y="767" type="line"/>
      <point x="393" y="790" type="line"/>
      <point x="323" y="656" type="line"/>
    </contour>
    <contour>
      <point x="300" y="440" type="move" name="_top"/>
    </contour>
  </outline>
</glyph>
<glyph name="three.osf" format="1">
  <advance width="472"/>
  <note>
    three.onum
  </note>
  <outline>
    <contour>
      <point x="172" y="-228" type="curve" smooth="yes"/>
      <point x="334" y="-228"/>
      <point x="433" y="-130"/>
      <point x="433" y="-26" type="curve" smooth="yes"/>
      <point x="433" y="74"/>
      <point x="351" y="137"/>
      <point x="215" y="144" type="curve"/>
      <point x="196" y="119" type="line"/>
      <point x="328" y="152"/>
      <point x="398" y="211"/>
      <point x="398" y="301" type="curve" smooth="yes"/>
      <point x="398" y="384"/>
      <point x="330" y="448"/>
      <point x="221" y="448" type="curve" smooth="yes"/>
      <point x="127" y="448"/>
      <point x="61" y="403"/>
      <point x="26" y="346" type="curve"/>
      <point x="57" y="317" type="line"/>
      <point x="84" y="342"/>
      <point x="118" y="354"/>
      <point x="160" y="354" type="curve" smooth="yes"/>
      <point x="224" y="354"/>
      <point x="259" y="320"/>
      <point x="259" y="268" type="curve" smooth="yes"/>
      <point x="259" y="194"/>
      <point x="195" y="150"/>
      <point x="107" y="139" type="curve"/>
      <point x="114" y="78" type="line"/>
      <point x="128" y="80"/>
      <point x="139" y="81"/>
      <point x="164" y="81" type="curve" smooth="yes"/>
      <point x="242" y="81"/>
      <point x="294" y="36"/>
      <point x="294" y="-40" type="curve" smooth="yes"/>
      <point x="294" y="-127"/>
      <point x="229" y="-182"/>
      <point x="159" y="-170" type="curve"/>
      <point x="196" y="-182" type="line"/>
      <point x="125" y="-121" type="line" smooth="yes"/>
      <point x="101" y="-100"/>
      <point x="85" y="-92"/>
      <point x="60" y="-92" type="curve" smooth="yes"/>
      <point x="34" y="-92"/>
      <point x="10" y="-109"/>
      <point x="10" y="-141" type="curve" smooth="yes"/>
      <point x="10" y="-191"/>
      <point x="75" y="-228"/>
    </contour>
  </outline>
</glyph>
<glyph name="three.tf" format="1">
  <advance width="600"/>
  <note>
    three
  </note>
  <outline>
    <contour>
      <point x="281" y="354" type="line"/>
      <point x="402" y="364"/>
      <point x="480" y="433"/>
      <point x="480" y="521" type="curve" smooth="yes"/>
      <point x="480" y="606"/>
      <point x="399" y="670"/>
      <point x="282" y="670" type="curve" smooth="yes"/>
      <point x="176" y="670"/>
      <point x="93" y="618"/>
      <point x="57" y="536" type="curve"/>
      <point x="98" y="505" type="line"/>
      <point x="126" y="547"/>
      <point x="172" y="572"/>
      <point x="232" y="572" type="curve" smooth="yes"/>
      <point x="301" y="572"/>
      <point x="339" y="539"/>
      <point x="339" y="485" type="curve" smooth="yes"/>
      <point x="339" y="418"/>
      <point x="280" y="371"/>
      <point x="162" y="360" type="curve"/>
      <point x="169" y="298" type="line"/>
      <point x="196" y="301"/>
      <point x="215" y="303"/>
      <point x="235" y="303" type="curve" smooth="yes"/>
      <point x="328" y="303"/>
      <point x="381" y="256"/>
      <point x="381" y="180" type="curve" smooth="yes"/>
      <point x="381" y="93"/>
      <point x="315" y="39"/>
      <point x="213" y="59" type="curve"/>
      <point x="252" y="40" type="line"/>
      <point x="176" y="108" type="line" smooth="yes"/>
      <point x="149" y="132"/>
      <point x="131" y="138"/>
      <point x="105" y="138" type="curve" smooth="yes"/>
      <point x="73" y="138"/>
      <point x="50" y="115"/>
      <point x="50" y="84" type="curve" smooth="yes"/>
      <point x="50" y="30"/>
      <point x="123" y="-10"/>
      <point x="232" y="-10" type="curve" smooth="yes"/>
      <point x="411" y="-10"/>
      <point x="521" y="91"/>
      <point x="521" y="199" type="curve" smooth="yes"/>
      <point x="521" y="298"/>
      <point x="443" y="361"/>
      <point x="300" y="364" type="curve"/>
    </contour>
  </outline>
</glyph>
<glyph name="three.tosf" format="1">
  <advance width="600"/>
  <note>
    three.onum
  </note>
  <outline>
    <contour>
      <point x="232" y="-228" type="curve" smooth="yes"/>
      <point x="406" y="-228"/>
      <point x="510" y="-130"/>
      <point x="510" y="-26" type="curve" smooth="yes"/>
      <point x="510" y="74"/>
      <point x="424" y="137"/>
      <point x="279" y="144" type="curve"/>
      <point x="258" y="119" type="line"/>
      <point x="400" y="152"/>
      <point x="475" y="211"/>
      <point x="475" y="301" type="curve" smooth="yes"/>
      <point x="475" y="384"/>
      <point x="407" y="448"/>
      <point x="288" y="448" type="curve" smooth="yes"/>
      <point x="184" y="448"/>
      <point x="114" y="402"/>
      <point x="78" y="343" type="curve"/>
      <point x="109" y="314" type="line"/>
      <point x="138" y="341"/>
      <point x="177" y="354"/>
      <point x="226" y="354" type="curve" smooth="yes"/>
      <point x="299" y="354"/>
      <point x="336" y="320"/>
      <point x="336" y="268" type="curve" smooth="yes"/>
      <point x="336" y="194"/>
      <point x="263" y="150"/>
      <point x="163" y="139" type="curve"/>
      <point x="170" y="78" type="line"/>
      <point x="185" y="80"/>
      <point x="197" y="81"/>
      <point x="228" y="81" type="curve" smooth="yes"/>
      <point x="316" y="81"/>
      <point x="371" y="36"/>
      <point x="371" y="-40" type="curve" smooth="yes"/>
      <point x="371" y="-127"/>
      <point x="293" y="-182"/>
      <point x="208" y="-170" type="curve"/>
      <point x="245" y="-182" type="line"/>
      <point x="174" y="-121" type="line" smooth="yes"/>
      <point x="150" y="-100"/>
      <point x="134" y="-92"/>
      <point x="109" y="-92" type="curve" smooth="yes"/>
      <point x="83" y="-92"/>
      <point x="59" y="-109"/>
      <point x="59" y="-141" type="curve" smooth="yes"/>
      <point x="59" y="-191"/>
      <point x="124" y="-228"/>
    </contour>
  </outline>
</glyph>
<glyph name="tildecomb_dieresiscomb.case" format="1">
  <advance width="600"/>
  <outline>
    <contour>
      <point x="184" y="846" type="curve" smooth="yes"/>
      <point x="227" y="846"/>
      <point x="252" y="877"/>
      <point x="252" y="911" type="curve" smooth="yes"/>
      <point x="252" y="945"/>
      <point x="227" y="976"/>
      <point x="184" y="976" type="curve" smooth="yes"/>
      <point x="139" y="976"/>
      <point x="114" y="945"/>
      <point x="114" y="911" type="curve" smooth="yes"/>
      <point x="114" y="877"/>
      <point x="139" y="846"/>
    </contour>
    <contour>
      <point x="418" y="846" type="curve" smooth="yes"/>
      <point x="461" y="846"/>
      <point x="486" y="877"/>
      <point x="486" y="911" type="curve" smooth="yes"/>
      <point x="486" y="945"/>
      <point x="461" y="976"/>
      <point x="418" y="976" type="curve" smooth="yes"/>
      <point x="373" y="976"/>
      <point x="348" y="945"/>
      <point x="348" y="911" type="curve" smooth="yes"/>
      <point x="348" y="877"/>
      <point x="373" y="846"/>
    </contour>
    <contour>
      <point x="369" y="717" type="curve" smooth="yes"/>
      <point x="424" y="717"/>
      <point x="467" y="750"/>
      <point x="489" y="808" type="curve"/>
      <point x="449" y="832" type="line"/>
      <point x="430" y="812"/>
      <point x="412" y="800"/>
      <point x="387" y="800" type="curve" smooth="yes"/>
      <point x="347" y="800"/>
      <point x="281" y="833"/>
      <point x="231" y="833" type="curve" smooth="yes"/>
      <point x="176" y="833"/>
      <point x="133" y="800"/>
      <point x="111" y="742" type="curve"/>
      <point x="151" y="718" type="line"/>
      <point x="169" y="738"/>
      <point x="188" y="750"/>
      <point x="213" y="750" type="curve" smooth="yes"/>
      <point x="253" y="750"/>
      <point x="319" y="717"/>
    </contour>
    <contour>
      <point x="300" y="660" type="move" name="_top"/>
    </contour>
  </outline>
</glyph>
<glyph name="two.tosf" format="1">
  <advance width="600"/>
  <note>
    two.onum
  </note>
  <outline>
    <contour>
      <point x="88" y="-2" type="line"/>
      <point x="113" y="-1"/>
      <point x="133" y="0"/>
      <point x="160" y="0" type="curve" smooth="yes"/>
      <point x="393" y="0" type="line" smooth="yes"/>
      <point x="436" y="0"/>
      <point x="472" y="-1"/>
      <point x="508" y="-2" type="curve"/>
      <point x="528" y="161" type="line"/>
      <point x="467" y="161" type="line"/>
      <point x="463" y="142"/>
      <point x="458" y="122"/>
      <point x="454" y="105" type="curve"/>
      <point x="431" y="102"/>
      <point x="405" y="100"/>
      <point x="379" y="100" type="curve" smooth="yes"/>
      <point x="216" y="100" type="line"/>
      <point x="216" y="79" type="line"/>
      <point x="391" y="155"/>
      <point x="465" y="224"/>
      <point x="465" y="309" type="curve" smooth="yes"/>
      <point x="465" y="392"/>
      <point x="392" y="448"/>
      <point x="280" y="448" type="curve" smooth="yes"/>
      <point x="178" y="448"/>
      <point x="101" y="399"/>
      <point x="68" y="323" type="curve"/>
      <point x="99" y="294" type="line"/>
      <point x="127" y="331"/>
      <point x="168" y="353"/>
      <point x="221" y="353" type="curve" smooth="yes"/>
      <point x="286" y="353"/>
      <point x="326" y="321"/>
      <point x="326" y="273" type="curve" smooth="yes"/>
      <point x="326" y="202"/>
      <point x="245" y="131"/>
      <point x="84" y="46" type="curve"/>
    </contour>
  </outline>
</glyph>
